<svg xmlns="http://www.w3.org/2000/svg" viewBox="0 0 736.37 88.63"><defs><style>.cls-1{fill:#efbb26;}.cls-2{fill:#2196f3;}.cls-3{fill:#f44436;}.cls-4{fill:#44a047;}.cls-5{fill:#4d4d4d;}</style></defs><title>Asset 7</title><g id="Layer_2" data-name="Layer 2"><g id="Layer_1-2" data-name="Layer 1"><path class="cls-1" d="M435.13,14.51a6.33,6.33,0,0,0-.43,5.77c.15.31.1.43-.21.54a21.78,21.78,0,0,0-3.82,2,.42.42,0,0,1-.66-.11,6.87,6.87,0,0,1-1.37-6.52,12.57,12.57,0,0,1,.84-2.13A9.11,9.11,0,0,0,428,17.76a6.82,6.82,0,0,0,1.49,5.35c.16.19.16.29-.06.42a19.15,19.15,0,0,1-3.81,1.78.66.66,0,0,1-.74-.18c-2.44-2.3-2.88-5.06-1.85-8.15.06-.17.12-.35.19-.53-.05,0-.08,0-.08,0a8,8,0,0,0-.53,6.54,7,7,0,0,0,1.52,2.31c.07.08.19.14.15.26s-.17.09-.27.11a6.38,6.38,0,0,1-2.75-.16,3.57,3.57,0,0,1-2.9-3.67,8.51,8.51,0,0,1,.14-1.74c.1-.56.25-1.1.34-1.67-.13.35-.28.71-.4,1.07a8.34,8.34,0,0,0-.47,2.57.66.66,0,0,1-.37.63,22.94,22.94,0,0,0-4.44,3.46,9,9,0,0,0-1.78,2.42,1.57,1.57,0,0,1-.18.31c-.08.11-.14.3-.32.23s-.1-.23-.09-.36a8.89,8.89,0,0,1,.56-2.5,15,15,0,0,1,2-4.2,4.67,4.67,0,0,1,2.54-2c.11,0,.2-.07.2-.21a4,4,0,0,1,.87-2.1,18.72,18.72,0,0,1,6.65-5.91,5.86,5.86,0,0,1,1.67-.6,1.72,1.72,0,0,0,.86-.46A25.7,25.7,0,0,1,429.68,8,13.15,13.15,0,0,1,441,6.47,24.23,24.23,0,0,1,449.9,11a12.25,12.25,0,0,1,3.44,4.56,3.17,3.17,0,0,0,.6.89c1.7,1.92,3.46,3.8,5,5.86a27.73,27.73,0,0,1,4.34,7.72,11.76,11.76,0,0,1,.39,7.18,6.35,6.35,0,0,1-.31.9.66.66,0,0,0,.07.7,10.21,10.21,0,0,1,1.81,7.42c-.08.65-.13,1.29-.19,1.94,0,.07,0,.19-.07.21s-.16-.06-.21-.12a6.94,6.94,0,0,0-1.17-1.13,1.71,1.71,0,0,0-2.62.28,7.93,7.93,0,0,0-1.06,1.68c-.23.43-.43.88-.67,1.31a1.87,1.87,0,0,1-2.36.94,4.7,4.7,0,0,1-2.7-2.21c-.29-.51-.52-.57-.93-.13a3.39,3.39,0,0,0-.92,2.23c0,.22,0,.37-.28.17a6.51,6.51,0,0,1-2.5-3.75,4.39,4.39,0,0,1,.88-3.64,4.59,4.59,0,0,0,.18-5.53,13,13,0,0,0-3.35-3.67A.61.61,0,0,1,447,34a8.24,8.24,0,0,0,.33-1.23c.06-.26.17-.38.45-.37a8.48,8.48,0,0,1,1.67.11,4,4,0,0,1,2.67,1.9c.32.53.61,1.08.94,1.61a3.53,3.53,0,0,0,2.68,1.85,2.56,2.56,0,0,0,2.5-1,2.49,2.49,0,0,0,.28-2.63,1.7,1.7,0,0,0-2.79-.58,1,1,0,0,0-.23,1,1.81,1.81,0,0,1,.23-.83,1.43,1.43,0,0,1,2-.25,2,2,0,0,1,.27,2.85,2.61,2.61,0,0,1-3.87,0,6.15,6.15,0,0,1-.95-1.6,7,7,0,0,0-2-2.66,5.14,5.14,0,0,0-3-1.1c-.61,0-.6,0-.56-.63a10.77,10.77,0,0,0-.16-3.05c-.07-.35.07-.39.36-.41a3.43,3.43,0,0,1,2.92,1.15c.35.38.71.75,1.09,1.1a2.73,2.73,0,0,0,3,.69,2.12,2.12,0,0,0,.75-3.5,1.37,1.37,0,0,0-2.15.19,1.44,1.44,0,0,1,.94-.5,1.63,1.63,0,0,1,1.44,2.31,2.15,2.15,0,0,1-3.12.9,6.87,6.87,0,0,1-1.31-1.33,5,5,0,0,0-2.79-1.86,3.12,3.12,0,0,0-1.14-.1.32.32,0,0,1-.39-.23c-1.8-4.05-5.14-5.62-9.34-5.77a6,6,0,0,0-1.88.29.45.45,0,0,1-.61-.24,5.7,5.7,0,0,1-.48-4.6C434.9,15.2,435,14.86,435.13,14.51Z"/><path class="cls-1" d="M413.58,59.36c.13,0,.17.12.23.2a14.65,14.65,0,0,1,2,3.29c.07.18.12.18.27.09a.84.84,0,0,1,1.07.06,2.87,2.87,0,0,0,3.12.45,4.06,4.06,0,0,0,.89-.43,1.34,1.34,0,0,1,.95-.21l2.41.24a3.5,3.5,0,0,0,3.11-.93c.15-.17.21,0,.29.08a26.12,26.12,0,0,0,4.77,5.19,3.58,3.58,0,0,0,2.86.9,2.45,2.45,0,0,0,.54-.1c.54-.17.78-.54.51-1-.59-1-.14-1.8.55-2.56a31.58,31.58,0,0,1,2.95-2.71c1.51-1.28,3-2.57,4.57-3.83a6,6,0,0,1,2.92-1.33A7.64,7.64,0,0,0,451.38,55c.13-.11.27-.23.33,0a11.26,11.26,0,0,1,.14,4.8,2,2,0,0,1-.27.7,3.85,3.85,0,0,0-.54,2.24,10.24,10.24,0,0,0,.3,2.64.61.61,0,0,1-.32.75c-1.53,1-3,2-4.47,3.16a46.74,46.74,0,0,0-8.05,8.16,18.59,18.59,0,0,1-5.74,4.88,4.21,4.21,0,0,1-2,.42,37.11,37.11,0,0,1-6.4-.63c-.8-.13-1.59-.28-2.39-.39a.77.77,0,0,1-.63-.46c-1.78-3.36-3.55-6.72-5.55-10a9.86,9.86,0,0,0-1.56-2,3.06,3.06,0,0,1-.22-3.43.73.73,0,0,0,.08-.69,5.46,5.46,0,0,1-.12-2.6,5.27,5.27,0,0,0-.36-2.94C413.58,59.57,413.49,59.47,413.58,59.36ZM430,69.94a8.52,8.52,0,0,0-2.45-2.3,2.24,2.24,0,0,0-1.4-.36c-1.25.13-2.49.31-3.75.41a9.82,9.82,0,0,1-4.78-.28.46.46,0,0,0-.66.31,2.41,2.41,0,0,0,.84,2.7,6.87,6.87,0,0,0,3.91,1,15.93,15.93,0,0,0,5.41-1.16A4.39,4.39,0,0,1,430,69.94Z"/><path class="cls-1" d="M440.78,42.15a4.69,4.69,0,0,1-.2,1.29c-.08.28-.17.28-.35.06a3.42,3.42,0,0,0-1.86-1.35,2.26,2.26,0,0,0-1.85.22,7.09,7.09,0,0,1-3.74.86c-1.95.06-3.89-.08-5.83-.21a2,2,0,0,0-1.76.73c-.32.37-.62.76-.92,1.14a3.31,3.31,0,0,1-.63.61,1.23,1.23,0,0,1-1.61,0,2.87,2.87,0,0,1-1.35-2.31,1,1,0,0,1,.05-.35c.1-.35.19-.37.48-.15a1.45,1.45,0,0,0,2.27-.3,3.26,3.26,0,0,0,.59-1.12,1.56,1.56,0,0,1,1.28-1.15,10.3,10.3,0,0,1,2.21-.23,21.28,21.28,0,0,0,4-.33,5.42,5.42,0,0,0,2-.79c.14-.09.24-.18.4,0A4.41,4.41,0,0,0,437,40.12a5.17,5.17,0,0,0,2.8-.36c.23-.11.31.05.39.19A4.38,4.38,0,0,1,440.78,42.15Z"/><path class="cls-1" d="M408.27,42.1a4.07,4.07,0,0,1,.62-2c.1-.14.17-.35.41-.1a.4.4,0,0,0,.55-.06,1.9,1.9,0,0,1,2-.25c1,.26,2,.34,2.92.6a1.25,1.25,0,0,1,1,.87,1.79,1.79,0,0,0,2.13,1.26c.59-.05.59-.05.65.54a4.18,4.18,0,0,0,.73,1.92c.06.09.21.17.14.3s-.21.07-.33.07A3.17,3.17,0,0,1,416.57,44a1.19,1.19,0,0,0-1-.53,29.73,29.73,0,0,1-3.72-.61,4.34,4.34,0,0,0-1.14-.13c-.48,0-.6.12-.66.6-.1.93-.33,1-1.1.46A1.93,1.93,0,0,1,408.27,42.1Z"/><path class="cls-2" d="M14.27,85.56c-1.48-2.77-2.9-5.56-4.54-8.24a30.39,30.39,0,0,0-2.44-3.23,12.65,12.65,0,0,1-2.64-4.15,3.42,3.42,0,0,1-.07-1.27,3.27,3.27,0,0,0-.63-2,18.55,18.55,0,0,1-2.27-4.54,10.77,10.77,0,0,1-.24-4c.12-1.4.11-2.8.12-4.21a1.57,1.57,0,0,0-.37-.91c-.39-.55-.34-.74.21-1.11A8.66,8.66,0,0,0,4,49.35a6.57,6.57,0,0,0,.87-2.6,5.28,5.28,0,0,1,.34-1.37c.17.44,0,.75,0,1.08,0,.91.13,1.81.12,2.72a.75.75,0,0,1-.21.54,6.64,6.64,0,0,0-1.64,3.41c0,.15-.09.36.09.47s.21,0,.31-.08.16-.28.32-.17.11.32.09.48c-.13.72-.24,1.46-.44,2.17a26,26,0,0,0-.76,3.13,9.67,9.67,0,0,0,0,2.74c0,.24.25.33.41.48a6.59,6.59,0,0,1,1.8,2.06,2.6,2.6,0,0,1,.22,2.2c-.28.6,0,.88.4,1.17a1.19,1.19,0,0,1,.36,1.72c-.17.26-.07.44,0,.65a39.62,39.62,0,0,0,3.32,5.43,50.33,50.33,0,0,1,3.51,5.35c.3-.43.28-.94.68-1.45-.19,1.36-.25,2.56.85,3.46.3-.92.17-1.9.53-2.89.25.81.26,1.55.44,2.27.23,1,.37,2,.54,2.93a1.6,1.6,0,0,1,0,.31Z"/><path class="cls-2" d="M20.35,77a16.33,16.33,0,0,0-1.49-2.17l-.44.4a5.69,5.69,0,0,1-.83-2.74.87.87,0,0,0-.62-.86c-.24-.09-.48-.14-.72-.22a1.18,1.18,0,0,1-.84-1c-.09-.51.14-.76.65-.76l.93,0s.05,0,.11-.09c-.58-.54-1.09-1.14-1.63-1.71-1.38-1.48-2.66-3-3.91-4.62-.8-1-1.65-2-2.48-3a.69.69,0,0,1-.19-.59A6.66,6.66,0,0,0,7,54.33a6.19,6.19,0,0,1-1.38-2c-.07-.25,0-.44.12-.54a.44.44,0,0,1,.56.13,1.87,1.87,0,0,1,.39.53c0,.11.09.24.23.22s.18-.18.19-.32a2.16,2.16,0,0,1,.11-1c.1-.19.22-.37.35-.59A3,3,0,0,1,7.83,53a2.1,2.1,0,0,0,.39,1.86A11,11,0,0,1,9.74,58c0,.1,0,.32.32.19s.17.25.18.41A5.47,5.47,0,0,0,11.88,62c-.17-1.52-.38-2.91-.59-4.3a24.75,24.75,0,0,1-.2-5.16,6.56,6.56,0,0,1,1.64-3.89A5.11,5.11,0,0,0,14,46.16a1.91,1.91,0,0,0-.12-.85c-1,.55-.82,1.82-1.67,2.57a9.78,9.78,0,0,1,.28-4,2.37,2.37,0,0,1,1.58-1.53c.11,0,.22-.15.33,0s0,.25-.06.36-.25.49-.19.78c0,.09-.05.21.1.25s.18,0,.27-.1c.25-.18.28-.51.5-.7s.14-.24.28-.19a.37.37,0,0,1,.18.33,6.62,6.62,0,0,1-.9,4.32c-.74,1.26-1.73,2.37-2.35,3.7a6.85,6.85,0,0,0-.49,3.87,35.38,35.38,0,0,1,.47,3.74c.46-.12.38-.57.57-.84.23.17,0,.31,0,.43a6.63,6.63,0,0,0,.58,3.38,9.88,9.88,0,0,1,.44,1.92c0,.35-.08.73-.07,1.11a.76.76,0,0,0,.07.44c.11.18.19.41.43.35s.09-.3.11-.45c.06-.49-.15-1,.19-1.52.36.76.67,1.5,1.06,2.19a10.12,10.12,0,0,0,3.14,3.73,3.62,3.62,0,0,0,2.51.6c.21,0,.39-.06.24-.34-.06-.12-.08-.26-.13-.38-.2-.43-.52-.91-.21-1.33a2.26,2.26,0,0,1,2-1.14c.09,0,.21,0,.27.08s0,.23-.11.32-.4.38-.58.58-.35.57,0,.88.67.52,1.11.11a4,4,0,0,1,.69-.42.72.72,0,0,1,.68-.09c.89.59,1.12-.24,1.49-.68s.85-1.13,1.33-1.66c-.36,1-1.24,1.78-1.36,2.93a2.32,2.32,0,0,0,1.07-.51,3.73,3.73,0,0,0,1.76-3.23c0-.19-.09-.36-.11-.54,0-.44-.19-.61-.63-.36a.61.61,0,0,1-.78-.1.86.86,0,0,0-1.1-.09,2.58,2.58,0,0,1-1.93,0l-1.83-.41a.58.58,0,0,1,.53-.57c.59-.12,1.19-.2,1.78-.32.37-.07.85-.19.82-.6s-.54-.42-.92-.42a2.56,2.56,0,0,1-2.82-1.92c2,1.38,5,1.86,6.64.43-.18-.42-.85-.3-1-.89a9.65,9.65,0,0,0,1.92.11,1.86,1.86,0,0,0,1.66-.78c.12-.2.19-.31-.14-.36-1.75-.26-3.51-.51-5.25-.83a47.1,47.1,0,0,1-6.7-1.64,1.05,1.05,0,0,1-.8-.75c-.05-.18-.05-.34.26-.2a21.24,21.24,0,0,0,5.54,1.44c.89.13,1.79.18,2.69.24,1.22.09,2.43.06,3.64.11.43,0,.61-.16.62-.51a10.16,10.16,0,0,0-.18-3.25,1.61,1.61,0,0,0-1.21-1.21c-.28,1.26-.58,2.5-.84,3.75-.06.33-.15.31-.39.19a2,2,0,0,1-.63-.59.47.47,0,0,1,0-.69c.44-.52.36-1.25.59-1.86.39-1-.23-1.47-.9-2a25,25,0,0,0-3-1.51,5.83,5.83,0,0,1-1.21-.84,2.84,2.84,0,0,1-.84-2.5c-.22.24-.42.45-.61.67a44.36,44.36,0,0,0-4.19,5.1,4.33,4.33,0,0,0-.76,3c.45-.4.44-1,.88-1.53a8.72,8.72,0,0,1-.55,2.81c-.65,1.5-1.43,2.93-2,4.46a1.89,1.89,0,0,1-.89.94c-.19.11-.27.1-.35-.15a2.22,2.22,0,0,1,.07-1.44,8.25,8.25,0,0,1,.81-1.73A4.81,4.81,0,0,0,16,56.31a1.82,1.82,0,0,0-.17-1,3.06,3.06,0,0,1,.7-3.14,28.73,28.73,0,0,0,2.38-2.79,3.24,3.24,0,0,0,.42-1,3.73,3.73,0,0,0-1.07.63,7.07,7.07,0,0,1-1.38.61.32.32,0,0,1-.29,0c-.1-.08,0-.18.06-.26A2,2,0,0,1,18,48.3a6.3,6.3,0,0,0,2.85-2.43,22,22,0,0,1,2.44-3.18,7.14,7.14,0,0,1,1.28-.89c.15-.09.28-.1.34.05.17.56.58.37.95.33s.77-.37.93,0-.39.47-.63.66a6.89,6.89,0,0,0-1.89,1.8A2.81,2.81,0,0,0,24,47.16c.24.6.88.73,1.41.94a19.55,19.55,0,0,0,2,.65,1.77,1.77,0,0,1,1,.85,3.23,3.23,0,0,0,1.49,1.34,1.1,1.1,0,0,0,.51,0c-.42-1-1.23-1.92-1.31-3.14a5.42,5.42,0,0,1,1.24.81,2.8,2.8,0,0,0,3.82-1A6.53,6.53,0,0,0,34.79,44c0-.32-.25-.4-.53-.35-.76.14-1.15-.16-1-.93.11-.53-.12-1.09.27-1.57a5.42,5.42,0,0,0,1-3c.14-1.39,0-2.78.09-4.16a.87.87,0,0,1,0-.4c.13-.27,0-.36-.2-.47-.6-.32-.69-.61-.52-1.32a16.45,16.45,0,0,1,1.72-4.34c.08-.15,0-.35.23-.45A15.43,15.43,0,0,1,36,29.73a4.49,4.49,0,0,0,.76,2.61,10.13,10.13,0,0,1,1.87-5.11c-.05,1.73-.54,3.45-.1,5.23a2.38,2.38,0,0,0,.74-1.4c.2-.79.3-1.59.44-2.39.07-.4.23-.65.7-.58a3.22,3.22,0,0,0,.82,0c.42,0,.54.16.55.54a1.61,1.61,0,0,0,.11.92,6.26,6.26,0,0,0,.8-2.08c.17-1,0-1.17-1-1.23a1.53,1.53,0,0,0-1.36.72c-.41-1-1.29-1.06-2.12-1.23a25.49,25.49,0,0,1-3-.53c-.39-.12-.84-.24-.76-.84,0-.26.18-.29.34-.17a6.2,6.2,0,0,0,3.29.82c1.28.14,2.55.3,3.82.48.31,0,.4,0,.39-.31,0-.57,0-1.14,0-1.71,0-.27-.12-.35-.33-.42a7.26,7.26,0,0,0-3.31-.16,5.61,5.61,0,0,1-3,0,4.49,4.49,0,0,1-1.37-.93,5.37,5.37,0,0,0-3.84-1.57,2.73,2.73,0,0,1-.95-.11c-.47-.2-.55,0-.67.4a7,7,0,0,1-.57,1.08c-.17.31-.07.5.26.58a5,5,0,0,0,1.29.23,9.19,9.19,0,0,1,3.09.21c.28.1.27-.08.28-.25a1.52,1.52,0,0,1,.18-1A9.84,9.84,0,0,1,34,23.45a9.43,9.43,0,0,1-1.33,5.48c-.18.3-.41.6-.85.44-.11,0-.17,0-.17.11,0,.5-.36.78-.6,1.13-.08.1-.17.21-.1.31s.21,0,.32,0a11.38,11.38,0,0,0,1.36-.55,1.08,1.08,0,0,1-.77,1.25c-.56.22-1.16.2-1.72.38-.29.09-.46.17-.46.53,0,.91-.68,1.27-1.41,1.6-.45.2-.72.3-1-.31a14.08,14.08,0,0,0-1.94-2.7c-.4-.54-.58-1.24-1.35-1.47a5.72,5.72,0,0,0-3.25-.17,4.41,4.41,0,0,0-2.84,2.27.35.35,0,0,0-.06.34A8.18,8.18,0,0,1,20.39,31,9.68,9.68,0,0,1,24,30.9c.09,0,.18.15.26,0s0-.23-.1-.32-.23-.21-.33-.32-.2-.11-.09-.24.2-.06.3,0A4.55,4.55,0,0,1,25,31.15a3.64,3.64,0,0,1,.66,1.78.43.43,0,0,0,.36.43l.51.2c.43.17.45.47.26.82a3,3,0,0,1-.32.39.62.62,0,0,0-.09.61c.1.26.32.1.48.14a.49.49,0,0,0,.29-.08c.12,0,.29-.07.38.07s-.08.22-.16.31a5.56,5.56,0,0,1-3.19,1.76,10.12,10.12,0,0,1-2.58.22c-.16,0-.36.06-.45-.16A4.87,4.87,0,0,0,23,37.13a13.71,13.71,0,0,0-2.22,0,8.92,8.92,0,0,1-3.05,0c-.09,0-.18-.06-.19-.14s.08-.13.15-.17c.24-.16.51,0,.75-.13s.39-.08.36-.28-.25-.09-.39-.1a1.38,1.38,0,0,0-.8.11,18.37,18.37,0,0,0-3.16,1.68,7.75,7.75,0,0,0-1.37,1.69c-.45.63-.89,1.26-1.35,1.89a.76.76,0,0,1-.4.24c.7-1.42,1.07-3,2.32-4.1a8.91,8.91,0,0,1,1.69-1.1,16.26,16.26,0,0,0,2-1.2l-1.94-.65c-.13,0-.23,0-.29.18a.81.81,0,0,1-.76.51,3.88,3.88,0,0,0-2.12.7,1,1,0,0,1,.69-1c.33-.13.68-.19,1-.31a.65.65,0,0,0,.5-.42,1.69,1.69,0,0,1-1.62-.6A2.09,2.09,0,0,1,12.41,32c0-.11.08-.2.19-.22s.16.09.22.17c.32.39.18.89.29,1.32.07.25.14.37.38.45L20.68,36c.42.14.67-.21,1-.41-.32-.06-.63-.12-1-.16a3.83,3.83,0,0,1-1.55-.7.72.72,0,0,1-.18-.24c-.1-.16-.22-.38-.12-.5s.33,0,.49.07a13.58,13.58,0,0,0,4.79.95,2.11,2.11,0,0,0,.36,0c.66-.17.78-.42.67-1.33a1.84,1.84,0,0,0-.92-1.41s0,0,0,.07c.31,1.57-1,2-2.16,1.84a1.89,1.89,0,0,1-1.68-1.47c-.09-.38.05-.29.29-.27s.5.2.79.07.43-.21.4-.49-.22-.38-.5-.4a3.07,3.07,0,0,0-1.75.69,2.16,2.16,0,0,1-1.09.35c-.62,0-1,.47-1.42.81a2.48,2.48,0,0,1-3.48-.68c.72,0,1.29.73,2.1.3-.68-.41-1.61-.36-2-1.22.71-.3,1.28.09,1.84.39.82.42.81.45,1.41-.26a6.47,6.47,0,0,0,.4-.57,4.39,4.39,0,0,1-1.27.09c-.21,0-.5.12-.61-.14a.8.8,0,0,1,.08-.83,1.74,1.74,0,0,0,.34-.74c-.31-.08-.54.18-.83.22a.86.86,0,0,1-.6-.15.31.31,0,0,1-.15-.4c.07-.16.2,0,.3,0,.84,0,1-.07,1.33-.82.29-.58.63-1.15.95-1.72a1.91,1.91,0,0,0,.29-.9.24.24,0,0,1,.25-.27c.23,0,.14.18.16.29s0,0,0,.06c0,.3-.16.8.14.88s.45-.44.66-.7a3.26,3.26,0,0,1,1.27-1.06c.12-.05.24-.19.37-.06s0,.32-.09.41a12.46,12.46,0,0,1-1.09,1.09,3.43,3.43,0,0,0-1.25,1.6,3.38,3.38,0,0,0,1.43-1.07A3,3,0,0,1,20.64,26a1.44,1.44,0,0,1,.41,0,.18.18,0,0,1,.18.14s-.06.12-.12.15a7.46,7.46,0,0,0-2,2,1.66,1.66,0,0,1-1.81.66c-.17,0-.24-.08-.26.13a1.5,1.5,0,0,1-.4.85c-.1.12-.09.26-.16.37s.05.32.13.45.25,0,.35,0a7.73,7.73,0,0,0,1.71-1.17,4.39,4.39,0,0,1,3.25-1.19c-.3-.61-.84-.31-1.26-.46a2.29,2.29,0,0,1,1.46-1.28c.39-.13.73.2,1.06.4,1,.59,1.78,1.44,2.76,2.05a4.42,4.42,0,0,0,1.44.57c.36.07.64-.31.92-.54a25.08,25.08,0,0,0,2.23-2A.78.78,0,0,1,31,26.8c-.31,1.83-2,2.38-3.1,3.5a2.35,2.35,0,0,0,1.07.76.77.77,0,0,0,.86-.2A9.11,9.11,0,0,0,31.48,29a.73.73,0,0,1,.27-.28c.12.09,0,.27.19.37a26.21,26.21,0,0,0,1-3.23,5.54,5.54,0,0,0,.1-1.07c0-.93-.42-1.35-1.37-1.38-.5,0-1,0-1.5,0a7,7,0,0,1-3.32-.77,6.56,6.56,0,0,0-3-.77,8.79,8.79,0,0,0-5,1.77,16.84,16.84,0,0,1-2.37,1.58,3.54,3.54,0,0,1,.85-1.3,9.39,9.39,0,0,1,9.82-2.22.48.48,0,0,0,.64-.2,3.53,3.53,0,0,0,.39-.71c.21-.58,0-.83-.61-.9a12.52,12.52,0,0,0-2.28-.18,16,16,0,0,0-5.26.91,6.28,6.28,0,0,0-1.91,1.3,13.49,13.49,0,0,0-1.81,1.89,2.1,2.1,0,0,1-.52.51,6.93,6.93,0,0,1,1.09-2.11,14.55,14.55,0,0,1,3.05-2.76A3.4,3.4,0,0,1,22.39,19c.12,0,.23.06.35.06a33.73,33.73,0,0,1,4.15.12,23.24,23.24,0,0,1,6.67,1.11,5.91,5.91,0,0,1,1.71,1.06,4,4,0,0,0,1.83.91c.46.08.58,0,.48-.49a1.34,1.34,0,0,1,.13-.59c.06-.23.18-.35.4-.1a6.22,6.22,0,0,0,1.11.88c.33.23.54.21.76-.1l.37-.45a1.81,1.81,0,0,0,2.6.68c.47-.28.54-.63.17-1a3.76,3.76,0,0,0-2.3-1.17,13.88,13.88,0,0,0-3-.09,9.44,9.44,0,0,1-3.89-.83,35.91,35.91,0,0,0-5-1.8,14.71,14.71,0,0,0-2.73-.29,8.19,8.19,0,0,1-2.51-.3,3.06,3.06,0,0,1-1.31-.78,4.7,4.7,0,0,1,1.55.09c1.16.1,2.31.33,3.46.49a29.78,29.78,0,0,1,4.38,1,25.17,25.17,0,0,1,3.74,1.5,4,4,0,0,0,2.26.16c.7-.09,1.39-.23,2.09-.36.54-.11.92.28,1.37.44a5.6,5.6,0,0,0,3.57.19,1.86,1.86,0,0,0,1.24-2,14,14,0,0,0-2.39-5.93A16.42,16.42,0,0,0,41,8.6c-.52-.45-1-.94-1.5-1.39a21.2,21.2,0,0,0-5.2-3.67,3.07,3.07,0,0,1-.31-.17.46.46,0,0,1-.23-.29,14.47,14.47,0,0,0,1.91.41c1.51.11,2.5,1.19,3.65,1.94a36.34,36.34,0,0,1,3.57,2.74,31,31,0,0,1,3.22,3.16,28.53,28.53,0,0,1,2.62,3.48,19.12,19.12,0,0,1,1.81,3.44c.11.28.23.39.54.17s.48-.44.75-.62a.42.42,0,0,1,.27-.09c.14.05.09.22.07.32a2.54,2.54,0,0,1-.59.93,1.16,1.16,0,0,0-.31,1c.06.23.18.38.4.11s.25-.22.32-.4a.21.21,0,0,1,.33-.13c.11.08.08.25,0,.38a3.94,3.94,0,0,0-.36,1.3,1.39,1.39,0,0,0,0,.29l.28,0c.13,0,.28-.19.39,0s-.1.25-.18.36-.21.17-.24.27-.39.32-.19.57.34,0,.51-.06c.39-.12.37.16.38.42,0,.45-.26.82-.35,1.31.25-.05.43-.11.52-.3s.12-.24.26-.19.08.19.06.28c-.16.64-.21,1.35-.86,1.74s0,.69-.13,1c.17,0,.15,0,.16-.06s0-.12,0-.15c.16-.2.31-.47.61-.37s.24.44.17.66a2.66,2.66,0,0,1-1.07,1.54c-.17.12-.46.26-.4.54s.36.31.61.34.55.06.55.31-.25.35-.49.44-.72,0-1.12.12l.58,1-.09.06c-.19.08-.5-.17-.59.2s.22.4.45.5.39.13.19.34a3.41,3.41,0,0,0-.72,1.86,4.31,4.31,0,0,1-1.31,2.45.54.54,0,0,0-.15.66,1.93,1.93,0,0,1,.2.67c0,.66,0,1.24-.72,1.54-.5.2-.36.77-.39,1.14a10.22,10.22,0,0,1-1.12,4,21.17,21.17,0,0,0-1.79,4.92c0,.08-.07.15-.09.23a.91.91,0,0,1-1.16.77c-.5-.1-.69.11-.84.61a49.8,49.8,0,0,1-2.35,6.6,19,19,0,0,1-2.18,3.75,14.18,14.18,0,0,1-1.71,1.84,2.26,2.26,0,0,1-.42.23,8.34,8.34,0,0,1,.75-3.85c.48-1.21,1.11-2.37,1.51-3.62a8.21,8.21,0,0,0,.13-4,37.25,37.25,0,0,1-.76-4.69A1.72,1.72,0,0,1,39,46.44c.26.6.25,1.27.45,1.89A2.58,2.58,0,0,0,40.5,50c.64.35,1,.1,1.1-.63a7.17,7.17,0,0,0-.12-1.73,2.93,2.93,0,0,1,.44-1.9,10.14,10.14,0,0,0,1.15-2.06c0-.2.14-.39.17-.58.08-.6-.2-.9-.81-.89A5.88,5.88,0,0,1,38.52,41a7.66,7.66,0,0,1-1.29-1.72,6.81,6.81,0,0,0-.36,2.14,17.84,17.84,0,0,0,1,5.51A36.58,36.58,0,0,1,39,51.82a10.38,10.38,0,0,1-.92,5.78A15.33,15.33,0,0,0,36.91,61a1.44,1.44,0,0,0,0,.41,7.71,7.71,0,0,1-.81,3.77c-.67,1.7-1.31,3.43-2.13,5.07a16.85,16.85,0,0,1-2.13,3.42c-.82,1-1.81,1.76-2.54,2.8a5.92,5.92,0,0,0-1.05,2.81,7.93,7.93,0,0,1-1.92,4.42c-.17.18-.24.45-.54.57a13.82,13.82,0,0,1,1.06-2.84c.45-1.09.9-2.18,1.3-3.29a.47.47,0,0,0-.23-.65,3,3,0,0,1-1.47-1.8,2.31,2.31,0,0,1,0-1,5.6,5.6,0,0,0,.05-1.58,1.15,1.15,0,0,0-.46-.8,2.21,2.21,0,0,1-.8-1,5.88,5.88,0,0,0,.1,3,16.47,16.47,0,0,1,.36,3.28,4.54,4.54,0,0,1-.35,1.26c-.08.2-.33.2-.49.22a3.39,3.39,0,0,0-1.87,1,11.78,11.78,0,0,1-1.77,1.54,5.28,5.28,0,0,1-.62.33c-.35.17-.45.11-.5-.33a7.75,7.75,0,0,1,.23-3.42,3.41,3.41,0,0,1,1.11-1.56A14,14,0,0,0,20.62,81c.23,0,.32-.21.44-.34a18.06,18.06,0,0,1,2.86-2.45c.09-.07.22-.18.22-.27a20.3,20.3,0,0,0,.44-3.1A.85.85,0,0,0,23.37,74a3.24,3.24,0,0,1-2.19,0c-.58-.18-.61.17-.71.49a3.84,3.84,0,0,0-.12,1.31C20.36,76.26,20.35,76.64,20.35,77ZM39.8,32.72a1.25,1.25,0,0,0,1.41.32c.49-.23,1-.43,1.46-.69a2.2,2.2,0,0,1,2.56.7c.28.47.55.93.8,1.41.09.17.1.43.36.44.44,0,.89,0,1.33,0,0,0,.05-.11.06-.17a7.32,7.32,0,0,0,0-3.42c-.4-1.37-1.38-2-2.71-1.34-.62.33-.88.15-.89-.57s0-.75.71-.75c.23,0,.45,0,.67,0,2.42,0,3.25-1.63,3.22-3.68a2.08,2.08,0,0,0-.57,1.27,1.9,1.9,0,0,1-.68,1.29c-.23.16-.35,0-.35-.14a10.27,10.27,0,0,1,0-2,13.1,13.1,0,0,0,.26-3.3,2.23,2.23,0,0,0-.4-1.18c-.22.61-.45,1.15-.62,1.71-.49,1.62-1,3.24-.26,4.93.11.25-.16.46-.39.55s-.46.13-.58-.14a1.83,1.83,0,0,1-.18-1,11.59,11.59,0,0,0,.05-2,.31.31,0,0,0-.24-.35c-.06.19-.1.37-.15.54a33.8,33.8,0,0,1-1.2,3.69,3.7,3.7,0,0,1-2.41,2.43.23.23,0,0,0-.1.16A2,2,0,0,1,39.8,32.72Zm2.93,5.9a5.63,5.63,0,0,1-2.14-.32c-1.05-.37-1.77-1.14-1.67-2,0-.11-.06-.26.08-.32s.25,0,.35.15.32.38.64.35.44-.37.48-.69-.21-.33-.45-.34a2.42,2.42,0,0,0-1.5.53c-.28.19-.08.57-.11.86s-.19.61-.62.52c-.06,0-.17-.06-.17,0a4.5,4.5,0,0,0,0,.82c0,.26.27.11.42.15s.61-.16.83.17A3.85,3.85,0,0,0,41.51,40,2,2,0,0,0,43.91,39c.05-.14.11-.29,0-.38a.37.37,0,0,0-.34,0A2.26,2.26,0,0,1,42.73,38.62Zm2.84-.26a3.67,3.67,0,0,0-2.06-3.42,5.87,5.87,0,0,0-3.72-.76,2.6,2.6,0,0,0-2.08,1.47,5.67,5.67,0,0,1,4.55-.44A6,6,0,0,1,45.57,38.36ZM28.39,32.08c.13-.36-.14-.55-.45-.8a9.52,9.52,0,0,0-1.77-1.44,3.4,3.4,0,0,1-.93-.59,8.93,8.93,0,0,0-1.21-1c-.22-.16-.59-.33-.75,0a.59.59,0,0,0,.3.82,3.19,3.19,0,0,0,.85.3,1,1,0,0,1,.75.52,4.14,4.14,0,0,0,1.07,1.28,3.86,3.86,0,0,1,1.4,2c.11.34.21.29.41.11A1.34,1.34,0,0,0,28.39,32.08ZM41.57,38a2.56,2.56,0,0,0,2.15,0c.19-.13.16-.3.11-.49a2.56,2.56,0,0,0-1.49-1.61C42.73,37.12,42.37,37.79,41.57,38Z"/><path class="cls-2" d="M1.15,33.82a8.51,8.51,0,0,1,1-1.91A.61.61,0,0,0,2.05,31a.82.82,0,0,1-.37-.59c0-.33,0-.63.45-.65s.68-.08.59.46c0,.3.12.32.34.18,0,0,.1,0,.14-.06.91-.54,1.31-.31,1.37.76,0,.76.1,1.52.18,2.28,0,.21-.08.18-.19.2-.93.2-1.17.71-.76,1.56A5.46,5.46,0,0,1,4.59,37a.23.23,0,0,0,.26.2,3.53,3.53,0,0,0,.46,0c.8-.08,1,.25.73,1a1.66,1.66,0,0,1-1.59,1c-.31,0-.56,0-.42.45a.2.2,0,0,1-.17.27c-.2,0-.33-.11-.4-.25a.89.89,0,0,1,.71-1.29c.57-.08.57-.08.88-.51a5.52,5.52,0,0,0-1.25-.34c-.24-.07-.47-.13-.32-.52s-.43-1.12-.86-1.13c-.19,0-.2.18-.21.32a5.21,5.21,0,0,0,.15,1.36c0,.08,0,.16,0,.24,0,.25,0,.58-.24.62s-.31-.29-.38-.52a11.28,11.28,0,0,1-.22-2.9c-.21.25-.36.41-.49.59s-.1.2-.21.19-.16-.16-.19-.26a11,11,0,0,1-.54-2.2,27.45,27.45,0,0,1-.29-5.66,4.4,4.4,0,0,1,.78-2.41c.23-.28.57-.59.89-.43s.36.7.31,1.08a31.25,31.25,0,0,1-1.12,4A5.35,5.35,0,0,0,1.15,33.82Z"/><path class="cls-2" d="M12.05,6.72c0-.36-.41-.59-.2-1,.25.08.29.48.65.49,0-.31-.32-.55-.14-.89.2.26.39.54.76.49a1.12,1.12,0,0,0,.79-.67,1.11,1.11,0,0,1,1-.74,19.17,19.17,0,0,0,2.47-.67c.17,0,.38-.18.46,0s-.18.25-.32.32a17.32,17.32,0,0,0-4,2.77,10.75,10.75,0,0,0-1,1.33c-.07.1-.11.27-.23.24-.55-.15-.68.26-.86.62a1.34,1.34,0,0,1-.57.63A5.92,5.92,0,0,0,9,11.94c-.18.27.05.41.32.48.62.16.64.19.44.78a1.27,1.27,0,0,0,0,1c.12.25.2.45-.22.48-.24,0-.25.28-.32.47s-.12.63-.48.81a15.5,15.5,0,0,1,.08-1.68,2.9,2.9,0,0,0-.92-2.12A1.46,1.46,0,0,0,7.7,12c-.34-.2-.65-.38-.78.22a.92.92,0,0,1-.41.6c.18-.53.34-1,.49-1.47s.31-.37.6-.23.72.36.7-.34c0-.22.24-.33.42-.47s.5-.38.31-.75c0-.08-.07-.21.08-.25A.92.92,0,0,0,9.56,8c.26,0,.44.29.74.14l-.45-.74c.25-.1.4.09.58.16l.59.26-.44-.94c.19-.09.28,0,.38.11s.22.22.35.13.07-.24,0-.38-.22-.24-.05-.34.21.1.3.18A.4.4,0,0,0,12.05,6.72Z"/><path class="cls-2" d="M5.56,26.76C5.4,28,6,29,6.16,30.14a1,1,0,0,1-.24.78.43.43,0,0,1-.41.16c-.2,0-.09-.22-.12-.34s-.16-.49-.43-.58-.4-.34-.4-.67a4,4,0,0,0-.09-1.42c-.08-.23-.21-.44-.42-.45s-.34.27-.38.48-.1.53-.39.48S3,28.24,3,28s0-.73,0-1.09c0-.17.12-.23.27-.23a1.86,1.86,0,0,1,1.21.27C4.83,27.15,5.25,27.46,5.56,26.76Z"/><path class="cls-2" d="M1.06,23.54c.45-1,1.11-1.18,2.09-.49a4.14,4.14,0,0,1,.38.35,7.2,7.2,0,0,0,.85.72c.46.3.47-.38.82-.44a4.72,4.72,0,0,0,1-.43c.08,0,.17-.16.27-.06s0,.21,0,.32A4.54,4.54,0,0,0,5.67,25a2.66,2.66,0,0,0-.07.39c0,.67,0,.67-.66.38a3.05,3.05,0,0,1-1.87-1.86c-.16-.47-1.06-.68-1.72-.45Z"/><path class="cls-2" d="M5.21,40.88a8.63,8.63,0,0,0,0,2.91.86.86,0,0,0-1.16,0c-.33.24-.46-.16-.58-.32a11.88,11.88,0,0,1-1.43-2.31A2.72,2.72,0,0,1,1.68,40c.51.42.52,1.1.91,1.55.08.09.13.2.2.29.47.72,1.15.69,1.58-.07S4.79,41,5.21,40.88Z"/><path class="cls-3" d="M236.8,82.24a10.74,10.74,0,0,0-4.46,4.2c-.13-.19,0-.34,0-.48a7.16,7.16,0,0,1,3.4-4.38,7.25,7.25,0,0,0,1-.57,5.45,5.45,0,0,0,.77-.82c.15.35.14.39-.24,1.15a6.17,6.17,0,0,0,2.6-1.07,6.57,6.57,0,0,0,1.86-2.16,1.54,1.54,0,0,1-.33,1.07,10.08,10.08,0,0,1-4.37,3.4C236.53,82.77,237,82.32,236.8,82.24Z"/><path class="cls-3" d="M235,86.64a5.34,5.34,0,0,1,2-2.61,15.35,15.35,0,0,1,5.3-2.53c.07,0,.15-.08.21,0s0,.15,0,.22a1.2,1.2,0,0,1-.45.47c-2.33,1.42-4.66,2.83-6.91,4.38Z"/><path class="cls-3" d="M244.25,46.27a7.31,7.31,0,0,1-1.6,1.1c2-5.27,1.19-10-2.06-14.53a10.25,10.25,0,0,0,.26,2.64,12.9,12.9,0,0,0,1,3,1.51,1.51,0,0,1,.09.18c.07.18.14.42,0,.53s-.26-.12-.37-.22a13.46,13.46,0,0,1-4.47-7.55A5.57,5.57,0,0,0,236,29a5.49,5.49,0,0,1,0,1.46,4,4,0,0,1-.47,1.34c-.09.17-.21.3-.43.26s-.18-.25-.17-.41a5.28,5.28,0,0,0-.55-2.73c-.33-.64-.33-.64-1.07-.62.07.31.16.61.21.92a7,7,0,0,1-.18,3A6.81,6.81,0,0,0,235.1,39a7.83,7.83,0,0,1,2.07,7.52,2.62,2.62,0,0,1-1.09,1.67c.11-.57.24-1.06.32-1.56a7.57,7.57,0,0,0-3-7.52,5.21,5.21,0,0,1-1.92-3.65,21.89,21.89,0,0,1,.15-3.62,4.68,4.68,0,0,0-1.49-3.53s-.06,0-.1,0a.27.27,0,0,0,0,.26,20.88,20.88,0,0,1,.71,2.69.78.78,0,0,1-.12.73,8,8,0,0,0-1.45,3.46,1.54,1.54,0,0,0,.47,1.11,5.76,5.76,0,0,1,1.22,4.79.83.83,0,0,1,0,.15l-.07,0a10,10,0,0,0-2.69-3.21c-.14.12-.08.25-.07.37a20.23,20.23,0,0,0,.39,3.38c0,.11,0,.23,0,.34s0,.31-.28.17a4.35,4.35,0,0,0-2.16-.67c-.4,0-.41,0-.25.36l.28.58c-.21,0-.36-.12-.54-.09a.68.68,0,0,0-.46,1.13,5.33,5.33,0,0,1,.92,1.6,3,3,0,0,1-.15,2.69c-.26-1.56-.52-3-1.8-4l0,0a5.27,5.27,0,0,1,1.07,3.33,6.1,6.1,0,0,0,.78,2.6,2.52,2.52,0,0,1-.48,2.93l-.22.17c.07-.24.11-.41.15-.58a3,3,0,0,0-.43-2.62,5.42,5.42,0,0,1-.94-2.58A4.82,4.82,0,0,0,221.72,44a3.3,3.3,0,0,1,.19,1.28c0,.08,0,.19-.1.22s-.13-.08-.18-.14a5.67,5.67,0,0,0-.72-.79,9.8,9.8,0,0,1,.31,4.91,8.64,8.64,0,0,0-1.2-2.29,6.12,6.12,0,0,0,.6,3.5,3.6,3.6,0,0,1,.45,1.11,2.41,2.41,0,0,0,.24.73.64.64,0,0,1,0,.49,5.8,5.8,0,0,1-1,2.36,8.91,8.91,0,0,0-1.58,4.39c0,.06,0,.12,0,.19s-.12-.11-.14-.19a5.94,5.94,0,0,1,.23-3.79,6,6,0,0,0,.5-2.67,1.84,1.84,0,0,0-.55-1.17,1.86,1.86,0,0,1-.58-1.42,13,13,0,0,0-1.3-6.35.35.35,0,0,1-.06-.25c.45.06.45.06,1.56,1.68a9.59,9.59,0,0,0-.53-1.9c-.08-.22-.33-.51-.13-.66s.41.18.59.32a9.33,9.33,0,0,1,1.83,1.83c.07.1.15.19.27.34a3.89,3.89,0,0,0-1.28-2.88c.44-.09.79,0,1.7.56a3.16,3.16,0,0,0-.86-1.33,3.51,3.51,0,0,1,2.5,1.34,4.24,4.24,0,0,0-.79-1.65,3.43,3.43,0,0,1-.74-1.52.91.91,0,0,1,0-.49.34.34,0,0,1,.63-.07,2.27,2.27,0,0,0,.26.28.48.48,0,0,0,.51.09c.15-.07.06-.25.05-.38,0-1,0-2,0-2.95a1.92,1.92,0,0,1,.7-1.56c.59-.54,1.18-1.08,1.75-1.64a7.6,7.6,0,0,0,.86-.94,1,1,0,0,0-.47-1.49,2.77,2.77,0,0,0-.8-.16c-.09,0-.22,0-.27-.08s.08-.18.15-.25l.32-.28A4.06,4.06,0,0,1,223,28.92a.82.82,0,0,0-.45-.29c-.28-.1-.49-.12-.57.28a1.19,1.19,0,0,1-1.18,1,16,16,0,0,0-2.49.28,1.56,1.56,0,0,1-1.15-.26,4.22,4.22,0,0,1-1.35-1.66,6.35,6.35,0,0,1,1.58.86,1.79,1.79,0,0,0,1.44.38A12.47,12.47,0,0,0,221.3,29a1,1,0,0,0,.5-.35,3.7,3.7,0,0,1-2.69-.19,7.56,7.56,0,0,0,1.79-.22,2,2,0,0,0,.84-.37.46.46,0,0,0,.18-.45c0-.19-.24-.1-.37-.12-.45-.05-.83.22-1.27.27a3.14,3.14,0,0,1-2.26-.44,3.24,3.24,0,0,0-.6-.27c-.12-.06-.25-.15-.2-.29s.21,0,.3,0a8.17,8.17,0,0,0,3.23.07l.26-.08.11-.07a1.64,1.64,0,0,0-.48-.31c-.15-.1-.22-.08-.31.1a1.22,1.22,0,0,1-1.21.41.71.71,0,0,1-.64-.79c0-.28-.13-.31-.36-.31a6.15,6.15,0,0,0-2.46.61.76.76,0,0,1-.7.06c-.2-.11-.19.09-.23.19a2.87,2.87,0,0,0,.07,2.43,17,17,0,0,0,1.11,1.77,5.9,5.9,0,0,1,1.18,3.46,5.23,5.23,0,0,0,.79,3.3,10.58,10.58,0,0,1,1.19,3.78.41.41,0,0,1,0,.17,7,7,0,0,1-2-2.83.55.55,0,0,0-.52-.46,9.1,9.1,0,0,0-4.77.36,4.7,4.7,0,0,1-3.44.08,7.84,7.84,0,0,1-1.93-1.34c-.21-.17-.41-.36-.61-.54a.39.39,0,0,0-.62.06A6.44,6.44,0,0,0,204,38.8a1,1,0,0,0,.81,1.44,1.91,1.91,0,0,0,1.25,0,5.41,5.41,0,0,1,2.21-.36c.4,0,.46-.12.4-.44a.87.87,0,0,1,0-.23,1.24,1.24,0,0,1,.49.44.59.59,0,0,0,.65.21,7.68,7.68,0,0,1,3.6,0,3.94,3.94,0,0,1,1.7,1,20.93,20.93,0,0,0,1.75,1.52,1.48,1.48,0,0,1,.26.24c.08.1.15.25.07.36s-.21,0-.31,0a27.76,27.76,0,0,0-6.83-1.63A9.67,9.67,0,0,0,203.31,43,3.57,3.57,0,0,0,202,44.58c-.11.29,0,.37.26.35a1.74,1.74,0,0,0,1.08-.47c.26-.21.37-.17.42.16,0,.13,0,.24.17.28s.19-.09.25-.17a4.55,4.55,0,0,1,2.88-1.81,2.08,2.08,0,0,1,1,0,4.33,4.33,0,0,0,2.84-.12,3.91,3.91,0,0,1,3.79.52,2.12,2.12,0,0,1,.65,2.87,8.15,8.15,0,0,0-1.47-1.52c-.08.08,0,.13,0,.19s0,.45-.15.52-.23-.18-.34-.29a3.93,3.93,0,0,0-1-.74,3.23,3.23,0,0,1,.44,1.68,3.83,3.83,0,0,1-.47,1.67,9.53,9.53,0,0,1-.65-1.48,2.26,2.26,0,0,0-1.27-1.48.87.87,0,0,0-.74,0,1.39,1.39,0,0,1-1.3-.08.52.52,0,0,0-.71.15,15.24,15.24,0,0,0-1.16,1.59l-.09-1.1a4.91,4.91,0,0,1-1.48.88c-.26.09-.56,0-.74.31a2.28,2.28,0,0,0-.31.75,1.62,1.62,0,0,1-.3-.71c-.06-.21-.17-.26-.37-.2a1.48,1.48,0,0,0-.69.33c-.25.23-.52.15-.79.1s-.18-.26-.25-.44a5.19,5.19,0,0,1-1.4.63c-.89.19-.89.2-1-.67a8.85,8.85,0,0,1,.47-5.06.8.8,0,0,0,0-.69,10.81,10.81,0,0,1-.68-2.06,1.05,1.05,0,0,0-.39-.65,2.71,2.71,0,0,1-.89-3.51c.7-1.74,1.3-3.51,1.87-5.29.28-.9.54-1.8.82-2.7a1.15,1.15,0,0,0-.09-1,3.63,3.63,0,0,1-.45-2.28,13.87,13.87,0,0,1,1.06-4.92,12.71,12.71,0,0,0,.7-2.05c0-.13.06-.3.17-.34.37-.11.26-.36.24-.61,0-.5-.06-1-.09-1.61l-1.59,2.15c.33,0,.61-.19,1-.05-.26.41-.51.81-.75,1.21a30.48,30.48,0,0,0-2.43,5c-.37,1-.37,1,.64,1.06l.75.1-.2.11a3.88,3.88,0,0,0-2.79,3.83,3.13,3.13,0,0,1-.55,1.65,7.84,7.84,0,0,0-1,1.91,23.65,23.65,0,0,1-1,2.52,6.26,6.26,0,0,0-.2,4.35,6.29,6.29,0,0,1,.66,3.22c.21,0,.24-.13.3-.21a6.83,6.83,0,0,1,3.16-2.21.86.86,0,0,1,.23-.06.32.32,0,0,1,.34.14c.07.14-.09.19-.16.26a13,13,0,0,0-3,4.35c0,.07-.09.13,0,.25a5.13,5.13,0,0,1,2-1.1c-.32.48-.62.89-.86,1.34a6.32,6.32,0,0,0-.17,5.5,30.07,30.07,0,0,1,1.67,6,1.75,1.75,0,0,1-.62,1.75,11.18,11.18,0,0,0-3.89,7.07c0,.11,0,.23,0,.34a6.87,6.87,0,0,0,0,.79,5.09,5.09,0,0,1,2.35-3,12.3,12.3,0,0,1-.73,2.65,11.94,11.94,0,0,0-.93,3.14,3.46,3.46,0,0,0,0,.65,2.9,2.9,0,0,1,1.61-1.58c-.11.57-.22,1.1-.29,1.63a11.92,11.92,0,0,0,2.53,9.07c1,1.34,2.07,2.63,3,4.06a6.37,6.37,0,0,1,1,4.13A9.25,9.25,0,0,0,199,82.77a2.87,2.87,0,0,0,.11,1c0,.07,0,.17,0,.22s-.14,0-.2,0a16.14,16.14,0,0,1-7.43-6.15,5,5,0,0,1-.44-.9,9.56,9.56,0,0,0-.93-2.13,3.42,3.42,0,0,1-.34-2.48,11.76,11.76,0,0,1,1.07-3.66,1,1,0,0,0,0-.86,8.28,8.28,0,0,1-.08-6.32,2.19,2.19,0,0,1-.93.7,16.28,16.28,0,0,1,0-3.49,15.33,15.33,0,0,1,3-7.55,3.94,3.94,0,0,0,.82-1.74,2.4,2.4,0,0,0-.22-1.75,5,5,0,0,1-.39-3,18.17,18.17,0,0,1,.66-4,2.22,2.22,0,0,0-.1-1.5,9.79,9.79,0,0,1,.16-7.78,14.94,14.94,0,0,0,1.53-5c.05-.82.07-1.65.06-2.48a8.86,8.86,0,0,1,.7-3c.11.36.19.15.27,0A8.82,8.82,0,0,0,198,17.49a10.74,10.74,0,0,1,1.54-3.81,12.7,12.7,0,0,1,1.28-1.55,5.54,5.54,0,0,0,1.07-1.6,5.7,5.7,0,0,1,1.55-2.18,19.44,19.44,0,0,1,2.88-2.07,4.8,4.8,0,0,0,.85-.78A18,18,0,0,1,220,0a30,30,0,0,1,6.81.52,20.41,20.41,0,0,1,5.56,2.09A17.63,17.63,0,0,1,239.46,10a27.36,27.36,0,0,1,3.23,12,37.56,37.56,0,0,1-.22,5.71,9.1,9.1,0,0,0,.21,2.27,25.33,25.33,0,0,0,1.38,5.55A7.55,7.55,0,0,0,245.68,38a5.71,5.71,0,0,1,1.55,4.83,37.08,37.08,0,0,0-.12,6.58,3.63,3.63,0,0,0,1.48,2.73,12.16,12.16,0,0,1,3,3.2,10.1,10.1,0,0,1,1.15,8,3.87,3.87,0,0,1-.68,1.38,7.16,7.16,0,0,0-1.4,3.1,5.43,5.43,0,0,0,1.06,4,6,6,0,0,1,1.12,2.61,4.91,4.91,0,0,1-.59,3.09,8,8,0,0,1-.68,1.07c-.08.1-.19.22-.32.13s0-.17.06-.25.08-.15-.06-.17-.18-.19-.13-.35a5,5,0,0,0-1.2-4.91c-.07-.09-.15-.17-.24-.27-.13.33-.24.64-.37.95s-.22.31-.4,0a4,4,0,0,1-.61-3.15c0-.08,0-.17.06-.34a3.7,3.7,0,0,0-.78,2.68,5.21,5.21,0,0,1-1.32-2.87,4.94,4.94,0,0,1,.75-3c.55-1,1.12-1.89,1.58-2.88a8.47,8.47,0,0,0-.05-7.34,28.63,28.63,0,0,0-2.06-3.81c0,.68.08,1.37.13,2.06a1.39,1.39,0,0,1-.09.64c-.11.23-.22.31-.39,0a6.54,6.54,0,0,1-1-2.69c-.27.32-.18.78-.49,1.14A11.53,11.53,0,0,1,244.25,46.27ZM211.48,19.8c-.25,0-.51,0-.76,0a8.28,8.28,0,0,1-3.39-1,2.49,2.49,0,0,0-2.05-.21,13.78,13.78,0,0,0-1.81.79c-.08,0-.18.07-.2.17a3.67,3.67,0,0,1-1.07,1.71.53.53,0,0,0,.11.86,1.29,1.29,0,0,0,1.28.16,3.53,3.53,0,0,1,3.26.38,2.83,2.83,0,0,0,1.05.46,1.42,1.42,0,0,1,1.22,1.31c0,.24,0,.38-.3.33s-.57,0-.85-.07-.33,0-.38.23a.75.75,0,0,1-.75.56,2.43,2.43,0,0,1-.85-.07c-.76-.16-.89-.33-.81-1.1,0-.19-.06-.26-.2-.24a3.22,3.22,0,0,0-1,.29,1.69,1.69,0,0,1,.74.64,2,2,0,0,0,1.9,1.08s0,0,0,.06a2,2,0,0,1-2.59.29c-.32-.18-.6-.41-.91-.6-.51-.3-.77-.18-.85.4,0,.17,0,.33,0,.5a6.22,6.22,0,0,1-.78,2.93,3.34,3.34,0,0,0,.09,3.79,1.68,1.68,0,0,1,.22,1.33,6.21,6.21,0,0,0,.33,3.83c.17.39.24.4.56.08a7.5,7.5,0,0,0,1.26-1.7,6.2,6.2,0,0,1,2.18-2.31.56.56,0,0,0,.28-.39,1.61,1.61,0,0,1,.42-.83c-.07.53-.16,1-.19,1.47a2,2,0,0,0,1,2A2.1,2.1,0,0,0,210,37a4.41,4.41,0,0,1,2.79-.7,1.42,1.42,0,0,0,1.55-1.64.41.41,0,0,0-.29-.4,4,4,0,0,0-1.46-.36,1.18,1.18,0,0,1-1.09-1.69,1.22,1.22,0,0,0,.09-.6,13.24,13.24,0,0,1,.24-4,1.68,1.68,0,0,0-.19-1.33.75.75,0,0,1,.12-1,2.25,2.25,0,0,1,.49-.37c.15-.1.34-.2.28-.47-.18.05-.39.23-.49,0a.4.4,0,0,1,.3-.51,2.92,2.92,0,0,0,.6-.34,8.52,8.52,0,0,1,5.06-1.3,12,12,0,0,1,3.62.92,5.17,5.17,0,0,0,3.45.15c.21-.06.29-.15.28-.37a1.83,1.83,0,0,1,.83-1.94,6.44,6.44,0,0,1-1.88-.67,2.29,2.29,0,0,0-1.08-.28l-1.66,0a32,32,0,0,0-4.27.46c-.24,0-.49.07-.62-.27l.85-.11c.79-.12,1.55-.39,2.33-.57a9.1,9.1,0,0,1,6.74.9,3.88,3.88,0,0,0,1.53.41,2.44,2.44,0,0,0,1.72-.68,7.47,7.47,0,0,1-2.63-1.85,1.28,1.28,0,0,0-.92-.35c-1.5,0-3,0-4.49.12-1,.08-2,.19-3,.28a1.3,1.3,0,0,1-1-.24c.71,0,1.37,0,2-.11a32.82,32.82,0,0,0,3.51-.77,5.45,5.45,0,0,1,5.58,1.62,12.08,12.08,0,0,0,1.06,1c.08.07.17.19.3.15.41-.14.68.11,1,.33a2.8,2.8,0,0,0,.77.44c.13,0,.28.16.4.06s0-.26,0-.38a1.71,1.71,0,0,1,1.5-2.4l.31-.06c.7-.15.9-.5.66-1.18a10.12,10.12,0,0,1-.45-1.72c-.13-.9,0-1.1.84-1.42a.38.38,0,0,0,.26-.5,2.43,2.43,0,0,0-1.56-1.92,1.79,1.79,0,0,1-.51-.27c-.19-.18-.24-.32.08-.42a3.91,3.91,0,0,1,1.79-.2,5.25,5.25,0,0,1,2,.78.53.53,0,0,0-.08-.4,16,16,0,0,0-1.88-3.62,16.8,16.8,0,0,0-3.57-3.67,9.84,9.84,0,0,1-2.13-1.66.6.6,0,0,0-.24-.12,23.44,23.44,0,0,0-4.14-.95,24.91,24.91,0,0,0-9.18.58,17.25,17.25,0,0,0-8.22,4.23,1.23,1.23,0,0,0-.35.53,5.09,5.09,0,0,1-.93,1.71,9,9,0,0,0-1.55,2.62c0,.07-.1.21,0,.22.43,0,.17.27.14.43a3.33,3.33,0,0,1-.16.51c-.35,1-.75,1.88-1,2.84-.37,1.29.41,2.09,1.73,1.86a5.17,5.17,0,0,1,2.41,0,17.68,17.68,0,0,0,3.66.78,19.12,19.12,0,0,0,2.51,0,7.08,7.08,0,0,1-2.64.54A10.44,10.44,0,0,1,208,17a4.33,4.33,0,0,0-2.71,0c-.79.24-1.24,1-1.93,1.35a.62.62,0,0,0-.1.16.3.3,0,0,0,0,.33c.09.12.19,0,.28,0a11.15,11.15,0,0,0,1.8-.59,1.18,1.18,0,0,1,.56-.08,18.66,18.66,0,0,1,2.78.52A11.19,11.19,0,0,1,211.48,19.8Z"/><path class="cls-3" d="M209.59,58.85a12.63,12.63,0,0,1,0,2c0,.79-.08,1.57-.14,2.36a7.19,7.19,0,0,0,1.06,4.54,18.82,18.82,0,0,0-.42-2.86,3.65,3.65,0,0,1,1.29,1.37,5.85,5.85,0,0,1,.32,5,8.64,8.64,0,0,0-.57,4.55,4.58,4.58,0,0,0,.27,1.09,13.77,13.77,0,0,1,1.21,4c.12-.28.19-.46.28-.65a2.38,2.38,0,0,1,.76-.91c.88-.64,1.5-.5,2,.45a5.48,5.48,0,0,1,.53,1.63,4.49,4.49,0,0,0,.92-3.34,1.19,1.19,0,0,1,.56.57,3.78,3.78,0,0,1,.29,2.56.86.86,0,0,1-.4.59,5,5,0,0,0-1.93,3,17.4,17.4,0,0,0-.4,2.29,1.77,1.77,0,0,1-.19.74c-.07.12-.12.29-.29.27a.37.37,0,0,1-.31-.31c0-.07,0-.14-.07-.29-.14.31-.27.54-.36.8s-.16.2-.33.09a1.77,1.77,0,0,1-.65-2.37c.19-.46.52-.83.74-1.27a3.57,3.57,0,0,0,.3-2.7,10,10,0,0,1-4.35,5.7L210,87a21,21,0,0,0,1-4.38,6,6,0,0,0-.41-2.92,6.23,6.23,0,0,1-.44-1.76c-.28.36-.24.78-.41,1.18a6.09,6.09,0,0,1-.74-1.46,7,7,0,0,1-.23-4.29,10.33,10.33,0,0,1,.68-2,1.31,1.31,0,0,0-.06-1.23,12.13,12.13,0,0,1-1.32-6.74A10.19,10.19,0,0,1,209.59,58.85Z"/><path class="cls-3" d="M227,85.68a4.45,4.45,0,0,1,.34-3.5A4.9,4.9,0,0,0,226.18,84a6.34,6.34,0,0,0-.48,2.14,8.71,8.71,0,0,0,.21,2.23,4.27,4.27,0,0,1-1.86-4A3.89,3.89,0,0,1,225,82,9,9,0,0,0,226.33,80a.73.73,0,0,0,0-.56,10.19,10.19,0,0,1,.55-8,9.25,9.25,0,0,0,.79-5c0-.52-.1-1-.11-1.55a7.42,7.42,0,0,1,.68,2.14,10.71,10.71,0,0,1-.57,5.82,9.57,9.57,0,0,0-.37,6.07,4.1,4.1,0,0,1,.34,1.65c0,.17.08.17.19.12l.81-.38c.12-.06.12-.19.15-.3a24.6,24.6,0,0,0,.71-4.44,3.42,3.42,0,0,1,.95-2.28,4.88,4.88,0,0,0,1.23-4.93,13.94,13.94,0,0,0-2.63-5.43,6.91,6.91,0,0,1-1.34-6.4,9,9,0,0,1,.93-1.86,12.66,12.66,0,0,0,1.23-3.27,18.94,18.94,0,0,0,.34-2.71,14.55,14.55,0,0,1,.13,3.61,15.74,15.74,0,0,1-1,4.23,6.11,6.11,0,0,0,.36,5.1c1.08,2.12,2.15,4.25,3.23,6.38a4.68,4.68,0,0,1,0,4.32c-.5,1.06-1.15,2-1.66,3.1a17.78,17.78,0,0,0-.79,2.26c-.22.66-.41,1.33-.6,2a.88.88,0,0,1-.17.35,11.93,11.93,0,0,0-2.42,4.62C227.22,84.87,227.12,85.23,227,85.68Z"/><path class="cls-3" d="M236.45,78.42a14.77,14.77,0,0,1,2.54-.75c-.85.43-1.69.87-2.55,1.29s-1.84.86-2.77,1.29A7.58,7.58,0,0,0,230.14,84c-.26.52-.49,1-.77,1.66a5.78,5.78,0,0,1,.1-1.92,7,7,0,0,1,4.72-5.6,2.21,2.21,0,0,0,1.06-.8,9.49,9.49,0,0,0,1-10.62c-1-2.17-2.18-4.3-3.15-6.51a9.14,9.14,0,0,1,.34-8.21,5.53,5.53,0,0,0,.81-3.14,5.13,5.13,0,0,0-2.39-4,.34.34,0,0,1-.12-.12,6.76,6.76,0,0,1,2.87,2,2.7,2.7,0,0,1,.52,2.23,13.92,13.92,0,0,1-1.78,4.84,4.82,4.82,0,0,0-.37,4.41,24.51,24.51,0,0,0,1.87,3.64c1,1.85,2,3.71,2.9,5.6.15.31.26.64.44,1.07-.07-.79-.46-1.48.05-2.19a7,7,0,0,1,.71,1.92,6.7,6.7,0,0,1-.27,3.81,1.33,1.33,0,0,0-.11.56,8,8,0,0,1-1.68,5.12C236.76,77.94,236.64,78.14,236.45,78.42Z"/><path class="cls-3" d="M202.8,77.5V76.23c0-.25.09-.31.29-.16a4.29,4.29,0,0,1,1.64,2.24c0,.07,0,.15.07.22l.18.41a11.12,11.12,0,0,0,.06-1.59.15.15,0,0,1,.2.09,17,17,0,0,1,2.54,6.18,5.59,5.59,0,0,1-1,4.26,1.1,1.1,0,0,1-.15.14,19,19,0,0,0-2.88-8.7,4.26,4.26,0,0,0,.63,2.23,1.14,1.14,0,0,1-.89-.22,3.58,3.58,0,0,1-1-1.09A22.42,22.42,0,0,1,199,72.72a13.65,13.65,0,0,1-.33-3.88c0-.29,0-.61.45-.64.16,0,.14-.19.17-.31l1-3.71c0-.1,0-.31.19-.26s.14.2.11.35a16.3,16.3,0,0,0,1.1,10.61c.39.86.69,1.75,1,2.62Z"/><path class="cls-3" d="M240.57,57c-.84.46-1.23.33-1.34-.56a36,36,0,0,1-.52-6.47,6.8,6.8,0,0,1,.23-1.49,10.94,10.94,0,0,0,.11-5.51,15.51,15.51,0,0,0-2.14-5.44,9.2,9.2,0,0,0-1-1.17c0-.08.1-.06.14,0a9.78,9.78,0,0,1,4.37,5.47,11.5,11.5,0,0,1,.12,5.47q-.39,2.1-.72,4.2a3.84,3.84,0,0,0,.3,2.29c.24-1.14.13-2.35,1.2-3.23-.05.7-.1,1.29-.12,1.88a20.6,20.6,0,0,0,1.28,7.77,3.87,3.87,0,0,1,0,2.84.82.82,0,0,1-.25.41A27.39,27.39,0,0,0,240.57,57Z"/><path class="cls-3" d="M242.33,81a10.41,10.41,0,0,0-.22-8.16l-.1.23a4.79,4.79,0,0,1,.09-3.13c.35-1,.79-2,1.16-3,.52-1.4,1-2.8,1.53-4.21a6.39,6.39,0,0,0-.84-5.86,10.6,10.6,0,0,0-.87-1.13,1.15,1.15,0,0,1-.28-1,6.25,6.25,0,0,1,1.14.95A7.34,7.34,0,0,1,246,60.56a10.39,10.39,0,0,1-1.62,6.38,6.37,6.37,0,0,0-1,4.94,1.36,1.36,0,0,0,.28.53A7,7,0,0,1,245,77.05a5.17,5.17,0,0,1-.65,2.44A3.62,3.62,0,0,1,242.33,81Z"/><path class="cls-3" d="M203.62,63.49A12.8,12.8,0,0,0,202,65.42c-.62-1.75,1.66-7.61,3.24-8.32a5.56,5.56,0,0,1-.55,1.7c-.39.85-1,1.6-1.31,2.5a7.11,7.11,0,0,0-.4,1.38,4.41,4.41,0,0,1,2.37-1.5,14.49,14.49,0,0,0-1.14,5.66,11.1,11.1,0,0,0,1.28,5.51l.11,0c0-.61.07-1.22.11-1.83,0-.24,0-.58.26-.62s.2.32.26.5a24.59,24.59,0,0,1,1.08,6.42,1.08,1.08,0,0,1-.5,1.12,17.37,17.37,0,0,0-1.18-3.36,16.79,16.79,0,0,0-2-3.33,5.09,5.09,0,0,1-1-4.24A18.69,18.69,0,0,1,203.62,63.49Z"/><path class="cls-3" d="M215.7,51.07a7.51,7.51,0,0,1,.8,2.63,10.19,10.19,0,0,1-.58,4.41c-.18.56-.35,1.13-.54,1.69a.84.84,0,0,0,0,.71c.78,1.59,1.47,3.23,2.14,4.88a2.32,2.32,0,0,1,.14,1.14,5,5,0,0,0,1.5,4.33,2.94,2.94,0,0,1,.9,1.75,5.27,5.27,0,0,1-.8,3.77c-.07.1-.12.26-.29.19s0-.23,0-.33a4.6,4.6,0,0,0-.6-4.17,11.75,11.75,0,0,0-1.31-1.67,3.71,3.71,0,0,1-1-3.68,4.18,4.18,0,0,0-.77-3.83,6.58,6.58,0,0,1-1.32-3,2.94,2.94,0,0,1,.27-1.7,9.65,9.65,0,0,1,1.59-2.55c.12-.14.23-.27.07-.46a.32.32,0,0,1,0-.22A13.39,13.39,0,0,0,215.7,51.07Z"/><path class="cls-3" d="M236.75,51.45c-.23.88-.46,1.75-.6,2.64a7.06,7.06,0,0,0,2.23,6.27A20.39,20.39,0,0,1,240,61.94a4.65,4.65,0,0,1,1,3.32c-.08,1.26-.18,2.52-.27,3.78a15.6,15.6,0,0,0,.76,6,3.55,3.55,0,0,1-1.86,4.27c.12-.24.22-.41.31-.59a7.7,7.7,0,0,0,.92-2.85,3.23,3.23,0,0,0-.3-1.84,7.79,7.79,0,0,1-.7-4.93,7.9,7.9,0,0,0-1-5.4c-.7-1.18-1.35-2.38-2.12-3.51a8,8,0,0,1-1.21-6.82A5.46,5.46,0,0,1,236.75,51.45Z"/><path class="cls-3" d="M225.08,67.3a4.51,4.51,0,0,1-.82,2.7,2.67,2.67,0,0,0-.4,1.19,23.79,23.79,0,0,0,.26,6.36,2.22,2.22,0,0,1-.21,1.39,14.38,14.38,0,0,1-3.12,4.25,2.85,2.85,0,0,0-.8,3.33,5.83,5.83,0,0,0,1.3,2.11,3.29,3.29,0,0,1-2.14-3,6.74,6.74,0,0,1,3-6.61,1.84,1.84,0,0,0,.92-1.91,22.69,22.69,0,0,0-.6-3.47,4.08,4.08,0,0,1,.4-3.24,15,15,0,0,1,1.24-1.92C224.44,68.08,224.77,67.69,225.08,67.3Z"/><path class="cls-3" d="M224.14,51.76a1.76,1.76,0,0,1-.41,1.58c-.34.49-.69,1-1,1.48a5.57,5.57,0,0,0-.34,5.31,9.71,9.71,0,0,0,2.5,3.06,5.64,5.64,0,0,1,2,3.13,5.43,5.43,0,0,1-.46,3.32.76.76,0,0,1-.72.51c0-.18.11-.29.17-.43a4.4,4.4,0,0,0-1.22-5.87,10.32,10.32,0,0,1-2.38-2.21,10,10,0,0,0-.22,2,14.88,14.88,0,0,0,.57,4.55c.07.23.25.58-.06.68s-.3-.31-.39-.5a18.56,18.56,0,0,1-1.76-8.1,10.67,10.67,0,0,1,2.31-6.63c.38-.48.67-1,1.05-1.48C223.9,52,224,51.83,224.14,51.76Z"/><path class="cls-3" d="M247,78.79a8.73,8.73,0,0,0,0-2.55,3,3,0,0,0-.72-1.55c-.28-.32-.53-.67-.81-1a4.33,4.33,0,0,1-1.09-2.78,9.07,9.07,0,0,1,2-6.18c.21-.26.46-.49.69-.73a2.26,2.26,0,0,1,.25-.19,2.11,2.11,0,0,1-.28,1.18,9.5,9.5,0,0,1-.75,1.12,4.52,4.52,0,0,0,.36,6,6.13,6.13,0,0,1,1.62,4.46A2.51,2.51,0,0,1,247,78.79Z"/><path class="cls-3" d="M207.21,63.27a5.41,5.41,0,0,1-1-3.62,8.54,8.54,0,0,1,.46-2.19,4.61,4.61,0,0,0,.16-.64.83.83,0,0,0-.22-.83,1.79,1.79,0,0,1,0-2.58,4.79,4.79,0,0,0,.38-5.94c-.06-.1-.23-.22-.07-.33s.19.1.25.18a5.47,5.47,0,0,1,1.2,4.78,5.82,5.82,0,0,1-1,2.2c-.13.18-.1.28.06.41a2.22,2.22,0,0,1,.74,2.47.94.94,0,0,1-.07.22,9.91,9.91,0,0,0-.75,4.07Z"/><path class="cls-3" d="M198.67,61a3.4,3.4,0,0,1,.81-1.41,5.74,5.74,0,0,0,1.63-2.89,5.55,5.55,0,0,0,0-1.35,11.32,11.32,0,0,1,1.48-6.58,1,1,0,0,1,.36-.46c0,.73,0,1.42,0,2.11a24.29,24.29,0,0,1-.36,5.39A7.67,7.67,0,0,1,198.67,61Z"/><path class="cls-3" d="M210.81,61.57a3.79,3.79,0,0,1-.26-2.49c.2-1,.44-1.94.67-2.9a.73.73,0,0,1,.59-.64c.06.21-.08.39,0,.64a5.59,5.59,0,0,0,.26-1.21,11.16,11.16,0,0,0-.38-5c-.18-.59-.62-1.07-.78-1.68a6.59,6.59,0,0,0-.75-1.59c.21.39.67.44.92.8a12.38,12.38,0,0,1,2.34,7.16,5.05,5.05,0,0,1-1,3.05,8.51,8.51,0,0,0-1.57,3.62A1.59,1.59,0,0,1,210.81,61.57Z"/><path class="cls-3" d="M250.56,75.43a4.72,4.72,0,0,1,.06,2.39c-.13.64-.47,1.22-.63,1.85a1,1,0,0,1-.43.54c-.63.45-1.21,1-1.8,1.49a5.57,5.57,0,0,1-2.4,1.37,8.82,8.82,0,0,0-3.68,1.87,4.75,4.75,0,0,1-3,1c0-.16.2-.19.31-.25a23.51,23.51,0,0,0,3.87-2.77,4.41,4.41,0,0,1,2.31-1.07,7.09,7.09,0,0,0,3.39-1.38,5,5,0,0,0,1.91-4.13A2.64,2.64,0,0,1,250.56,75.43Z"/><path class="cls-3" d="M198.22,26.47c-.75,1.77-1.78,3.4-2.58,5.23a7.39,7.39,0,0,1,2.36-.6,12.68,12.68,0,0,0-3.22,6.74c-.45-.93-.07-2.88,1-4.93l-1.33,1A10.92,10.92,0,0,1,198.22,26.47Z"/><path class="cls-3" d="M208.13,27.13c-.18,1.28-.77,1.66-1.71,1.75a2.12,2.12,0,0,1-2.26-.92,2.25,2.25,0,0,0-1.13-.77c-.13-.05-.32-.07-.25-.27s.21-.09.33-.07a3.52,3.52,0,0,1,1.85.91,1.57,1.57,0,0,0,1.49.41A2.53,2.53,0,0,0,208.13,27.13Z"/><path class="cls-4" d="M619,43.36a.73.73,0,0,1,.6-.68c2.69-.54,2.95-2.19,2.19-4.47a3.85,3.85,0,0,1,.17-3.14,7.26,7.26,0,0,0,.29-2.87c.11-3.61-.6-4.56-4.09-5.23-1-.19-1.17-.37-.83-1.32.43-1.21-.17-2.26-.81-3.27-1.72-2.7-1.48-4.56.85-6.64a3.18,3.18,0,0,0,.69-.68c1.6-2.82,4.29-4,7.2-4.89,1.84-.57,3.6-1.47,5.46-1.91,5.8-1.36,10.54.87,14.71,4.69a29.72,29.72,0,0,0,4.72,3.72,9,9,0,0,1,1.89,1.66c2.65,2.9,1.63,6.22-2.22,7.17A8.77,8.77,0,0,0,646.5,27a1.36,1.36,0,0,1-1.43.32c-.58-.29-.38-.92-.34-1.4.34-5-1.4-7.08-6.44-7.53-1.87-.17-3.75-.26-5.63-.29-2.86,0-8.64,3.68-8.3,6.11.43,3-1.42,6.59,1.6,9.21a6.32,6.32,0,0,1,1.43,2.5c.86,2,2.87,2.4,4.48.88.37-.35.81-.93,1.2-.92,1.86.08,2.55-1.73,4-2.32.5-.21.69-.31.68,0-.06,1.48,1.13,1.13,1.88,1.33a3.46,3.46,0,0,1,2.33,1.22c.73,1.07,1.83.91,2.51-.28a13.31,13.31,0,0,0,.9-3.48c0,3.31,1.65,6.31,1.61,9.66a24.89,24.89,0,0,1-.85,7.63,8.68,8.68,0,0,1-10.47,5.94,19.54,19.54,0,0,0,4,2.85c.59.39,1.25.68,1.83,1.09,1.19.84,2.1,1.93,1.36,3.43s-2.28,1.51-3.72,1c-1.2-.4-2.36-.93-3.73-1.32.77.94,1.37,1.68-.12,2.4-.75.36-.25.94.25,1.36,3,2.57,3.54,8.9,1,12a2.88,2.88,0,0,1-1.42,1,16.58,16.58,0,0,1-5.93.83,4.41,4.41,0,0,1-4.34-4.37,14.56,14.56,0,0,1,.56-4.41c.3-1.26.58-2.53.85-3.79.13-.58.24-1.29-.42-1.53-.84-.31-1.06.48-1.34,1a18.34,18.34,0,0,0-2.15,7.58c-.15,4-1.92,5.15-5.43,3.43-4.84-2.38-10.3-3.68-14.15-7.87a69.85,69.85,0,0,1-4.65-5.22c-2.44-3.28-2-6.28,1.48-8.39,4.85-3,9.76-5.86,14.67-8.75a6.11,6.11,0,0,0,2.6-2.51,4.05,4.05,0,0,1,1.9-1.87c-1.38,1.9-1.33,4-.77,6.12a57,57,0,0,1,1.86,7.12c.47,3.79,3.18,5.32,6,6.86a.93.93,0,0,0,1.23-.19c.41-.45.14-.85-.23-1.16-.68-.59-1.44-1.11-2.06-1.75s-1.07-1.78,0-2.49c2.16-1.42,4.39-2.74,7.15-2.62a3,3,0,0,0,2-.31c-1-1.21-2.54-1.57-3.53-2.56s-1.92-2.27-2.9-3.39c-1.56-1.79-2.43-4-4.14-5.81-1.41-1.46-1.61-.41-2.11.37a2.93,2.93,0,0,0,0,2.8c.21.51.7,1,.61,1.82-1.22-1.5-2.13-2.82-1.93-4.7C620.2,42.35,619.36,43.48,619,43.36Z"/><path class="cls-4" d="M647.85,46a3.53,3.53,0,0,1,2.29,1.76c1.74,4.09,4.61,7.46,7,11.13,5.72,8.78.3,20.71-9.95,21.87a10,10,0,0,1-2.12,0c-3.49-.36-4.49-1.67-3.68-5A8.17,8.17,0,0,0,641,70c-1.08-2.31-.78-2.89,1.47-4A1.74,1.74,0,0,0,643.52,65c.33-1.19.86-1.68,2.23-1.23.94.31,1.21-.68,1.4-1.47a36,36,0,0,0,.78-15.18A9.75,9.75,0,0,1,647.85,46Z"/><path class="cls-4" d="M635.16,27c-.82-.65-1.34-1.7-2.32-.05-.56.92-2-.84-2.89.21.89-1.32,2.23-1.55,3.68-1.52C634.51,25.69,635.22,25.93,635.16,27Z"/><path class="cls-4" d="M633.88,24a22.69,22.69,0,0,0-4.32.75C631.09,22.58,632.5,23.42,633.88,24Z"/><path class="cls-4" d="M628.48,53a6.1,6.1,0,0,1-3.83-2.17A7.79,7.79,0,0,1,628.48,53Z"/><path class="cls-5" d="M496,34.19l3.65-10.55h1.85l-4.75,12.8h-1.49l-4.74-12.8h1.84Z"/><path class="cls-5" d="M503,24.4a1,1,0,0,1,.24-.66.88.88,0,0,1,.71-.28.92.92,0,0,1,.73.28,1,1,0,0,1,.24.66.92.92,0,0,1-.24.66,1,1,0,0,1-.73.27.91.91,0,0,1-.71-.27A.92.92,0,0,1,503,24.4Zm1.75,12h-1.62V26.93h1.62Z"/><path class="cls-5" d="M508.88,26.93l.06,1.19a3.46,3.46,0,0,1,2.84-1.37q3,0,3.05,3.4v6.29H513.2v-6.3a2.21,2.21,0,0,0-.47-1.52,1.89,1.89,0,0,0-1.44-.49,2.36,2.36,0,0,0-1.39.42,2.89,2.89,0,0,0-.93,1.11v6.78h-1.62V26.93Z"/><path class="cls-5" d="M521.09,35.28a2.34,2.34,0,0,0,1.52-.52,1.8,1.8,0,0,0,.72-1.32h1.54a3,3,0,0,1-.56,1.55,3.64,3.64,0,0,1-1.39,1.18,3.86,3.86,0,0,1-1.83.44,3.92,3.92,0,0,1-3.09-1.3,5.16,5.16,0,0,1-1.14-3.54V31.5a5.71,5.71,0,0,1,.51-2.47,3.87,3.87,0,0,1,1.46-1.68,4.13,4.13,0,0,1,2.25-.6,3.8,3.8,0,0,1,2.66,1,3.43,3.43,0,0,1,1.13,2.49h-1.54a2.2,2.2,0,0,0-.7-1.52,2.13,2.13,0,0,0-1.55-.59,2.27,2.27,0,0,0-1.92.89,4.2,4.2,0,0,0-.68,2.58v.31a4.12,4.12,0,0,0,.68,2.53A2.27,2.27,0,0,0,521.09,35.28Z"/><path class="cls-5" d="M530.65,36.61a4.15,4.15,0,0,1-3.15-1.27,4.72,4.72,0,0,1-1.21-3.4v-.29a5.7,5.7,0,0,1,.54-2.53,4.21,4.21,0,0,1,1.51-1.74,3.8,3.8,0,0,1,2.1-.63A3.59,3.59,0,0,1,533.33,28a5.33,5.33,0,0,1,1,3.5v.68h-6.44a3.45,3.45,0,0,0,.82,2.27,2.59,2.59,0,0,0,2,.86,2.77,2.77,0,0,0,1.46-.35,3.56,3.56,0,0,0,1-.93l1,.77A4,4,0,0,1,530.65,36.61Zm-.21-8.52a2.17,2.17,0,0,0-1.65.71,3.49,3.49,0,0,0-.82,2h4.76v-.12a3.09,3.09,0,0,0-.67-1.92A2,2,0,0,0,530.44,28.09Z"/><path class="cls-5" d="M537.77,26.93l.06,1.19a3.46,3.46,0,0,1,2.84-1.37q3,0,3.05,3.4v6.29h-1.63v-6.3a2.21,2.21,0,0,0-.47-1.52,1.89,1.89,0,0,0-1.44-.49,2.36,2.36,0,0,0-1.39.42,2.8,2.8,0,0,0-.93,1.11v6.78h-1.62V26.93Z"/><path class="cls-5" d="M548.37,24.62v2.31h1.78v1.25h-1.78v5.91a1.32,1.32,0,0,0,.24.86,1,1,0,0,0,.81.28,3.84,3.84,0,0,0,.77-.1v1.31a5,5,0,0,1-1.25.17A2,2,0,0,1,547.3,36a2.82,2.82,0,0,1-.55-1.87v-5.9H545V26.93h1.73V24.62Z"/><path class="cls-5" d="M496,55.79l3.65-10.55h1.85L496.77,58h-1.49l-4.74-12.8h1.84Z"/><path class="cls-5" d="M508.85,58a3.69,3.69,0,0,1-.23-1,3.62,3.62,0,0,1-2.71,1.18,3.35,3.35,0,0,1-2.3-.79,2.59,2.59,0,0,1-.9-2,2.7,2.7,0,0,1,1.12-2.31,5.34,5.34,0,0,1,3.18-.82h1.58v-.75a1.79,1.79,0,0,0-.51-1.35,2,2,0,0,0-1.5-.51,2.39,2.39,0,0,0-1.46.44,1.3,1.3,0,0,0-.59,1.06H502.9a2.27,2.27,0,0,1,.5-1.37,3.43,3.43,0,0,1,1.38-1,4.55,4.55,0,0,1,1.9-.39,3.74,3.74,0,0,1,2.57.82,3,3,0,0,1,1,2.27v4.37a5.44,5.44,0,0,0,.33,2.09V58Zm-2.7-1.24a2.91,2.91,0,0,0,1.45-.4,2.33,2.33,0,0,0,1-1V53.42h-1.27c-2,0-3,.58-3,1.75a1.49,1.49,0,0,0,.51,1.2A2,2,0,0,0,506.15,56.8Z"/><path class="cls-5" d="M514.31,48.53l.05,1.19a3.49,3.49,0,0,1,2.85-1.37q3,0,3,3.4V58h-1.63v-6.3a2.16,2.16,0,0,0-.47-1.52,1.86,1.86,0,0,0-1.43-.49,2.33,2.33,0,0,0-1.39.42,2.91,2.91,0,0,0-.94,1.11V58h-1.62V48.53Z"/><path class="cls-5" d="M536.86,56.36A3.89,3.89,0,0,1,535,57.75a7.26,7.26,0,0,1-2.71.46,5.21,5.21,0,0,1-2.77-.73,4.9,4.9,0,0,1-1.88-2.09,7.22,7.22,0,0,1-.68-3.14V51.14a6.74,6.74,0,0,1,1.35-4.49,4.7,4.7,0,0,1,3.79-1.59,4.83,4.83,0,0,1,3.23,1,4.46,4.46,0,0,1,1.49,2.9h-1.69a2.78,2.78,0,0,0-3-2.55,3,3,0,0,0-2.57,1.2,5.77,5.77,0,0,0-.89,3.45v1a5.44,5.44,0,0,0,1,3.43,3.18,3.18,0,0,0,2.66,1.27,5.88,5.88,0,0,0,1.66-.21,2.57,2.57,0,0,0,1.18-.71V53h-3V51.66h4.64Z"/><path class="cls-5" d="M539,53.19a5.54,5.54,0,0,1,.55-2.51A4,4,0,0,1,541.07,49a4.08,4.08,0,0,1,2.23-.61,4,4,0,0,1,3.14,1.34,5.18,5.18,0,0,1,1.2,3.58v.12a5.61,5.61,0,0,1-.53,2.49,4,4,0,0,1-1.52,1.72,4.19,4.19,0,0,1-2.27.61,4,4,0,0,1-3.13-1.34,5.17,5.17,0,0,1-1.2-3.56Zm1.63.2a4.08,4.08,0,0,0,.74,2.54,2.49,2.49,0,0,0,3.93,0,4.47,4.47,0,0,0,.73-2.72,4.09,4.09,0,0,0-.74-2.53,2.37,2.37,0,0,0-2-1,2.35,2.35,0,0,0-1.94,1A4.46,4.46,0,0,0,540.62,53.39Z"/><path class="cls-5" d="M549.3,53.2a5.64,5.64,0,0,1,1-3.54,3.32,3.32,0,0,1,2.73-1.31,3.26,3.26,0,0,1,2.71,1.23l.08-1h1.49v9.28a3.84,3.84,0,0,1-1.1,2.91,4,4,0,0,1-2.93,1.06,5,5,0,0,1-2-.44,3.49,3.49,0,0,1-1.5-1.2l.84-1a3.19,3.19,0,0,0,2.56,1.29,2.47,2.47,0,0,0,1.85-.67,2.55,2.55,0,0,0,.66-1.88v-.81A3.32,3.32,0,0,1,553,58.21a3.26,3.26,0,0,1-2.7-1.34A5.88,5.88,0,0,1,549.3,53.2Zm1.63.19a4.24,4.24,0,0,0,.66,2.52,2.12,2.12,0,0,0,1.85.92,2.36,2.36,0,0,0,2.25-1.4V51.09a2.39,2.39,0,0,0-2.24-1.36,2.16,2.16,0,0,0-1.85.92A4.64,4.64,0,0,0,550.93,53.39Z"/><path class="cls-5" d="M561.41,49.68a3.44,3.44,0,0,1,2.81-1.33q3,0,3,3.4V58h-1.62v-6.3a2.21,2.21,0,0,0-.48-1.52,1.85,1.85,0,0,0-1.43-.49,2.36,2.36,0,0,0-1.39.42,2.8,2.8,0,0,0-.93,1.11V58h-1.63V44.54h1.63Z"/><path class="cls-5" d="M692.43,32.38a4.73,4.73,0,0,1-1.5,3.13,4.93,4.93,0,0,1-3.35,1.1A4.54,4.54,0,0,1,683.94,35a6.57,6.57,0,0,1-1.36-4.35V29.4a7.2,7.2,0,0,1,.64-3.13,4.66,4.66,0,0,1,1.8-2.08,5,5,0,0,1,2.71-.73A4.62,4.62,0,0,1,691,24.6a4.75,4.75,0,0,1,1.43,3.15h-1.7a3.64,3.64,0,0,0-1-2.22,2.87,2.87,0,0,0-2-.69,3,3,0,0,0-2.54,1.2,5.5,5.5,0,0,0-.92,3.4v1.24a5.66,5.66,0,0,0,.87,3.32,2.83,2.83,0,0,0,2.44,1.23,3.22,3.22,0,0,0,2.16-.64,3.49,3.49,0,0,0,1-2.21Z"/><path class="cls-5" d="M696.25,36.44h-1.63V22.94h1.63Z"/><path class="cls-5" d="M704.72,36.44a3.34,3.34,0,0,1-.23-1,3.62,3.62,0,0,1-2.71,1.18,3.37,3.37,0,0,1-2.31-.79,2.59,2.59,0,0,1-.9-2,2.7,2.7,0,0,1,1.13-2.31,5.34,5.34,0,0,1,3.18-.82h1.58v-.75a1.83,1.83,0,0,0-.51-1.36,2.07,2.07,0,0,0-1.5-.5,2.39,2.39,0,0,0-1.46.44,1.3,1.3,0,0,0-.59,1.06h-1.63a2.27,2.27,0,0,1,.5-1.37,3.47,3.47,0,0,1,1.37-1.05,4.63,4.63,0,0,1,1.91-.39,3.74,3.74,0,0,1,2.57.82,3,3,0,0,1,1,2.27v4.37a5.44,5.44,0,0,0,.33,2.09v.14ZM702,35.2a2.91,2.91,0,0,0,1.45-.4,2.33,2.33,0,0,0,1-1v-2h-1.27c-2,0-3,.58-3,1.75a1.49,1.49,0,0,0,.51,1.2A2,2,0,0,0,702,35.2Z"/><path class="cls-5" d="M714.51,35.5a3.46,3.46,0,0,1-2.79,1.11,2.94,2.94,0,0,1-2.31-.88,3.85,3.85,0,0,1-.81-2.62V26.93h1.63v6.14c0,1.44.58,2.16,1.76,2.16a2.44,2.44,0,0,0,2.48-1.39V26.93h1.62v9.51h-1.55Z"/><path class="cls-5" d="M718.17,31.6a5.58,5.58,0,0,1,1-3.52,3.53,3.53,0,0,1,5.36-.19V22.94h1.63v13.5H724.7l-.08-1a3.34,3.34,0,0,1-2.72,1.19,3.24,3.24,0,0,1-2.69-1.35,5.59,5.59,0,0,1-1-3.53Zm1.62.19a4.2,4.2,0,0,0,.67,2.53,2.14,2.14,0,0,0,1.84.91,2.36,2.36,0,0,0,2.26-1.39V29.48a2.38,2.38,0,0,0-2.24-1.35,2.18,2.18,0,0,0-1.86.92A4.64,4.64,0,0,0,719.79,31.79Z"/><path class="cls-5" d="M732.66,36.61a4.15,4.15,0,0,1-3.15-1.27,4.72,4.72,0,0,1-1.21-3.4v-.29a5.7,5.7,0,0,1,.54-2.53,4.21,4.21,0,0,1,1.51-1.74,3.81,3.81,0,0,1,2.11-.63A3.58,3.58,0,0,1,735.34,28a5.33,5.33,0,0,1,1,3.5v.68h-6.44a3.35,3.35,0,0,0,.82,2.27,2.56,2.56,0,0,0,2,.86,2.8,2.8,0,0,0,1.46-.35,3.65,3.65,0,0,0,1-.93l1,.77A4,4,0,0,1,732.66,36.61Zm-.2-8.52a2.17,2.17,0,0,0-1.66.71,3.49,3.49,0,0,0-.82,2h4.76v-.12a3.09,3.09,0,0,0-.67-1.92A2,2,0,0,0,732.46,28.09Z"/><path class="cls-5" d="M685.2,45.24l4.18,10.44,4.18-10.44h2.19V58h-1.68v-5l.15-5.38L690,58h-1.29L684.54,47.7l.17,5.35v5H683V45.24Z"/><path class="cls-5" d="M698.05,53.19a5.54,5.54,0,0,1,.55-2.51A4,4,0,0,1,700.13,49a4.08,4.08,0,0,1,2.23-.61,4,4,0,0,1,3.14,1.34,5.18,5.18,0,0,1,1.2,3.58v.12a5.61,5.61,0,0,1-.53,2.49,4,4,0,0,1-1.52,1.72,4.19,4.19,0,0,1-2.27.61,4,4,0,0,1-3.13-1.34,5.17,5.17,0,0,1-1.2-3.56Zm1.63.2a4.08,4.08,0,0,0,.74,2.54,2.49,2.49,0,0,0,3.93,0,4.4,4.4,0,0,0,.73-2.72,4.09,4.09,0,0,0-.74-2.53,2.37,2.37,0,0,0-2-1,2.35,2.35,0,0,0-1.94,1A4.46,4.46,0,0,0,699.68,53.39Z"/><path class="cls-5" d="M710.28,48.53l.05,1.19a3.49,3.49,0,0,1,2.85-1.37c2,0,3,1.13,3,3.4V58H714.6v-6.3a2.26,2.26,0,0,0-.47-1.52,1.89,1.89,0,0,0-1.44-.49,2.36,2.36,0,0,0-1.39.42,2.8,2.8,0,0,0-.93,1.11V58h-1.63V48.53Z"/><path class="cls-5" d="M722.62,58.21a4.15,4.15,0,0,1-3.15-1.27,4.74,4.74,0,0,1-1.21-3.4v-.29a5.7,5.7,0,0,1,.54-2.53A4.28,4.28,0,0,1,720.31,49a3.81,3.81,0,0,1,2.11-.63,3.56,3.56,0,0,1,2.88,1.22,5.28,5.28,0,0,1,1,3.5v.68h-6.44a3.35,3.35,0,0,0,.82,2.27,2.56,2.56,0,0,0,2,.86,2.8,2.8,0,0,0,1.46-.35,3.4,3.4,0,0,0,1-.93l1,.77A4,4,0,0,1,722.62,58.21Zm-.2-8.52a2.17,2.17,0,0,0-1.65.71,3.5,3.5,0,0,0-.83,2h4.76v-.12a3.08,3.08,0,0,0-.66-1.92A2,2,0,0,0,722.42,49.69Z"/><path class="cls-5" d="M730.42,46.22v2.31h1.77v1.25h-1.77v5.91a1.4,1.4,0,0,0,.23.86,1,1,0,0,0,.81.28,3.92,3.92,0,0,0,.78-.1V58a5.07,5.07,0,0,1-1.25.17,2,2,0,0,1-1.65-.66,2.87,2.87,0,0,1-.55-1.87v-5.9h-1.73V48.53h1.73V46.22Z"/><path class="cls-5" d="M80.66,31.43v5H79V23.64h4.72A4.8,4.8,0,0,1,87,24.71a3.65,3.65,0,0,1,1.19,2.84A3.58,3.58,0,0,1,87,30.42a5,5,0,0,1-3.33,1Zm0-1.38h3a3.06,3.06,0,0,0,2.08-.64,2.35,2.35,0,0,0,.72-1.85,2.42,2.42,0,0,0-.72-1.83,2.84,2.84,0,0,0-2-.71H80.66Z"/><path class="cls-5" d="M96,36.44a3.34,3.34,0,0,1-.23-1A3.62,3.62,0,0,1,93,36.61a3.36,3.36,0,0,1-2.31-.79,2.59,2.59,0,0,1-.9-2,2.7,2.7,0,0,1,1.13-2.31,5.3,5.3,0,0,1,3.18-.82h1.58v-.75a1.83,1.83,0,0,0-.51-1.36,2.07,2.07,0,0,0-1.5-.5,2.39,2.39,0,0,0-1.46.44,1.3,1.3,0,0,0-.59,1.06H90a2.21,2.21,0,0,1,.5-1.37,3.47,3.47,0,0,1,1.37-1.05,4.59,4.59,0,0,1,1.91-.39,3.74,3.74,0,0,1,2.57.82,3,3,0,0,1,1,2.27v4.37a5.44,5.44,0,0,0,.33,2.09v.14Zm-2.7-1.24a2.91,2.91,0,0,0,1.45-.4,2.33,2.33,0,0,0,1-1v-2H94.42c-2,0-3,.58-3,1.75a1.49,1.49,0,0,0,.51,1.2A2,2,0,0,0,93.25,35.2Z"/><path class="cls-5" d="M107.92,31.79a5.64,5.64,0,0,1-1,3.5,3.18,3.18,0,0,1-2.68,1.32,3.31,3.31,0,0,1-2.79-1.27l-.08,1.1H99.87V22.94h1.62v5a3.31,3.31,0,0,1,2.72-1.22,3.24,3.24,0,0,1,2.72,1.31,5.82,5.82,0,0,1,1,3.59Zm-1.63-.19a4.34,4.34,0,0,0-.64-2.56,2.11,2.11,0,0,0-1.85-.91,2.39,2.39,0,0,0-2.31,1.49v4.12a2.47,2.47,0,0,0,2.33,1.49,2.11,2.11,0,0,0,1.82-.9A4.74,4.74,0,0,0,106.29,31.6Z"/><path class="cls-5" d="M111.73,36.44h-1.62V22.94h1.62Z"/><path class="cls-5" d="M113.9,31.59a5.68,5.68,0,0,1,.55-2.51,4.06,4.06,0,0,1,3.77-2.33,4,4,0,0,1,3.14,1.35,5.14,5.14,0,0,1,1.2,3.57v.12a5.75,5.75,0,0,1-.53,2.49A4.1,4.1,0,0,1,120.51,36a4.22,4.22,0,0,1-2.27.61,4,4,0,0,1-3.14-1.34,5.17,5.17,0,0,1-1.2-3.56Zm1.64.2a4.07,4.07,0,0,0,.73,2.54,2.34,2.34,0,0,0,2,1,2.31,2.31,0,0,0,2-1,4.4,4.4,0,0,0,.73-2.72,4,4,0,0,0-.74-2.53,2.47,2.47,0,0,0-3.91,0A4.39,4.39,0,0,0,115.54,31.79Z"/><path class="cls-5" d="M80.66,53v5H79V45.24h4.72A4.8,4.8,0,0,1,87,46.31a3.65,3.65,0,0,1,1.19,2.84A3.58,3.58,0,0,1,87,52a5,5,0,0,1-3.33,1Zm0-1.38h3A3.06,3.06,0,0,0,85.77,51a2.35,2.35,0,0,0,.72-1.85,2.42,2.42,0,0,0-.72-1.83,2.84,2.84,0,0,0-2-.71H80.66Z"/><path class="cls-5" d="M90.08,46a.92.92,0,0,1,.25-.66,1.05,1.05,0,0,1,1.43,0A.92.92,0,0,1,92,46a.89.89,0,0,1-.25.66,1.08,1.08,0,0,1-1.43,0A.89.89,0,0,1,90.08,46Zm1.76,12H90.22V48.53h1.62Z"/><path class="cls-5" d="M98.26,56.88a2.36,2.36,0,0,0,1.52-.52A1.87,1.87,0,0,0,100.5,55H102a2.92,2.92,0,0,1-.57,1.55,3.54,3.54,0,0,1-1.38,1.18,4,4,0,0,1-1.83.44,3.91,3.91,0,0,1-3.09-1.29A5.16,5.16,0,0,1,94,53.37V53.1a5.71,5.71,0,0,1,.51-2.47A3.93,3.93,0,0,1,96,49a4.17,4.17,0,0,1,2.26-.6,3.81,3.81,0,0,1,2.66,1A3.47,3.47,0,0,1,102,51.8H100.5a2.26,2.26,0,0,0-.7-1.52,2.16,2.16,0,0,0-1.55-.59,2.25,2.25,0,0,0-1.92.89,4.13,4.13,0,0,0-.68,2.58v.31A4.14,4.14,0,0,0,96.32,56,2.31,2.31,0,0,0,98.26,56.88Z"/><path class="cls-5" d="M109.74,58a3.34,3.34,0,0,1-.23-1,3.62,3.62,0,0,1-2.71,1.18,3.36,3.36,0,0,1-2.31-.79,2.59,2.59,0,0,1-.9-2,2.7,2.7,0,0,1,1.13-2.31,5.3,5.3,0,0,1,3.18-.82h1.58v-.75a1.79,1.79,0,0,0-.51-1.35,2,2,0,0,0-1.5-.51,2.39,2.39,0,0,0-1.46.44,1.3,1.3,0,0,0-.59,1.06h-1.63a2.21,2.21,0,0,1,.5-1.37,3.47,3.47,0,0,1,1.37-1,4.59,4.59,0,0,1,1.91-.39,3.74,3.74,0,0,1,2.57.82,3,3,0,0,1,1,2.27v4.37a5.44,5.44,0,0,0,.33,2.09V58ZM107,56.8a2.91,2.91,0,0,0,1.45-.4,2.33,2.33,0,0,0,1-1V53.42h-1.27c-2,0-3,.58-3,1.75a1.49,1.49,0,0,0,.51,1.2A2,2,0,0,0,107,56.8Z"/><path class="cls-5" d="M119.19,55.51a1.18,1.18,0,0,0-.49-1,4.93,4.93,0,0,0-1.73-.63,8.06,8.06,0,0,1-2-.63,2.79,2.79,0,0,1-1.08-.88,2.12,2.12,0,0,1-.34-1.21,2.49,2.49,0,0,1,1-2,3.88,3.88,0,0,1,2.53-.81,3.94,3.94,0,0,1,2.62.84,2.61,2.61,0,0,1,1,2.13H119.1a1.47,1.47,0,0,0-.57-1.15,2.13,2.13,0,0,0-1.43-.48,2.23,2.23,0,0,0-1.39.38,1.24,1.24,0,0,0-.5,1,1,1,0,0,0,.47.89,5.65,5.65,0,0,0,1.68.57,8.71,8.71,0,0,1,2,.65,2.83,2.83,0,0,1,1.12.91,2.21,2.21,0,0,1,.37,1.3,2.42,2.42,0,0,1-1,2,4.23,4.23,0,0,1-2.65.77,4.79,4.79,0,0,1-2-.4,3.33,3.33,0,0,1-1.37-1.13,2.76,2.76,0,0,1-.5-1.57h1.63a1.69,1.69,0,0,0,.65,1.3,2.55,2.55,0,0,0,1.61.47,2.65,2.65,0,0,0,1.49-.37A1.14,1.14,0,0,0,119.19,55.51Z"/><path class="cls-5" d="M128.47,55.51a1.18,1.18,0,0,0-.49-1,4.93,4.93,0,0,0-1.73-.63,8.06,8.06,0,0,1-2-.63,2.87,2.87,0,0,1-1.08-.88,2.12,2.12,0,0,1-.34-1.21,2.47,2.47,0,0,1,1-2,3.83,3.83,0,0,1,2.52-.81,4,4,0,0,1,2.63.84,2.62,2.62,0,0,1,1,2.13h-1.63a1.47,1.47,0,0,0-.57-1.15,2.13,2.13,0,0,0-1.43-.48,2.23,2.23,0,0,0-1.39.38,1.24,1.24,0,0,0-.5,1A1,1,0,0,0,125,52a5.65,5.65,0,0,0,1.68.57,8.71,8.71,0,0,1,2,.65,2.94,2.94,0,0,1,1.13.91,2.28,2.28,0,0,1,.36,1.3,2.42,2.42,0,0,1-1,2,4.22,4.22,0,0,1-2.64.77,4.81,4.81,0,0,1-2-.4A3.33,3.33,0,0,1,123,56.68a2.76,2.76,0,0,1-.5-1.57h1.63a1.72,1.72,0,0,0,.65,1.3,2.56,2.56,0,0,0,1.62.47,2.64,2.64,0,0,0,1.48-.37A1.14,1.14,0,0,0,128.47,55.51Z"/><path class="cls-5" d="M131.79,53.19a5.54,5.54,0,0,1,.55-2.51A4,4,0,0,1,133.87,49a4.1,4.1,0,0,1,2.23-.61,4,4,0,0,1,3.15,1.34,5.18,5.18,0,0,1,1.2,3.58v.12a5.62,5.62,0,0,1-.54,2.49,4,4,0,0,1-1.52,1.72,4.19,4.19,0,0,1-2.27.61A4,4,0,0,1,133,56.87a5.17,5.17,0,0,1-1.2-3.56Zm1.63.2a4.08,4.08,0,0,0,.74,2.54,2.36,2.36,0,0,0,2,1,2.33,2.33,0,0,0,2-1,4.4,4.4,0,0,0,.73-2.72,4.09,4.09,0,0,0-.74-2.53,2.37,2.37,0,0,0-2-1,2.35,2.35,0,0,0-1.94,1A4.46,4.46,0,0,0,133.42,53.39Z"/><path class="cls-5" d="M278.06,35.06h6.07v1.38h-7.76V23.64h1.69Z"/><path class="cls-5" d="M289.74,36.61a4.14,4.14,0,0,1-3.14-1.27,4.72,4.72,0,0,1-1.21-3.4v-.29a5.7,5.7,0,0,1,.54-2.53,4.21,4.21,0,0,1,1.51-1.74,3.77,3.77,0,0,1,2.1-.63A3.59,3.59,0,0,1,292.43,28a5.33,5.33,0,0,1,1,3.5v.68H287a3.4,3.4,0,0,0,.82,2.27,2.58,2.58,0,0,0,2,.86,2.77,2.77,0,0,0,1.46-.35,3.56,3.56,0,0,0,1-.93l1,.77A4,4,0,0,1,289.74,36.61Zm-.2-8.52a2.17,2.17,0,0,0-1.65.71,3.5,3.5,0,0,0-.83,2h4.77v-.12a3.09,3.09,0,0,0-.67-1.92A2,2,0,0,0,289.54,28.09Z"/><path class="cls-5" d="M294.9,31.59a5.68,5.68,0,0,1,.55-2.51,4.06,4.06,0,0,1,3.77-2.33,4,4,0,0,1,3.14,1.35,5.14,5.14,0,0,1,1.2,3.57v.12a5.75,5.75,0,0,1-.53,2.49A4.1,4.1,0,0,1,301.51,36a4.22,4.22,0,0,1-2.27.61,4,4,0,0,1-3.14-1.34,5.17,5.17,0,0,1-1.2-3.56Zm1.64.2a4.07,4.07,0,0,0,.73,2.54,2.5,2.5,0,0,0,3.94,0,4.47,4.47,0,0,0,.72-2.72,4,4,0,0,0-.74-2.53,2.47,2.47,0,0,0-3.91,0A4.39,4.39,0,0,0,296.54,31.79Z"/><path class="cls-5" d="M307.14,26.93l.05,1.19A3.49,3.49,0,0,1,310,26.75q3,0,3,3.4v6.29h-1.63v-6.3a2.16,2.16,0,0,0-.47-1.52,1.85,1.85,0,0,0-1.43-.49,2.36,2.36,0,0,0-1.39.42,2.8,2.8,0,0,0-.93,1.11v6.78H305.6V26.93Z"/><path class="cls-5" d="M321.4,36.44a3.69,3.69,0,0,1-.23-1,3.59,3.59,0,0,1-2.7,1.18,3.36,3.36,0,0,1-2.31-.79,2.59,2.59,0,0,1-.9-2,2.7,2.7,0,0,1,1.13-2.31,5.3,5.3,0,0,1,3.18-.82h1.58v-.75a1.83,1.83,0,0,0-.51-1.36,2.07,2.07,0,0,0-1.5-.5,2.37,2.37,0,0,0-1.46.44,1.28,1.28,0,0,0-.59,1.06h-1.64a2.22,2.22,0,0,1,.51-1.37,3.33,3.33,0,0,1,1.37-1.05,4.58,4.58,0,0,1,1.9-.39,3.75,3.75,0,0,1,2.58.82,3,3,0,0,1,1,2.27v4.37a5.42,5.42,0,0,0,.34,2.09v.14Zm-2.7-1.24a2.88,2.88,0,0,0,1.45-.4,2.41,2.41,0,0,0,1-1v-2h-1.28c-2,0-3,.58-3,1.75a1.49,1.49,0,0,0,.5,1.2A2,2,0,0,0,318.7,35.2Z"/><path class="cls-5" d="M329.92,28.39a4,4,0,0,0-.8-.07A2.14,2.14,0,0,0,327,29.69v6.75h-1.63V26.93h1.58l0,1.09a2.55,2.55,0,0,1,2.27-1.27,1.7,1.7,0,0,1,.72.12Z"/><path class="cls-5" d="M331,31.6a5.58,5.58,0,0,1,1-3.52,3.54,3.54,0,0,1,5.37-.19V22.94H339v13.5h-1.49l-.08-1a3.34,3.34,0,0,1-2.72,1.19,3.24,3.24,0,0,1-2.69-1.35,5.59,5.59,0,0,1-1-3.53Zm1.62.19a4.27,4.27,0,0,0,.67,2.53,2.16,2.16,0,0,0,1.85.91,2.37,2.37,0,0,0,2.26-1.39V29.48a2.4,2.4,0,0,0-2.24-1.35,2.19,2.19,0,0,0-1.87.92A4.71,4.71,0,0,0,332.64,31.79Z"/><path class="cls-5" d="M341.13,31.59a5.68,5.68,0,0,1,.55-2.51,4.06,4.06,0,0,1,3.77-2.33,4,4,0,0,1,3.14,1.35,5.14,5.14,0,0,1,1.2,3.57v.12a5.75,5.75,0,0,1-.53,2.49A4,4,0,0,1,347.74,36a4.22,4.22,0,0,1-2.27.61,4,4,0,0,1-3.14-1.34,5.17,5.17,0,0,1-1.2-3.56Zm1.64.2a4.07,4.07,0,0,0,.73,2.54,2.5,2.5,0,0,0,3.94,0,4.47,4.47,0,0,0,.73-2.72,4,4,0,0,0-.75-2.53,2.47,2.47,0,0,0-3.91,0A4.39,4.39,0,0,0,342.77,31.79Z"/><path class="cls-5" d="M276.37,58V45.24H280a5.72,5.72,0,0,1,2.95.74,4.9,4.9,0,0,1,2,2.1,6.72,6.72,0,0,1,.71,3.13V52a6.84,6.84,0,0,1-.7,3.18,5,5,0,0,1-2,2.09,6.37,6.37,0,0,1-3,.75Zm1.68-11.42v10h1.78a3.88,3.88,0,0,0,3-1.22A5,5,0,0,0,284,52v-.74a5.08,5.08,0,0,0-1-3.39A3.63,3.63,0,0,0,280,46.62Z"/><path class="cls-5" d="M293.79,58a3.34,3.34,0,0,1-.23-1,3.62,3.62,0,0,1-2.71,1.18,3.37,3.37,0,0,1-2.31-.79,2.59,2.59,0,0,1-.9-2,2.7,2.7,0,0,1,1.13-2.31,5.34,5.34,0,0,1,3.18-.82h1.58v-.75a1.79,1.79,0,0,0-.51-1.35,2,2,0,0,0-1.5-.51,2.39,2.39,0,0,0-1.46.44,1.3,1.3,0,0,0-.59,1.06h-1.63a2.27,2.27,0,0,1,.5-1.37,3.47,3.47,0,0,1,1.37-1,4.63,4.63,0,0,1,1.91-.39,3.74,3.74,0,0,1,2.57.82,3,3,0,0,1,1,2.27v4.37a5.44,5.44,0,0,0,.33,2.09V58Zm-2.7-1.24a2.91,2.91,0,0,0,1.45-.4,2.33,2.33,0,0,0,1-1V53.42h-1.27c-2,0-3,.58-3,1.75a1.49,1.49,0,0,0,.51,1.2A2,2,0,0,0,291.09,56.8Z"/><path class="cls-5" d="M306.65,55.79l3.66-10.55h1.85L307.41,58h-1.49l-4.74-12.8H303Z"/><path class="cls-5" d="M313.62,46a.92.92,0,0,1,.25-.66,1.05,1.05,0,0,1,1.43,0,.92.92,0,0,1,.25.66.89.89,0,0,1-.25.66,1.08,1.08,0,0,1-1.43,0A.89.89,0,0,1,313.62,46Zm1.76,12h-1.62V48.53h1.62Z"/><path class="cls-5" d="M319.52,48.53l.05,1.19a3.49,3.49,0,0,1,2.85-1.37c2,0,3,1.13,3,3.4V58h-1.62v-6.3a2.26,2.26,0,0,0-.47-1.52,1.89,1.89,0,0,0-1.44-.49,2.36,2.36,0,0,0-1.39.42,2.8,2.8,0,0,0-.93,1.11V58H318V48.53Z"/><path class="cls-5" d="M331.73,56.88a2.34,2.34,0,0,0,1.52-.52A1.87,1.87,0,0,0,334,55h1.54a3,3,0,0,1-.56,1.55,3.64,3.64,0,0,1-1.39,1.18,4,4,0,0,1-1.83.44,3.93,3.93,0,0,1-3.09-1.29,5.21,5.21,0,0,1-1.15-3.55V53.1a5.71,5.71,0,0,1,.51-2.47A3.89,3.89,0,0,1,329.47,49a4.11,4.11,0,0,1,2.25-.6,3.81,3.81,0,0,1,2.66,1,3.43,3.43,0,0,1,1.13,2.49H334a2.26,2.26,0,0,0-.7-1.52,2.14,2.14,0,0,0-1.55-.59,2.25,2.25,0,0,0-1.92.89,4.2,4.2,0,0,0-.68,2.58v.31A4.07,4.07,0,0,0,329.8,56,2.27,2.27,0,0,0,331.73,56.88Z"/><path class="cls-5" d="M337.35,46a1,1,0,0,1,.24-.66,1.05,1.05,0,0,1,1.43,0,.92.92,0,0,1,.25.66.89.89,0,0,1-.25.66,1.08,1.08,0,0,1-1.43,0A.92.92,0,0,1,337.35,46Zm1.75,12h-1.62V48.53h1.62Z"/></g></g></svg>