<svg xmlns="http://www.w3.org/2000/svg" viewBox="0 0 1315.35 730.33"><defs><style>.a,.b,.c,.d,.e,.g{fill:none;}.a{stroke:#2196f3;}.a,.c,.d{stroke-miterlimit:10;}.a,.b,.c,.d{stroke-width:3px;}.b{stroke:#f44436;}.b,.e,.g{stroke-linejoin:round;}.c{stroke:#ffca27;}.d{stroke:#44a047;}.e{stroke:#c6c6c6;}.e,.g{stroke-width:1.07px;}.f,.s{font-size:18px;}.f{fill:#727271;}.f,.n,.s{font-family:Roboto-Regular, Roboto;}.g{stroke:#333;}.h,.i{font-size:21px;}.h,.i,.l,.m,.n,.s{fill:#4d4d4d;}.h,.k,.l{font-family:Caveat-Regular, Caveat;}.i{font-family:Caveat-Bold, Caveat;}.j{font-weight:700;}.l{font-size:20px;}.n{font-size:14px;}.o{fill:#efbb26;}.p{fill:#2196f3;}.q{fill:#f44436;}.r{fill:#44a047;}</style></defs><title>search_interest</title><polyline class="a" points="247.42 413.54 251.22 402.07 255.02 470.88 258.81 476.61 262.61 430.74 266.41 413.54 270.21 419.27 274.01 419.27 277.81 425.01 281.61 419.27 285.41 413.54 289.2 413.54 293 413.54 296.8 419.27 300.6 430.74 304.4 419.27 308.2 425.01 312 407.8 315.79 430.74 319.59 407.8 323.39 402.07 327.19 407.8 330.99 425.01 334.79 430.74 338.59 425.01 342.38 453.68 346.18 465.14 349.98 396.34 353.78 470.88 357.58 482.34 361.38 476.61 365.18 482.34 368.98 470.88 372.77 465.14 376.57 482.34 380.37 453.68 384.17 465.14 387.97 459.41 391.77 447.94 395.57 430.74 399.36 425.01 403.16 425.01 406.96 407.8 410.76 425.01 414.56 407.8 418.36 413.54 422.16 396.34 425.96 419.27 429.75 413.54 433.55 413.54 437.35 447.94 441.15 384.87 444.95 373.4 448.75 396.34 452.55 442.21 456.34 436.47 460.14 390.6 463.94 379.14 467.74 384.87 471.54 402.07 475.34 390.6 479.14 396.34 482.94 419.27 486.73 396.34 490.53 402.07 494.33 407.8 498.13 413.54 501.93 407.8 505.73 430.74 509.53 419.27 513.32 396.34 517.12 419.27 520.92 402.07 524.72 402.07 528.52 218.59 532.32 379.14 536.12 430.74 539.91 447.94 543.71 459.41 547.51 476.61 551.31 488.08 555.11 470.88 558.91 470.88 562.72 482.34 566.51 447.94 570.3 476.61 574.1 476.61 577.9 465.14 581.71 465.14 585.5 442.21 589.3 425.01 593.11 430.74 596.89 407.8 600.69 413.54 604.5 402.07 608.29 402.07 612.1 407.8 615.9 402.07 619.7 396.34 623.5 402.07 627.28 390.6 631.09 384.87 634.89 442.21 638.69 413.54 642.49 407.8 646.29 425.01 650.09 447.94 653.88 459.41 657.68 436.47 661.48 425.01 665.28 430.74 669.08 407.8 672.88 413.54 676.68 402.07 680.48 390.6 684.27 407.8 688.07 413.54 691.87 413.54 695.67 419.27 699.47 419.27 703.27 430.74 707.07 419.27 710.86 407.8 714.66 407.8 718.46 407.8 722.26 407.8 726.06 407.8 729.86 425.01 733.66 436.47 737.45 453.68 741.25 470.88 745.05 482.34 748.85 482.34 752.65 488.08 756.45 482.34 760.25 465.14 764.05 482.34 767.84 488.08 771.64 482.34 775.44 493.81 779.24 482.34 783.04 470.88 786.84 459.41 790.64 447.94 794.43 436.47 798.23 425.01 802.03 379.14 805.83 436.47 809.63 436.47 813.43 425.01 817.23 413.54 821.03 430.74 824.82 447.94 828.62 413.54 832.42 459.41 836.22 430.74 840.02 413.54 843.82 425.01 847.62 470.88 851.41 482.34 855.21 459.41 859.01 447.94 862.81 425.01 866.61 430.74 870.41 430.74 874.21 413.54 878.01 430.74 881.8 430.74 885.6 413.54 889.4 396.34 893.2 419.27 897 419.27 900.8 413.54 904.6 425.01 908.39 436.47 912.19 413.54 915.99 402.07 919.79 419.27 923.59 419.27 927.39 430.74 931.2 442.21 934.98 453.68 938.78 470.88 942.58 476.61 946.38 476.61 950.18 482.34 953.99 476.61 957.78 470.88 961.59 482.34 965.37 482.34 969.17 453.68 972.98 470.88 976.77 482.34 980.58 465.14 984.38 465.14 988.18 459.41 991.96 453.68 995.76 442.21 999.57 436.47 1003.37 442.21 1007.17 442.21 1010.97 425.01 1014.77 402.07 1018.57 430.74 1022.36 425.01 1026.16 419.27 1029.96 465.14 1033.76 430.74 1037.56 425.01 1041.36 436.47 1045.16 453.68 1048.95 465.14 1052.75 459.41 1056.55 442.21 1060.35 436.47 1064.15 425.01 1067.95 425.01 1071.75 419.27 1075.55 407.8 1079.34 361.93 1083.14 425.01 1086.94 413.54 1090.74 430.74 1094.54 419.27 1098.34 407.8 1102.14 390.6 1105.93 356.2 1109.73 310.33 1113.53 126.85 1117.33 230.06 1121.13 270.19 1124.93 287.39 1128.73 339 1132.53 350.47 1136.32 373.4 1140.12 373.4 1143.92 361.93 1147.72 430.74 1151.52 447.94 1155.32 447.94 1159.12 453.68 1162.91 453.68 1166.71 470.88 1170.51 470.88 1174.31 459.41 1178.11 447.94 1181.91 436.47 1185.71 436.47 1189.5 442.21 1193.3 430.74 1197.1 425.01 1200.9 430.74 1204.7 430.74 1208.5 430.74 1212.3 419.27 1216.1 436.47 1219.89 442.21 1223.69 442.21 1227.49 465.14 1231.29 430.74 1235.09 442.21"/><polyline class="b" points="247.42 390.6 251.22 407.8 255.02 453.68 258.81 419.27 262.61 413.54 266.41 396.34 270.21 425.01 274.01 402.07 277.81 396.34 281.61 407.8 285.41 413.54 289.2 373.4 293 390.6 296.8 396.34 300.6 356.2 304.4 356.2 308.2 361.93 312 339 315.79 367.67 319.59 356.2 323.39 333.26 327.19 344.73 330.99 350.47 334.79 367.67 338.59 396.34 342.38 379.14 346.18 425.01 349.98 465.14 353.78 453.68 357.58 470.88 361.38 430.74 365.18 453.68 368.98 470.88 372.77 476.61 376.57 482.34 380.37 465.14 384.17 447.94 387.97 442.21 391.77 425.01 395.57 425.01 399.36 413.54 403.16 407.8 406.96 413.54 410.76 407.8 414.56 419.27 418.36 425.01 422.16 407.8 425.96 390.6 429.75 396.34 433.55 402.07 437.35 442.21 441.15 367.67 444.95 327.53 448.75 367.67 452.55 419.27 456.34 419.27 460.14 356.2 463.94 356.2 467.74 367.67 471.54 367.67 475.34 379.14 479.14 379.14 482.94 396.34 486.73 379.14 490.53 379.14 494.33 384.87 498.13 390.6 501.93 384.87 505.73 413.54 509.53 407.8 513.32 373.4 517.12 396.34 520.92 396.34 524.72 367.67 528.52 361.93 532.32 384.87 536.12 407.8 539.91 425.01 543.71 447.94 547.51 465.14 551.31 476.61 555.11 488.08 558.91 488.08 562.72 470.88 566.51 482.34 570.3 482.34 574.1 482.34 577.9 482.34 581.71 465.14 585.5 447.94 589.3 430.74 593.11 419.27 596.89 407.8 600.69 402.07 604.5 402.07 608.29 413.54 612.1 419.27 615.9 402.07 619.7 379.14 623.5 396.34 627.28 390.6 631.09 379.14 634.89 447.94 638.69 390.6 642.49 384.87 646.29 384.87 650.09 413.54 653.88 407.8 657.68 384.87 661.48 384.87 665.28 402.07 669.08 396.34 672.88 396.34 676.68 407.8 680.48 402.07 684.27 402.07 688.07 384.87 691.87 402.07 695.67 407.8 699.47 425.01 703.27 413.54 707.07 413.54 710.86 379.14 714.66 407.8 718.46 407.8 722.26 407.8 726.06 396.34 729.86 402.07 733.66 430.74 737.45 459.41 741.25 453.68 745.05 482.34 748.85 470.88 752.65 488.08 756.45 488.08 760.25 493.81 764.05 493.81 767.84 488.08 771.64 482.34 775.44 476.61 779.24 482.34 783.04 453.68 786.84 447.94 790.64 442.21 794.43 442.21 798.23 419.27 802.03 436.47 805.83 425.01 809.63 430.74 813.43 425.01 817.23 396.34 821.03 407.8 824.82 442.21 828.62 425.01 832.42 470.88 836.22 425.01 840.02 413.54 843.82 402.07 847.62 465.14 851.41 476.61 855.21 436.47 859.01 425.01 862.81 425.01 866.61 407.8 870.41 396.34 874.21 413.54 878.01 419.27 881.8 436.47 885.6 413.54 889.4 413.54 893.2 436.47 897 419.27 900.8 436.47 904.6 413.54 908.39 430.74 912.19 413.54 915.99 419.27 919.79 413.54 923.59 402.07 927.39 425.01 931.2 430.74 934.98 459.41 938.78 465.14 942.58 482.34 946.38 493.81 950.18 488.08 953.99 493.81 957.78 476.61 961.59 493.81 965.37 488.08 969.17 493.81 972.98 488.08 976.77 470.88 980.58 470.88 984.38 465.14 988.18 465.14 991.96 447.94 995.76 436.47 999.57 425.01 1003.37 436.47 1007.17 419.27 1010.97 356.2 1014.77 407.8 1018.57 407.8 1022.36 425.01 1026.16 12.17 1029.96 373.4 1033.76 396.34 1037.56 384.87 1041.36 384.87 1045.16 436.47 1048.95 453.68 1052.75 459.41 1056.55 413.54 1060.35 425.01 1064.15 407.8 1067.95 413.54 1071.75 413.54 1075.55 419.27 1079.34 430.74 1083.14 413.54 1086.94 436.47 1090.74 430.74 1094.54 430.74 1098.34 430.74 1102.14 430.74 1105.93 407.8 1109.73 419.27 1113.53 419.27 1117.33 402.07 1121.13 407.8 1124.93 419.27 1128.73 436.47 1132.53 453.68 1136.32 459.41 1140.12 476.61 1143.92 470.88 1147.72 493.81 1151.52 493.81 1155.32 488.08 1159.12 493.81 1162.91 493.81 1166.71 493.81 1170.51 476.61 1174.31 482.34 1178.11 465.14 1181.91 453.68 1185.71 453.68 1189.5 447.94 1193.3 442.21 1197.1 436.47 1200.9 442.21 1204.7 447.94 1208.5 436.47 1212.3 442.21 1216.1 453.68 1219.89 453.68 1223.69 447.94 1227.49 482.34 1231.29 430.74 1235.09 447.94"/><polyline class="c" points="247.42 430.74 251.22 442.21 255.02 447.94 258.81 465.14 262.61 419.27 266.41 425.01 270.21 430.74 274.01 430.74 277.81 430.74 281.61 436.47 285.41 447.94 289.2 430.74 293 436.47 296.8 442.21 300.6 430.74 304.4 430.74 308.2 419.27 312 425.01 315.79 425.01 319.59 430.74 323.39 430.74 327.19 425.01 330.99 425.01 334.79 442.21 338.59 447.94 342.38 453.68 346.18 465.14 349.98 465.14 353.78 488.08 357.58 482.34 361.38 476.61 365.18 488.08 368.98 470.88 372.77 470.88 376.57 476.61 380.37 476.61 384.17 459.41 387.97 447.94 391.77 453.68 395.57 459.41 399.36 447.94 403.16 442.21 406.96 442.21 410.76 442.21 414.56 436.47 418.36 447.94 422.16 436.47 425.96 430.74 429.75 419.27 433.55 419.27 437.35 447.94 441.15 425.01 444.95 407.8 448.75 413.54 452.55 436.47 456.34 425.01 460.14 402.07 463.94 396.34 467.74 390.6 471.54 402.07 475.34 402.07 479.14 419.27 482.94 419.27 486.73 402.07 490.53 407.8 494.33 413.54 498.13 430.74 501.93 419.27 505.73 384.87 509.53 419.27 513.32 407.8 517.12 419.27 520.92 430.74 524.72 396.34 528.52 413.54 532.32 425.01 536.12 425.01 539.91 453.68 543.71 453.68 547.51 459.41 551.31 470.88 555.11 459.41 558.91 470.88 562.72 465.14 566.51 470.88 570.3 447.94 574.1 459.41 577.9 459.41 581.71 453.68 585.5 407.8 589.3 402.07 593.11 430.74 596.89 436.47 600.69 419.27 604.5 436.47 608.29 442.21 612.1 442.21 615.9 419.27 619.7 419.27 623.5 425.01 627.28 425.01 631.09 425.01 634.89 459.41 638.69 430.74 642.49 430.74 646.29 447.94 650.09 470.88 653.88 459.41 657.68 442.21 661.48 442.21 665.28 430.74 669.08 430.74 672.88 419.27 676.68 419.27 680.48 413.54 684.27 402.07 688.07 379.14 691.87 396.34 695.67 367.67 699.47 407.8 703.27 373.4 707.07 402.07 710.86 402.07 714.66 413.54 718.46 419.27 722.26 407.8 726.06 419.27 729.86 430.74 733.66 453.68 737.45 465.14 741.25 476.61 745.05 459.41 748.85 476.61 752.65 482.34 756.45 476.61 760.25 470.88 764.05 476.61 767.84 476.61 771.64 482.34 775.44 493.81 779.24 459.41 783.04 459.41 786.84 465.14 790.64 453.68 794.43 453.68 798.23 442.21 802.03 425.01 805.83 442.21 809.63 459.41 813.43 442.21 817.23 447.94 821.03 442.21 824.82 470.88 828.62 442.21 832.42 459.41 836.22 430.74 840.02 442.21 843.82 425.01 847.62 453.68 851.41 465.14 855.21 459.41 859.01 436.47 862.81 453.68 866.61 447.94 870.41 442.21 874.21 430.74 878.01 425.01 881.8 442.21 885.6 442.21 889.4 436.47 893.2 447.94 897 447.94 900.8 425.01 904.6 436.47 908.39 442.21 912.19 436.47 915.99 425.01 919.79 425.01 923.59 413.54 927.39 436.47 931.2 436.47 934.98 465.14 938.78 459.41 942.58 482.34 946.38 488.08 950.18 493.81 953.99 493.81 957.78 476.61 961.59 493.81 965.37 482.34 969.17 488.08 972.98 482.34 976.77 482.34 980.58 476.61 984.38 470.88 988.18 470.88 991.96 470.88 995.76 465.14 999.57 459.41 1003.37 453.68 1007.17 442.21 1010.97 436.47 1014.77 430.74 1018.57 425.01 1022.36 396.34 1026.16 396.34 1029.96 447.94 1033.76 413.54 1037.56 436.47 1041.36 453.68 1045.16 453.68 1048.95 453.68 1052.75 465.14 1056.55 436.47 1060.35 436.47 1064.15 379.14 1067.95 430.74 1071.75 442.21 1075.55 436.47 1079.34 430.74 1083.14 436.47 1086.94 425.01 1090.74 436.47 1094.54 430.74 1098.34 430.74 1102.14 442.21 1105.93 447.94 1109.73 436.47 1113.53 430.74 1117.33 436.47 1121.13 436.47 1124.93 442.21 1128.73 453.68 1132.53 459.41 1136.32 476.61 1140.12 482.34 1143.92 482.34 1147.72 476.61 1151.52 482.34 1155.32 482.34 1159.12 470.88 1162.91 442.21 1166.71 224.32 1170.51 379.14 1174.31 430.74 1178.11 436.47 1181.91 436.47 1185.71 425.01 1189.5 430.74 1193.3 442.21 1197.1 436.47 1200.9 436.47 1204.7 430.74 1208.5 436.47 1212.3 436.47 1216.1 447.94 1219.89 442.21 1223.69 396.34 1227.49 425.01 1231.29 413.54 1235.09 425.01"/><polyline class="d" points="247.42 505.28 251.22 516.75 255.02 528.22 258.81 528.22 262.61 516.75 266.41 499.55 270.21 511.01 274.01 493.81 277.81 493.81 281.61 505.28 285.41 499.55 289.2 505.28 293 511.01 296.8 499.55 300.6 511.01 304.4 511.01 308.2 493.81 312 505.28 315.79 505.28 319.59 493.81 323.39 482.34 327.19 493.81 330.99 493.81 334.79 505.28 338.59 511.01 342.38 516.75 346.18 522.48 349.98 522.48 353.78 522.48 357.58 522.48 361.38 528.22 365.18 528.22 368.98 516.75 372.77 528.22 376.57 522.48 380.37 522.48 384.17 505.28 387.97 516.75 391.77 516.75 395.57 511.01 399.36 511.01 403.16 511.01 406.96 516.75 410.76 505.28 414.56 505.28 418.36 516.75 422.16 505.28 425.96 505.28 429.75 493.81 433.55 499.55 437.35 516.75 441.15 488.08 444.95 459.41 448.75 476.61 452.55 511.01 456.34 476.61 460.14 482.34 463.94 482.34 467.74 488.08 471.54 488.08 475.34 482.34 479.14 488.08 482.94 499.55 486.73 499.55 490.53 505.28 494.33 488.08 498.13 499.55 501.93 493.81 505.73 505.28 509.53 499.55 513.32 493.81 517.12 493.81 520.92 488.08 524.72 488.08 528.52 488.08 532.32 505.28 536.12 511.01 539.91 516.75 543.71 516.75 547.51 522.48 551.31 522.48 555.11 522.48 558.91 522.48 562.72 528.22 566.51 522.48 570.3 522.48 574.1 522.48 577.9 528.22 581.71 522.48 585.5 511.01 589.3 511.01 593.11 511.01 596.89 511.01 600.69 516.75 604.5 511.01 608.29 505.28 612.1 511.01 615.9 499.55 619.7 511.01 623.5 499.55 627.28 499.55 631.09 493.81 634.89 522.48 638.69 499.55 642.49 505.28 646.29 505.28 650.09 522.48 653.88 511.01 657.68 499.55 661.48 505.28 665.28 505.28 669.08 511.01 672.88 511.01 676.68 511.01 680.48 505.28 684.27 499.55 688.07 499.55 691.87 499.55 695.67 505.28 699.47 499.55 703.27 511.01 707.07 493.81 710.86 499.55 714.66 493.81 718.46 488.08 722.26 499.55 726.06 493.81 729.86 505.28 733.66 516.75 737.45 511.01 741.25 516.75 745.05 528.22 748.85 528.22 752.65 528.22 756.45 528.22 760.25 528.22 764.05 522.48 767.84 522.48 771.64 533.95 775.44 533.95 779.24 528.22 783.04 522.48 786.84 522.48 790.64 511.01 794.43 516.75 798.23 516.75 802.03 516.75 805.83 516.75 809.63 522.48 813.43 511.01 817.23 511.01 821.03 511.01 824.82 522.48 828.62 488.08 832.42 516.75 836.22 505.28 840.02 505.28 843.82 511.01 847.62 516.75 851.41 516.75 855.21 511.01 859.01 499.55 862.81 511.01 866.61 505.28 870.41 493.81 874.21 493.81 878.01 505.28 881.8 499.55 885.6 488.08 889.4 493.81 893.2 499.55 897 493.81 900.8 499.55 904.6 493.81 908.39 499.55 912.19 493.81 915.99 488.08 919.79 488.08 923.59 493.81 927.39 493.81 931.2 505.28 934.98 511.01 938.78 516.75 942.58 516.75 946.38 516.75 950.18 522.48 953.99 528.22 957.78 516.75 961.59 522.48 965.37 528.22 969.17 522.48 972.98 516.75 976.77 522.48 980.58 528.22 984.38 522.48 988.18 522.48 991.96 516.75 995.76 522.48 999.57 516.75 1003.37 516.75 1007.17 511.01 1010.97 505.28 1014.77 505.28 1018.57 505.28 1022.36 499.55 1026.16 493.81 1029.96 511.01 1033.76 505.28 1037.56 505.28 1041.36 505.28 1045.16 511.01 1048.95 516.75 1052.75 516.75 1056.55 505.28 1060.35 499.55 1064.15 499.55 1067.95 505.28 1071.75 505.28 1075.55 505.28 1079.34 499.55 1083.14 505.28 1086.94 499.55 1090.74 505.28 1094.54 505.28 1098.34 493.81 1102.14 499.55 1105.93 488.08 1109.73 493.81 1113.53 488.08 1117.33 488.08 1121.13 499.55 1124.93 505.28 1128.73 499.55 1132.53 511.01 1136.32 516.75 1140.12 516.75 1143.92 522.48 1147.72 516.75 1151.52 511.01 1155.32 516.75 1159.12 516.75 1162.91 516.75 1166.71 516.75 1170.51 516.75 1174.31 522.48 1178.11 516.75 1181.91 516.75 1185.71 516.75 1189.5 511.01 1193.3 511.01 1197.1 511.01 1200.9 505.28 1204.7 511.01 1208.5 511.01 1212.3 516.75 1216.1 511.01 1219.89 511.01 1223.69 505.28 1227.49 511.01 1231.29 499.55 1235.09 505.28"/><line class="e" x1="232.02" y1="8.5" x2="241.8" y2="8.5"/><text class="f" transform="translate(206.92 445.44)">25</text><text class="f" transform="translate(206.92 302.09)">50</text><text class="f" transform="translate(206.92 158.75)">75</text><text class="f" transform="translate(196.81 15.4)">100</text><line class="e" x1="232.02" y1="560.04" x2="1244.65" y2="560.04"/><line class="g" x1="260.44" y1="562.78" x2="260.44" y2="560.04"/><line class="g" x1="656.6" y1="562.78" x2="656.6" y2="560.04"/><line class="g" x1="1053.29" y1="562.78" x2="1053.29" y2="560.04"/><text class="f" transform="translate(240.29 584.43)">2014</text><text class="f" transform="translate(636.44 584.43)">2016</text><text class="f" transform="translate(1033.14 584.43)">2018</text><line class="e" x1="232.02" y1="153.49" x2="241.8" y2="153.49"/><line class="e" x1="232.02" y1="296.83" x2="241.8" y2="296.83"/><line class="e" x1="232.02" y1="440.18" x2="241.8" y2="440.18"/><text class="h" transform="translate(913.6 37.83)">Da Vinci’s<tspan x="12.79" y="25.2">painting</tspan><tspan x="16.65" y="50.4">sells for</tspan><tspan x="-15.39" y="75.6">$450 million</tspan></text><text class="i" transform="translate(1126.09 102.6)"><tspan class="j">Genius: Picasso</tspan><tspan class="k"><tspan x="0" y="25.2">is released</tspan></tspan></text><text class="l" transform="translate(1187 230.42)">An Eternity’s Gate<tspan x="0" y="24">premiered about</tspan><tspan x="0" y="48">Van Gogh’s life</tspan></text><path class="m" d="M1040.33,39.82a28.91,28.91,0,0,1,6.38-8.4,26,26,0,0,1,9.11-5.41,24.09,24.09,0,0,1,10.59-1.24,24.83,24.83,0,0,1,10,3.42l-.12.23a31.57,31.57,0,0,0-10-2.65,26.42,26.42,0,0,0-10.23,1,25.45,25.45,0,0,0-9,5,28.53,28.53,0,0,0-6.61,8.08Z" transform="translate(-65.58 -19.4)"/><polygon class="m" points="1006 11.18 1005.71 10.22 1010.43 8.79 1008.66 4.19 1009.6 3.83 1011.75 9.44 1006 11.18"/><path class="m" d="M1219.51,150.58a21.64,21.64,0,0,1-5.13,7,27.47,27.47,0,0,1-7.33,4.8,29.58,29.58,0,0,1-8.42,2.54,27.73,27.73,0,0,1-8.77-.2l0-.28a43.94,43.94,0,0,0,8.59-.52,36.49,36.49,0,0,0,8.26-2.25,27.22,27.22,0,0,0,7.32-4.46,21.39,21.39,0,0,0,5.36-6.7Z" transform="translate(-65.58 -19.4)"/><polygon class="m" points="1127.92 141.33 1128.55 142.11 1124.68 145.18 1128.02 148.81 1127.28 149.48 1123.22 145.06 1127.92 141.33"/><path class="m" d="M1235.88,234.67a31.77,31.77,0,0,1,6.57-7.55,22.48,22.48,0,0,1,8.93-4.61,17.82,17.82,0,0,1,10.1.32,19.54,19.54,0,0,1,8.34,5.57l-.07.08a24.21,24.21,0,0,0-8.57-4.71,19.47,19.47,0,0,0-9.62-.46,21.83,21.83,0,0,0-8.78,4.22,31.82,31.82,0,0,0-6.78,7.21Z" transform="translate(-65.58 -19.4)"/><polygon class="m" points="1175.65 214.94 1175.44 213.96 1170.62 215.02 1169.92 210.13 1168.93 210.28 1169.79 216.22 1175.65 214.94"/><text class="n" transform="translate(147.91 12.56)">Google<tspan x="-35.78" y="16.8">Search index</tspan></text><path class="o" d="M103.61,349.49a6.32,6.32,0,0,0-.42,5.78c.14.3.09.42-.22.54a21.78,21.78,0,0,0-3.82,2c-.29.17-.45.15-.66-.11a6.89,6.89,0,0,1-1.37-6.53,13.47,13.47,0,0,1,.84-2.13,9.11,9.11,0,0,0-1.45,3.68A6.8,6.8,0,0,0,98,358.09c.16.19.16.29-.06.43a19.73,19.73,0,0,1-3.81,1.78.66.66,0,0,1-.74-.18c-2.44-2.31-2.88-5.06-1.85-8.16l.19-.53-.08,0a8,8,0,0,0-.53,6.54,7.08,7.08,0,0,0,1.52,2.31c.07.07.19.13.15.25s-.17.1-.27.12a6.54,6.54,0,0,1-2.75-.16,3.57,3.57,0,0,1-2.9-3.67A9.15,9.15,0,0,1,87,355.1c.1-.56.25-1.11.35-1.68-.14.36-.29.71-.41,1.07a8.39,8.39,0,0,0-.47,2.57.66.66,0,0,1-.37.63,22.6,22.6,0,0,0-4.44,3.47,9,9,0,0,0-1.78,2.42,1.83,1.83,0,0,1-.18.3c-.08.11-.14.31-.32.23s-.1-.23-.09-.35a9.41,9.41,0,0,1,.56-2.51,15.28,15.28,0,0,1,2-4.2,4.7,4.7,0,0,1,2.54-2c.11,0,.2-.08.2-.21a3.93,3.93,0,0,1,.87-2.1,18.53,18.53,0,0,1,6.65-5.91,6,6,0,0,1,1.67-.61,1.7,1.7,0,0,0,.86-.45A26.42,26.42,0,0,1,98.16,343a13.15,13.15,0,0,1,11.27-1.55,24.11,24.11,0,0,1,8.95,4.58,12.17,12.17,0,0,1,3.44,4.56,3.27,3.27,0,0,0,.6.88c1.7,1.93,3.46,3.81,5,5.86a27.93,27.93,0,0,1,4.35,7.73,11.82,11.82,0,0,1,.38,7.18c-.09.3-.18.61-.3.9a.62.62,0,0,0,.06.69,10.22,10.22,0,0,1,1.81,7.43c-.08.64-.13,1.29-.19,1.93,0,.08,0,.19-.07.22s-.16-.06-.21-.13a7.29,7.29,0,0,0-1.17-1.12,1.7,1.7,0,0,0-2.62.28,7.87,7.87,0,0,0-1.06,1.67c-.22.44-.43.89-.67,1.31a1.86,1.86,0,0,1-2.36.94,4.66,4.66,0,0,1-2.7-2.21c-.29-.51-.52-.56-.93-.12a3.37,3.37,0,0,0-.92,2.23c0,.22,0,.37-.28.17a6.56,6.56,0,0,1-2.5-3.76,4.4,4.4,0,0,1,.88-3.64,4.58,4.58,0,0,0,.18-5.52,12.8,12.8,0,0,0-3.35-3.68.61.61,0,0,1-.25-.85,8.44,8.44,0,0,0,.33-1.22c.06-.26.17-.39.46-.38a8.43,8.43,0,0,1,1.66.11,4,4,0,0,1,2.67,1.9c.32.54.62,1.08.94,1.62a3.49,3.49,0,0,0,2.68,1.84,2.56,2.56,0,0,0,2.5-1,2.46,2.46,0,0,0,.28-2.63,1.7,1.7,0,0,0-2.79-.58,1,1,0,0,0-.23,1,1.84,1.84,0,0,1,.23-.83,1.43,1.43,0,0,1,2-.25,2,2,0,0,1,.27,2.85,2.6,2.6,0,0,1-3.87,0,6.27,6.27,0,0,1-.95-1.59,6.92,6.92,0,0,0-2-2.67,5.17,5.17,0,0,0-3-1.09c-.61,0-.6,0-.56-.63a10.73,10.73,0,0,0-.15-3.05c-.08-.35.06-.4.35-.42a3.41,3.41,0,0,1,2.92,1.16c.35.38.71.75,1.09,1.1a2.75,2.75,0,0,0,3,.69,2.13,2.13,0,0,0,.75-3.51,1.38,1.38,0,0,0-2.15.19,1.49,1.49,0,0,1,.94-.5,1.64,1.64,0,0,1,1.44,2.31,2.14,2.14,0,0,1-3.12.9,6.35,6.35,0,0,1-1.31-1.33,5,5,0,0,0-2.79-1.85,3.09,3.09,0,0,0-1.13-.11.31.31,0,0,1-.4-.22c-1.8-4.05-5.14-5.63-9.34-5.78a6,6,0,0,0-1.88.3.46.46,0,0,1-.61-.24,5.73,5.73,0,0,1-.48-4.61C103.38,350.19,103.5,349.84,103.61,349.49Z" transform="translate(-65.58 -19.4)"/><path class="o" d="M82.06,394.34c.13,0,.17.12.23.2a14.49,14.49,0,0,1,2,3.3c.07.18.12.18.27.08a.85.85,0,0,1,1.07.06,2.85,2.85,0,0,0,3.12.45,4.37,4.37,0,0,0,.9-.43,1.41,1.41,0,0,1,.94-.21c.8.09,1.61.16,2.41.24a3.48,3.48,0,0,0,3.11-.93c.16-.17.21,0,.29.09a26.68,26.68,0,0,0,4.77,5.19,3.62,3.62,0,0,0,2.86.9,3.22,3.22,0,0,0,.54-.1c.54-.17.78-.55.51-1-.59-1-.14-1.81.55-2.56a30.27,30.27,0,0,1,3-2.71c1.52-1.29,3-2.57,4.57-3.83a6.06,6.06,0,0,1,2.92-1.34,7.71,7.71,0,0,0,3.82-1.73c.13-.12.27-.24.33,0a11.31,11.31,0,0,1,.14,4.81,2.12,2.12,0,0,1-.27.7,3.85,3.85,0,0,0-.54,2.24,10.11,10.11,0,0,0,.3,2.63.61.61,0,0,1-.32.75c-1.53,1-3,2-4.47,3.17a47,47,0,0,0-8,8.15,18.46,18.46,0,0,1-5.74,4.88,4.1,4.1,0,0,1-2,.42,36.15,36.15,0,0,1-6.4-.63c-.8-.13-1.59-.28-2.39-.39a.74.74,0,0,1-.63-.46c-1.78-3.36-3.55-6.72-5.55-10a9.92,9.92,0,0,0-1.56-2,3,3,0,0,1-.22-3.42.76.76,0,0,0,.08-.7,5.42,5.42,0,0,1-.12-2.59,5.25,5.25,0,0,0-.36-2.94C82.06,394.55,82,394.45,82.06,394.34ZM98.5,404.92a8.66,8.66,0,0,0-2.45-2.3,2.3,2.3,0,0,0-1.4-.36c-1.25.14-2.49.32-3.74.42-1.61.13-3.22.38-4.78-.29a.47.47,0,0,0-.67.31,2.42,2.42,0,0,0,.84,2.7,6.79,6.79,0,0,0,3.91,1,15.93,15.93,0,0,0,5.41-1.16A4.52,4.52,0,0,1,98.5,404.92Z" transform="translate(-65.58 -19.4)"/><path class="o" d="M109.26,377.14a4.69,4.69,0,0,1-.2,1.29c-.08.27-.17.28-.34.05a3.53,3.53,0,0,0-1.87-1.35,2.27,2.27,0,0,0-1.84.22,7,7,0,0,1-3.75.86,56.69,56.69,0,0,1-5.83-.2,2,2,0,0,0-1.76.72c-.32.38-.62.77-.92,1.15a3.58,3.58,0,0,1-.63.6,1.23,1.23,0,0,1-1.61,0,2.87,2.87,0,0,1-1.35-2.31,1.12,1.12,0,0,1,0-.36c.1-.34.19-.37.48-.15a1.44,1.44,0,0,0,2.27-.29,3.26,3.26,0,0,0,.59-1.12,1.55,1.55,0,0,1,1.28-1.15,10.32,10.32,0,0,1,2.21-.24,22.33,22.33,0,0,0,4-.32,5.75,5.75,0,0,0,2-.79c.13-.1.23-.18.39,0a4.33,4.33,0,0,0,3.06,1.33,5.08,5.08,0,0,0,2.8-.36c.24-.11.31.05.39.2A4.35,4.35,0,0,1,109.26,377.14Z" transform="translate(-65.58 -19.4)"/><path class="o" d="M76.75,377.08a4,4,0,0,1,.62-2c.1-.15.17-.35.41-.11a.39.39,0,0,0,.55-.05,1.92,1.92,0,0,1,2-.26c1,.27,2,.34,2.92.6a1.25,1.25,0,0,1,1,.88,1.78,1.78,0,0,0,2.13,1.25c.59,0,.59,0,.66.55a4.06,4.06,0,0,0,.72,1.91c.06.09.21.17.14.3s-.21.08-.32.07A3.1,3.1,0,0,1,85.06,379a1.24,1.24,0,0,0-1-.52,31.72,31.72,0,0,1-3.72-.62,5.38,5.38,0,0,0-1.14-.13c-.48,0-.6.13-.65.6-.11.94-.34,1-1.11.46A2,2,0,0,1,76.75,377.08Z" transform="translate(-65.58 -19.4)"/><path class="p" d="M92.85,186c-1.48-2.76-2.89-5.56-4.53-8.23a29.52,29.52,0,0,0-2.44-3.24,12.58,12.58,0,0,1-2.65-4.15,3.41,3.41,0,0,1-.06-1.27,3.22,3.22,0,0,0-.64-2,18.17,18.17,0,0,1-2.26-4.54,10.76,10.76,0,0,1-.24-4c.11-1.4.11-2.8.12-4.2a1.64,1.64,0,0,0-.37-.92c-.39-.54-.35-.74.21-1.11a9,9,0,0,0,2.61-2.46,7,7,0,0,0,.87-2.61,5.08,5.08,0,0,1,.34-1.37c.16.44,0,.76,0,1.09,0,.9.14,1.8.12,2.71a.73.73,0,0,1-.2.54A6.66,6.66,0,0,0,82,153.56c0,.15-.08.36.09.48s.22,0,.32-.09.15-.28.32-.17.11.33.08.48c-.13.73-.24,1.46-.44,2.17a28.52,28.52,0,0,0-.76,3.13,10.47,10.47,0,0,0,0,2.74c0,.24.26.34.42.48a6.83,6.83,0,0,1,1.8,2.06A2.59,2.59,0,0,1,84,167c-.27.6,0,.88.4,1.18a1.18,1.18,0,0,1,.37,1.71c-.17.26-.07.44,0,.65A37.74,37.74,0,0,0,88.16,176a51.28,51.28,0,0,1,3.5,5.35c.3-.42.28-.94.69-1.45-.2,1.37-.25,2.56.85,3.46.3-.92.17-1.9.52-2.89.26.81.27,1.55.44,2.27.24,1,.37,1.95.55,2.93,0,.1,0,.2,0,.31Z" transform="translate(-65.58 -19.4)"/><path class="p" d="M98.94,177.45a16.44,16.44,0,0,0-1.49-2.18l-.44.4a5.69,5.69,0,0,1-.83-2.74.87.87,0,0,0-.62-.86l-.73-.22a1.18,1.18,0,0,1-.84-1c-.08-.51.14-.77.66-.77l.92,0s.06,0,.12-.09c-.58-.54-1.09-1.14-1.63-1.71-1.39-1.47-2.66-3-3.91-4.62-.81-1-1.65-2-2.49-3a.67.67,0,0,1-.18-.58,6.67,6.67,0,0,0-1.85-5.3,5.85,5.85,0,0,1-1.38-2c-.08-.24,0-.44.12-.53a.42.42,0,0,1,.55.12,1.69,1.69,0,0,1,.39.53c0,.11.1.24.24.22s.18-.17.18-.32a2.24,2.24,0,0,1,.11-1c.1-.2.23-.38.36-.6a3,3,0,0,1,.22,2.33,2.09,2.09,0,0,0,.39,1.86,11,11,0,0,1,1.52,3.11c0,.1,0,.32.31.19s.18.25.19.41a5.47,5.47,0,0,0,1.64,3.38c-.17-1.52-.38-2.91-.59-4.3a24.75,24.75,0,0,1-.21-5.16,6.52,6.52,0,0,1,1.65-3.88,5.23,5.23,0,0,0,1.29-2.49,1.91,1.91,0,0,0-.12-.85c-1,.55-.82,1.82-1.67,2.57a9.61,9.61,0,0,1,.28-4,2.34,2.34,0,0,1,1.57-1.53c.11,0,.23-.14.33-.05s0,.25-.06.36-.24.49-.19.78c0,.09,0,.22.1.25s.19,0,.28-.1c.25-.18.27-.51.49-.7s.15-.24.28-.19.17.2.19.33a6.68,6.68,0,0,1-.9,4.32c-.74,1.26-1.73,2.37-2.36,3.7a7,7,0,0,0-.48,3.88,34.86,34.86,0,0,1,.46,3.73c.46-.12.38-.57.58-.84.23.17,0,.32,0,.43A6.58,6.58,0,0,0,92,162a9.6,9.6,0,0,1,.43,1.91c0,.35-.08.73-.07,1.11a.85.85,0,0,0,.07.44c.11.18.2.41.44.35s.08-.3.1-.45c.06-.49-.14-1,.19-1.52.37.76.68,1.5,1.06,2.2a10.19,10.19,0,0,0,3.15,3.72,3.67,3.67,0,0,0,2.51.61c.21,0,.39-.07.24-.35-.06-.12-.08-.26-.14-.38-.19-.43-.52-.91-.21-1.33a2.25,2.25,0,0,1,2-1.13c.1,0,.22-.05.27.07s0,.23-.11.32-.4.38-.58.58-.35.57,0,.88.68.52,1.11.11a4.38,4.38,0,0,1,.69-.42.73.73,0,0,1,.69-.08c.89.58,1.12-.25,1.49-.69s.85-1.12,1.32-1.66c-.35,1-1.23,1.78-1.35,2.93a2.24,2.24,0,0,0,1.06-.51,3.67,3.67,0,0,0,1.76-3.23,4.68,4.68,0,0,0-.1-.54c0-.44-.19-.61-.63-.35a.63.63,0,0,1-.79-.11.86.86,0,0,0-1.1-.09,2.55,2.55,0,0,1-1.92,0l-1.84-.41a.59.59,0,0,1,.53-.57l1.79-.31c.37-.07.85-.2.81-.6s-.53-.43-.91-.43a2.56,2.56,0,0,1-2.82-1.91c2,1.38,5,1.85,6.64.42-.19-.42-.85-.3-1-.89a9.56,9.56,0,0,0,1.92.11,1.81,1.81,0,0,0,1.65-.78c.13-.2.2-.31-.14-.36-1.75-.26-3.5-.51-5.24-.83a48.11,48.11,0,0,1-6.7-1.63,1.1,1.1,0,0,1-.81-.76c0-.18,0-.34.26-.2a20.92,20.92,0,0,0,5.55,1.44c.88.13,1.79.19,2.69.25,1.21.08,2.43,0,3.64.1.43,0,.61-.16.62-.51a10.45,10.45,0,0,0-.18-3.25,1.6,1.6,0,0,0-1.21-1.2c-.29,1.25-.59,2.49-.84,3.74-.07.33-.15.31-.39.19a1.88,1.88,0,0,1-.63-.59.48.48,0,0,1,0-.69c.44-.52.36-1.25.6-1.85.38-1-.23-1.48-.91-2a24.18,24.18,0,0,0-3-1.51,5.64,5.64,0,0,1-1.21-.83,2.89,2.89,0,0,1-.85-2.51c-.22.24-.42.45-.6.67a44.44,44.44,0,0,0-4.2,5.1,4.33,4.33,0,0,0-.76,3c.46-.4.45-1,.89-1.53a8.72,8.72,0,0,1-.56,2.81c-.64,1.5-1.43,2.93-2,4.46a1.87,1.87,0,0,1-.9.94c-.19.11-.26.1-.35-.14a2.22,2.22,0,0,1,.08-1.44,7.38,7.38,0,0,1,.81-1.73,4.88,4.88,0,0,0,.54-1.51,1.84,1.84,0,0,0-.17-1,3.06,3.06,0,0,1,.71-3.14,28.61,28.61,0,0,0,2.38-2.78,3.15,3.15,0,0,0,.41-1,3.68,3.68,0,0,0-1.06.63,6.52,6.52,0,0,1-1.38.61.39.39,0,0,1-.3,0c-.1-.09,0-.18.07-.27a2,2,0,0,1,1.3-1.05,6.27,6.27,0,0,0,2.86-2.43,22,22,0,0,1,2.43-3.17,7.11,7.11,0,0,1,1.29-.9c.15-.09.28-.1.33.05.18.56.59.37,1,.34s.77-.38.92-.05-.39.47-.63.66a7,7,0,0,0-1.88,1.8,2.81,2.81,0,0,0-.26,2.56c.24.6.88.73,1.41.95s1.29.45,2,.64a1.8,1.8,0,0,1,1,.86,3.14,3.14,0,0,0,1.48,1.33,1,1,0,0,0,.51,0c-.41-1-1.23-1.91-1.31-3.14a5.85,5.85,0,0,1,1.25.81,2.79,2.79,0,0,0,3.81-1,6.41,6.41,0,0,0,.72-3.64c0-.32-.24-.4-.53-.34-.75.13-1.14-.17-1-.94.11-.52-.12-1.09.26-1.57a5.35,5.35,0,0,0,1-3c.14-1.39,0-2.77.08-4.16a1.26,1.26,0,0,1,0-.4c.14-.26,0-.36-.2-.47-.59-.32-.68-.61-.51-1.32a16.22,16.22,0,0,1,1.71-4.34c.09-.14,0-.35.24-.45a15.43,15.43,0,0,1,.18,2.71,4.47,4.47,0,0,0,.76,2.61,10,10,0,0,1,1.87-5.11c-.05,1.73-.54,3.45-.1,5.24a2.49,2.49,0,0,0,.74-1.41c.19-.78.3-1.59.43-2.39.07-.4.23-.65.71-.58a3.22,3.22,0,0,0,.82,0c.42,0,.54.17.54.54a1.62,1.62,0,0,0,.12.92,6.16,6.16,0,0,0,.79-2.08c.17-1,0-1.17-1-1.23a1.55,1.55,0,0,0-1.36.72c-.41-1-1.29-1-2.11-1.23a25.13,25.13,0,0,1-3-.53c-.39-.12-.85-.24-.76-.84,0-.26.17-.29.33-.17a6.16,6.16,0,0,0,3.3.82c1.27.14,2.55.3,3.82.48.31,0,.4,0,.39-.31,0-.57,0-1.14,0-1.7,0-.27-.13-.36-.34-.43a7.35,7.35,0,0,0-3.3-.16,5.65,5.65,0,0,1-3,0,4.32,4.32,0,0,1-1.37-.93,5.4,5.4,0,0,0-3.83-1.57,2.7,2.7,0,0,1-1-.11c-.48-.19-.55,0-.67.41a7.38,7.38,0,0,1-.57,1.07c-.17.31-.07.5.25.58a5.14,5.14,0,0,0,1.29.23,9.25,9.25,0,0,1,3.1.22c.27.09.27-.08.27-.26a1.66,1.66,0,0,1,.18-1,9.84,9.84,0,0,1,.52,1.92,9.35,9.35,0,0,1-1.32,5.48c-.18.3-.41.6-.85.44-.11,0-.18,0-.17.11,0,.5-.36.78-.61,1.13-.07.1-.17.21-.09.32s.2,0,.32,0a11.38,11.38,0,0,0,1.36-.55,1.07,1.07,0,0,1-.78,1.25c-.55.22-1.15.2-1.71.38-.3.09-.46.17-.47.53,0,.91-.68,1.27-1.4,1.6-.45.2-.72.3-1-.3a14.27,14.27,0,0,0-1.94-2.71c-.4-.54-.58-1.23-1.35-1.47a5.81,5.81,0,0,0-3.25-.17,4.43,4.43,0,0,0-2.85,2.28.39.39,0,0,0-.06.33,8.57,8.57,0,0,1,2.59-1.1,9.63,9.63,0,0,1,3.59-.09c.09,0,.19.15.27,0s0-.22-.11-.31l-.32-.33c-.06-.06-.2-.11-.1-.24s.2-.06.3,0a4.6,4.6,0,0,1,.94,1.08,3.57,3.57,0,0,1,.65,1.78.42.42,0,0,0,.36.43l.52.2c.42.17.45.47.26.82a3,3,0,0,1-.33.4.63.63,0,0,0-.08.61c.09.25.32.09.48.13a.62.62,0,0,0,.29-.07.29.29,0,0,1,.38.06c.11.17-.09.23-.16.31a5.59,5.59,0,0,1-3.19,1.76,9.73,9.73,0,0,1-2.59.22c-.16,0-.35.06-.44-.16a5,5,0,0,0,1.85-.5,12.66,12.66,0,0,0-2.22,0,8.87,8.87,0,0,1-3,.05c-.09,0-.18-.06-.19-.14s.07-.12.15-.17c.23-.16.5-.05.74-.12s.4-.09.37-.29-.26-.09-.4-.1a1.33,1.33,0,0,0-.79.11A18.37,18.37,0,0,0,93,138.58a7.79,7.79,0,0,0-1.38,1.69l-1.34,1.89a.73.73,0,0,1-.41.24c.7-1.41,1.08-3,2.32-4.1a9.79,9.79,0,0,1,1.69-1.1,15.9,15.9,0,0,0,2-1.19c-.7-.24-1.31-.46-1.93-.66-.14,0-.24,0-.29.19a.85.85,0,0,1-.77.51,3.82,3.82,0,0,0-2.12.69,1,1,0,0,1,.7-1c.32-.13.67-.19,1-.31.18-.06.4-.1.5-.41a1.71,1.71,0,0,1-1.61-.61,2.12,2.12,0,0,1-.38-2.05c0-.11.09-.2.19-.22s.16.09.23.17c.32.39.17.89.29,1.33.07.24.13.37.37.44l7.19,2.33c.43.14.68-.21,1-.41-.32-.05-.63-.12-1-.16a3.83,3.83,0,0,1-1.55-.7.78.78,0,0,1-.19-.24c-.09-.16-.21-.38-.11-.5s.32,0,.49.07a13.36,13.36,0,0,0,4.79.95,1.45,1.45,0,0,0,.36,0c.65-.17.78-.41.66-1.33a1.83,1.83,0,0,0-.91-1.41s0,0,0,.08c.32,1.56-1,2-2.15,1.84A1.89,1.89,0,0,1,99,133.12c-.09-.38,0-.29.29-.27s.5.2.79.07.43-.21.4-.49-.22-.37-.5-.4a3,3,0,0,0-1.76.7,2.12,2.12,0,0,1-1.09.34c-.61,0-1,.48-1.42.81a2.47,2.47,0,0,1-3.47-.68c.71,0,1.29.73,2.09.3-.67-.41-1.6-.36-2-1.22.72-.3,1.28.09,1.85.39.81.43.8.45,1.41-.26.12-.15.22-.32.39-.57a4,4,0,0,1-1.27.09c-.21,0-.49.12-.6-.14a.79.79,0,0,1,.08-.82,1.83,1.83,0,0,0,.34-.75c-.31-.08-.54.18-.84.22a.88.88,0,0,1-.6-.15.3.3,0,0,1-.15-.39c.07-.17.21,0,.31,0,.83,0,1-.07,1.32-.81.3-.59.64-1.16,1-1.73a1.82,1.82,0,0,0,.3-.9c0-.16.08-.27.24-.27s.15.18.17.3v0c0,.31-.16.8.14.88s.45-.44.65-.69a3.36,3.36,0,0,1,1.27-1.07c.12,0,.25-.19.37,0s0,.32-.09.41a10.11,10.11,0,0,1-1.09,1.08,3.53,3.53,0,0,0-1.24,1.6,3.36,3.36,0,0,0,1.43-1.06,2.9,2.9,0,0,1,1.53-1.2,1.41,1.41,0,0,1,.4,0,.19.19,0,0,1,.19.14s-.07.12-.12.15a7.46,7.46,0,0,0-2,2,1.66,1.66,0,0,1-1.81.66c-.17,0-.24-.08-.26.13a1.63,1.63,0,0,1-.4.86c-.1.11-.09.25-.16.36s0,.32.12.45.25,0,.36,0a7.14,7.14,0,0,0,1.7-1.17,4.36,4.36,0,0,1,3.25-1.18c-.29-.62-.84-.32-1.26-.47a2.31,2.31,0,0,1,1.47-1.28c.39-.13.73.2,1,.4,1,.59,1.79,1.44,2.77,2A4.13,4.13,0,0,0,106,130c.36.07.64-.31.91-.53a24,24,0,0,0,2.24-2,.8.8,0,0,1,.45-.23c-.3,1.83-2,2.38-3.1,3.5a2.48,2.48,0,0,0,1.08.77.77.77,0,0,0,.85-.21,9.16,9.16,0,0,0,1.66-1.91.73.73,0,0,1,.27-.28c.11.09,0,.27.19.37a28,28,0,0,0,1-3.23,4.77,4.77,0,0,0,.11-1.06,1.22,1.22,0,0,0-1.37-1.39c-.5,0-1,0-1.5,0a7,7,0,0,1-3.32-.78,6.6,6.6,0,0,0-3-.77,8.9,8.9,0,0,0-5,1.77,17.44,17.44,0,0,1-2.37,1.58,3.54,3.54,0,0,1,.85-1.3,9.37,9.37,0,0,1,9.81-2.22.48.48,0,0,0,.65-.2,3.48,3.48,0,0,0,.38-.71c.21-.58,0-.82-.6-.9a14.6,14.6,0,0,0-2.28-.18,15.94,15.94,0,0,0-5.26.91,6.32,6.32,0,0,0-1.92,1.3,12.87,12.87,0,0,0-1.8,1.89,1.94,1.94,0,0,1-.52.51,6.93,6.93,0,0,1,1.09-2.11,14.5,14.5,0,0,1,3-2.76,3.43,3.43,0,0,1,2.49-.44c.11,0,.23.06.34.06a38.46,38.46,0,0,1,4.16.12,23.3,23.3,0,0,1,6.67,1.11,5.91,5.91,0,0,1,1.71,1.06,4,4,0,0,0,1.83.91c.46.08.57,0,.48-.48a1.16,1.16,0,0,1,.12-.59c.06-.24.19-.36.41-.11a5.25,5.25,0,0,0,1.11.88c.33.23.54.21.76-.09s.24-.3.37-.46a1.81,1.81,0,0,0,2.6.69.6.6,0,0,0,.17-1,3.93,3.93,0,0,0-2.3-1.17,14.63,14.63,0,0,0-3-.09,9.27,9.27,0,0,1-3.88-.83,36.87,36.87,0,0,0-5-1.8,15.61,15.61,0,0,0-2.73-.29,7.89,7.89,0,0,1-2.51-.3,3.15,3.15,0,0,1-1.32-.78,4.76,4.76,0,0,1,1.56.09c1.16.11,2.3.33,3.46.49a29.65,29.65,0,0,1,4.37,1,25.28,25.28,0,0,1,3.75,1.5,3.92,3.92,0,0,0,2.25.16c.7-.09,1.4-.23,2.09-.36.54-.11.92.28,1.37.44a5.56,5.56,0,0,0,3.58.19,1.85,1.85,0,0,0,1.23-2,13.86,13.86,0,0,0-2.38-5.93,16.88,16.88,0,0,0-2.72-2.69c-.51-.44-1-.94-1.5-1.39a20.54,20.54,0,0,0-5.2-3.66c-.11,0-.2-.12-.31-.18a.46.46,0,0,1-.23-.29,14.28,14.28,0,0,0,1.92.41c1.51.11,2.5,1.19,3.64,1.94a35.31,35.31,0,0,1,3.58,2.74,30.89,30.89,0,0,1,3.21,3.16,28.61,28.61,0,0,1,2.63,3.48,20.15,20.15,0,0,1,1.81,3.44c.11.28.23.4.54.17s.48-.43.74-.62a.44.44,0,0,1,.28-.09c.13.06.08.22.06.32a2.42,2.42,0,0,1-.59.93,1.22,1.22,0,0,0-.31,1c.06.23.19.38.4.11s.26-.22.32-.4a.23.23,0,0,1,.34-.13c.11.08.08.25,0,.38a3.94,3.94,0,0,0-.36,1.3,1.3,1.3,0,0,0,0,.29l.28,0c.14,0,.29-.19.4,0s-.11.26-.19.37-.21.16-.23.26-.4.32-.2.58.34,0,.52-.07c.39-.12.37.16.38.42a6.45,6.45,0,0,1-.36,1.31c.26,0,.43-.1.53-.3s.11-.24.26-.18.08.19.06.27c-.16.65-.21,1.36-.87,1.74s0,.7-.12,1c.16,0,.15,0,.15-.06s0-.11,0-.15c.16-.2.3-.47.61-.36s.24.43.17.65a2.76,2.76,0,0,1-1.07,1.55c-.18.11-.47.25-.4.53s.36.32.6.34.55.06.56.32-.26.34-.5.43-.71,0-1.11.12l.58,1-.1.06c-.19.08-.5-.17-.58.21s.22.39.44.49.4.13.2.35a3.3,3.3,0,0,0-.72,1.85,4.43,4.43,0,0,1-1.31,2.45.52.52,0,0,0-.15.66,2.25,2.25,0,0,1,.2.67c0,.66,0,1.24-.73,1.54-.5.2-.35.77-.38,1.14a10.32,10.32,0,0,1-1.12,4,21,21,0,0,0-1.8,4.91,1.09,1.09,0,0,1-.09.23.9.9,0,0,1-1.15.77c-.51-.1-.69.11-.85.61a49.75,49.75,0,0,1-2.34,6.6,19.51,19.51,0,0,1-2.18,3.75,14.91,14.91,0,0,1-1.71,1.84,2.79,2.79,0,0,1-.43.23,8.54,8.54,0,0,1,.75-3.84c.49-1.22,1.11-2.38,1.52-3.63a8.33,8.33,0,0,0,.12-4,37.25,37.25,0,0,1-.76-4.69,1.8,1.8,0,0,1,.17-1.09c.27.6.25,1.27.46,1.89a2.54,2.54,0,0,0,1.06,1.7c.64.35,1,.11,1.1-.63a6.7,6.7,0,0,0-.13-1.73,3,3,0,0,1,.45-1.9,10.14,10.14,0,0,0,1.15-2.06c0-.2.14-.39.17-.58.07-.59-.2-.9-.82-.89a5.8,5.8,0,0,1-3.9-1.29,7.66,7.66,0,0,1-1.29-1.72,6.54,6.54,0,0,0-.36,2.14,17.55,17.55,0,0,0,1,5.51,37.91,37.91,0,0,1,1.18,4.95,10.36,10.36,0,0,1-.92,5.77,15.88,15.88,0,0,0-1.2,3.41,2,2,0,0,0,0,.41,7.71,7.71,0,0,1-.81,3.77c-.68,1.71-1.32,3.43-2.13,5.07a16.47,16.47,0,0,1-2.14,3.42c-.82,1-1.8,1.77-2.54,2.81a6.06,6.06,0,0,0-1,2.8,7.9,7.9,0,0,1-1.92,4.42c-.16.19-.24.46-.54.57a15.34,15.34,0,0,1,1.06-2.84c.45-1.09.91-2.17,1.3-3.28.12-.33,0-.47-.23-.66a3,3,0,0,1-1.46-1.8,2.32,2.32,0,0,1,0-1,5.25,5.25,0,0,0,0-1.58,1.08,1.08,0,0,0-.46-.8,2.35,2.35,0,0,1-.8-1,6,6,0,0,0,.1,3,15.61,15.61,0,0,1,.37,3.27,4.23,4.23,0,0,1-.36,1.26c-.07.2-.32.21-.48.23a3.47,3.47,0,0,0-1.88,1,12.36,12.36,0,0,1-1.76,1.55c-.2.12-.41.22-.62.32-.36.18-.46.11-.5-.33a7.7,7.7,0,0,1,.22-3.41,3.41,3.41,0,0,1,1.12-1.57,14.07,14.07,0,0,0-.74,4.26c.22,0,.31-.21.44-.34a19,19,0,0,1,2.85-2.45c.1-.07.22-.17.23-.27a23.13,23.13,0,0,0,.44-3.1.85.85,0,0,0-1.21-.81,3.26,3.26,0,0,1-2.2,0c-.57-.18-.6.18-.7.49a3.88,3.88,0,0,0-.12,1.32Zm19.44-44.3a1.25,1.25,0,0,0,1.42.32c.49-.22,1-.43,1.46-.69a2.2,2.2,0,0,1,2.55.71c.28.46.56.92.8,1.4.09.17.11.44.36.44.45,0,.89,0,1.34,0a.46.46,0,0,0,.06-.18,7.32,7.32,0,0,0,0-3.42c-.4-1.37-1.39-2-2.71-1.34-.63.33-.88.15-.89-.56s0-.75.71-.76c.22,0,.45,0,.67,0,2.41,0,3.25-1.62,3.21-3.68a2.14,2.14,0,0,0-.57,1.27,1.91,1.91,0,0,1-.67,1.3c-.23.15-.35,0-.35-.15a10.27,10.27,0,0,1,0-2,12.61,12.61,0,0,0,.25-3.3,2.14,2.14,0,0,0-.4-1.18c-.22.61-.44,1.15-.61,1.71-.49,1.62-1,3.24-.26,4.93.1.25-.17.46-.39.56s-.47.12-.58-.15a1.73,1.73,0,0,1-.18-1,11.71,11.71,0,0,0,.05-2,.33.33,0,0,0-.25-.35c-.05.19-.09.37-.15.54a33.75,33.75,0,0,1-1.19,3.69,3.7,3.7,0,0,1-2.41,2.43.27.27,0,0,0-.11.16A1.89,1.89,0,0,1,118.38,133.15Zm2.93,5.9a5.58,5.58,0,0,1-2.13-.32c-1.06-.36-1.77-1.14-1.67-2,0-.11-.07-.25.08-.32s.25.05.34.15.33.38.64.35c.47,0,.45-.36.49-.69s-.22-.33-.45-.34a2.48,2.48,0,0,0-1.51.54c-.28.18-.07.56-.11.86s-.19.61-.61.51c-.07,0-.17-.06-.18,0a4.5,4.5,0,0,0,0,.82c0,.27.27.11.42.15s.6-.16.83.17a3.83,3.83,0,0,0,2.67,1.56,2,2,0,0,0,2.39-1.08c.06-.14.11-.28,0-.38a.38.38,0,0,0-.33,0A2.31,2.31,0,0,1,121.31,139.05Zm2.85-.26a3.68,3.68,0,0,0-2.06-3.42,5.81,5.81,0,0,0-3.72-.75,2.58,2.58,0,0,0-2.08,1.46,5.7,5.7,0,0,1,4.55-.44A6,6,0,0,1,124.16,138.79ZM107,132.52c.13-.37-.14-.56-.45-.81a9.52,9.52,0,0,0-1.77-1.44,3.26,3.26,0,0,1-.93-.59,9.59,9.59,0,0,0-1.21-1c-.23-.16-.59-.33-.76,0a.6.6,0,0,0,.31.82,3.07,3.07,0,0,0,.85.3,1.09,1.09,0,0,1,.75.52,4.14,4.14,0,0,0,1.07,1.28,3.92,3.92,0,0,1,1.4,2c.11.34.21.29.41.11A1.32,1.32,0,0,0,107,132.52Zm13.17,5.89a2.56,2.56,0,0,0,2.15,0c.19-.14.16-.3.11-.5a2.57,2.57,0,0,0-1.48-1.61C121.31,137.55,121,138.22,120.15,138.41Z" transform="translate(-65.58 -19.4)"/><path class="p" d="M79.74,134.25a8.51,8.51,0,0,1,1-1.91.61.61,0,0,0-.14-.91.82.82,0,0,1-.37-.59c0-.34,0-.64.45-.66s.67-.08.59.46c0,.3.12.32.34.18,0,0,.1,0,.14-.06.91-.54,1.31-.31,1.37.76,0,.76.09,1.53.17,2.29,0,.2-.07.17-.19.19-.92.2-1.16.72-.75,1.56a5.65,5.65,0,0,1,.78,1.84.23.23,0,0,0,.26.2,3.69,3.69,0,0,0,.47,0c.79-.07,1,.25.72,1a1.64,1.64,0,0,1-1.59,1c-.3,0-.56,0-.42.45.06.16,0,.24-.16.27s-.33-.1-.4-.25a.87.87,0,0,1,.71-1.28c.57-.09.57-.09.88-.51a5,5,0,0,0-1.26-.34c-.23-.08-.46-.14-.31-.52s-.43-1.13-.86-1.14c-.19,0-.2.18-.22.32a6.23,6.23,0,0,0,.15,1.36,2.1,2.1,0,0,1,.06.24c0,.25,0,.58-.24.62s-.31-.29-.38-.52a10.43,10.43,0,0,1-.22-2.9,6,6,0,0,0-.49.59c-.06.09-.1.2-.21.2s-.16-.17-.2-.26a12,12,0,0,1-.53-2.2,27.53,27.53,0,0,1-.29-5.66,4.37,4.37,0,0,1,.78-2.41c.22-.29.56-.6.89-.44s.36.7.31,1.09a31.61,31.61,0,0,1-1.13,4A5.36,5.36,0,0,0,79.74,134.25Z" transform="translate(-65.58 -19.4)"/><path class="p" d="M90.63,107.15c0-.36-.41-.58-.2-1,.26.08.3.48.66.49,0-.3-.33-.55-.14-.89.19.26.38.54.76.49a1.09,1.09,0,0,0,.78-.67,1.13,1.13,0,0,1,1-.74,18.19,18.19,0,0,0,2.48-.67c.16,0,.38-.18.45,0s-.18.25-.31.33a16.86,16.86,0,0,0-4,2.76,10.85,10.85,0,0,0-1,1.34c-.07.09-.11.27-.23.23-.55-.15-.69.26-.86.62a1.4,1.4,0,0,1-.57.63,5.84,5.84,0,0,0-1.93,2.31c-.19.27,0,.41.31.48.62.16.65.19.44.78a1.31,1.31,0,0,0,0,1c.12.25.19.45-.22.48-.24,0-.25.28-.33.47s-.11.64-.48.82c-.11-.59.14-1.13.08-1.69a2.85,2.85,0,0,0-.91-2.12,1.56,1.56,0,0,0-.2-.16c-.33-.19-.64-.38-.78.22a.9.9,0,0,1-.4.6c.18-.53.33-1,.49-1.47s.3-.37.59-.23.73.36.71-.34c0-.22.24-.33.42-.46s.5-.39.31-.76c0-.08-.08-.21.07-.25a.91.91,0,0,0,.45-1.32c.27,0,.45.28.75.14l-.46-.75c.26-.1.4.09.58.16l.6.26-.44-.94c.18-.09.28,0,.38.11s.21.23.35.13.07-.24,0-.37-.22-.25-.06-.35.22.1.3.19A.42.42,0,0,0,90.63,107.15Z" transform="translate(-65.58 -19.4)"/><path class="p" d="M84.15,127.19c-.17,1.24.47,2.27.6,3.38a1,1,0,0,1-.25.78.44.44,0,0,1-.4.17c-.2-.05-.09-.23-.12-.35a.72.72,0,0,0-.44-.58c-.33-.11-.4-.34-.4-.67a3.79,3.79,0,0,0-.08-1.42c-.08-.22-.22-.44-.42-.45s-.35.28-.39.48-.1.53-.38.48-.28-.34-.26-.6,0-.73,0-1.09c0-.17.12-.23.28-.23a1.88,1.88,0,0,1,1.21.27C83.42,127.58,83.84,127.89,84.15,127.19Z" transform="translate(-65.58 -19.4)"/><path class="p" d="M79.64,124c.45-1,1.12-1.17,2.1-.49.14.1.25.24.38.35a6.55,6.55,0,0,0,.85.73c.46.29.46-.39.82-.45a4.6,4.6,0,0,0,1-.42c.09,0,.18-.17.27-.07s0,.21,0,.32a4.45,4.45,0,0,0-.77,1.46,1.78,1.78,0,0,0-.07.39c0,.67,0,.67-.67.39a3.09,3.09,0,0,1-1.87-1.87c-.15-.47-1.06-.68-1.71-.45Z" transform="translate(-65.58 -19.4)"/><path class="p" d="M83.8,141.32a8.57,8.57,0,0,0,0,2.9.86.86,0,0,0-1.16,0c-.32.23-.45-.17-.57-.33a11.35,11.35,0,0,1-1.43-2.3,2.68,2.68,0,0,1-.4-1.15c.51.42.52,1.09.91,1.54a3,3,0,0,1,.19.3.84.84,0,0,0,1.58-.08C83.38,141.46,83.38,141.46,83.8,141.32Z" transform="translate(-65.58 -19.4)"/><path class="q" d="M120.69,300a10.84,10.84,0,0,0-4.46,4.19c-.12-.18,0-.33,0-.48a7.19,7.19,0,0,1,3.41-4.37,7.14,7.14,0,0,0,1-.57,5.45,5.45,0,0,0,.77-.82c.16.35.15.38-.23,1.15a6.13,6.13,0,0,0,2.59-1.07,6.58,6.58,0,0,0,1.87-2.16,1.65,1.65,0,0,1-.33,1.07,10,10,0,0,1-4.38,3.4C120.42,300.48,120.86,300,120.69,300Z" transform="translate(-65.58 -19.4)"/><path class="q" d="M118.91,304.35a5.45,5.45,0,0,1,2-2.61,15.44,15.44,0,0,1,5.3-2.53c.07,0,.15-.08.21,0s0,.15,0,.22a1.11,1.11,0,0,1-.45.46c-2.33,1.43-4.67,2.84-6.92,4.39Z" transform="translate(-65.58 -19.4)"/><path class="q" d="M128.14,264a7.25,7.25,0,0,1-1.59,1.1c2-5.27,1.18-10-2.07-14.53a10.71,10.71,0,0,0,.26,2.64,12.63,12.63,0,0,0,1,3c0,.06.06.12.08.18s.14.41,0,.53-.25-.12-.36-.22a13.44,13.44,0,0,1-4.47-7.55,5.75,5.75,0,0,0-1.14-2.45,6,6,0,0,1,0,1.46,4.45,4.45,0,0,1-.47,1.34.39.39,0,0,1-.43.26c-.25-.06-.18-.25-.18-.41a5.3,5.3,0,0,0-.55-2.74c-.33-.63-.32-.64-1.06-.61.07.31.15.61.21.92a7.19,7.19,0,0,1-.18,3,6.8,6.8,0,0,0,1.81,6.8,7.82,7.82,0,0,1,2.07,7.53,2.6,2.6,0,0,1-1.09,1.66c.12-.56.24-1.05.32-1.55a7.55,7.55,0,0,0-3-7.52,5.23,5.23,0,0,1-1.92-3.65,23.16,23.16,0,0,1,.15-3.63,4.67,4.67,0,0,0-1.49-3.52.16.16,0,0,0-.09,0,.27.27,0,0,0,0,.26,22.69,22.69,0,0,1,.72,2.69.81.81,0,0,1-.13.73,8,8,0,0,0-1.44,3.46,1.54,1.54,0,0,0,.47,1.11,5.83,5.83,0,0,1,1.22,4.79c0,.05,0,.1,0,.15l-.07,0a10.6,10.6,0,0,0-1.17-1.74A10.13,10.13,0,0,0,112,256c-.13.12-.07.25-.07.37a20.23,20.23,0,0,0,.39,3.38c0,.11.05.23.06.34s0,.31-.29.17a4.19,4.19,0,0,0-2.15-.67c-.41,0-.42,0-.26.36.09.18.18.36.28.58-.21,0-.36-.12-.54-.09a.68.68,0,0,0-.46,1.13,5.58,5.58,0,0,1,.93,1.6,3,3,0,0,1-.15,2.69c-.27-1.56-.53-3-1.81-4,0,0,0,.05,0,.06A5.26,5.26,0,0,1,109,265.2a6.24,6.24,0,0,0,.78,2.6,2.52,2.52,0,0,1-.47,2.93l-.23.17c.07-.25.12-.41.16-.58a3,3,0,0,0-.44-2.62,5.46,5.46,0,0,1-.94-2.58,4.78,4.78,0,0,0-2.2-3.43,3.25,3.25,0,0,1,.19,1.27c0,.09,0,.2-.11.22s-.13-.07-.17-.13a5.78,5.78,0,0,0-.73-.79,9.81,9.81,0,0,1,.32,4.91,8.52,8.52,0,0,0-1.21-2.29,6.23,6.23,0,0,0,.6,3.5,3.67,3.67,0,0,1,.46,1.1,2.08,2.08,0,0,0,.23.73.64.64,0,0,1,0,.49,5.77,5.77,0,0,1-1,2.37,8.92,8.92,0,0,0-1.59,4.38c0,.07,0,.13,0,.2-.16,0-.12-.12-.14-.19a5.87,5.87,0,0,1,.22-3.79,5.75,5.75,0,0,0,.5-2.68,1.83,1.83,0,0,0-.54-1.16,1.84,1.84,0,0,1-.58-1.43,13.1,13.1,0,0,0-1.3-6.34c0-.08-.1-.15-.06-.25.44.06.44.06,1.55,1.68a9.59,9.59,0,0,0-.53-1.9c-.08-.22-.33-.51-.13-.66s.41.18.6.32a8.77,8.77,0,0,1,1.82,1.83c.07.1.15.19.27.34a3.92,3.92,0,0,0-1.27-2.88c.44-.09.79,0,1.7.56a3.18,3.18,0,0,0-.87-1.33,3.51,3.51,0,0,1,2.5,1.34,4.35,4.35,0,0,0-.78-1.65,3.33,3.33,0,0,1-.74-1.52.82.82,0,0,1,0-.49.35.35,0,0,1,.63-.08,3.58,3.58,0,0,0,.26.29.48.48,0,0,0,.51.09c.16-.07.06-.26.06-.39,0-1,0-2,0-2.94a1.92,1.92,0,0,1,.7-1.56c.6-.54,1.18-1.09,1.75-1.64a6.89,6.89,0,0,0,.86-.94,1,1,0,0,0-.47-1.49,2.64,2.64,0,0,0-.79-.16c-.1,0-.23,0-.28-.08s.08-.18.15-.25.19-.17.32-.28a4,4,0,0,1-1.61-1.39.9.9,0,0,0-.45-.29c-.29-.1-.5-.12-.58.28a1.19,1.19,0,0,1-1.18,1,16,16,0,0,0-2.49.28,1.58,1.58,0,0,1-1.15-.26A4.3,4.3,0,0,1,99.68,246a6,6,0,0,1,1.58.86,1.79,1.79,0,0,0,1.44.38,12.47,12.47,0,0,0,2.49-.56,1.09,1.09,0,0,0,.51-.35,3.65,3.65,0,0,1-2.69-.2,6.94,6.94,0,0,0,1.78-.22,2,2,0,0,0,.85-.36.47.47,0,0,0,.17-.45c0-.19-.24-.1-.36-.12-.46-.06-.84.22-1.28.27a3.15,3.15,0,0,1-2.26-.44,3.15,3.15,0,0,0-.59-.27c-.13-.06-.26-.15-.2-.29s.2,0,.3,0a7.94,7.94,0,0,0,3.22.06,1.11,1.11,0,0,0,.26-.07s.06,0,.12-.07a1.88,1.88,0,0,0-.49-.32c-.15-.09-.22-.07-.31.11a1.21,1.21,0,0,1-1.21.41.72.72,0,0,1-.64-.79c0-.28-.13-.32-.36-.31a6,6,0,0,0-2.46.61.77.77,0,0,1-.69.06c-.2-.11-.2.09-.24.18a2.93,2.93,0,0,0,.07,2.44,16.9,16.9,0,0,0,1.12,1.76,5.92,5.92,0,0,1,1.17,3.47,5.19,5.19,0,0,0,.8,3.29,11.11,11.11,0,0,1,1.19,3.79s0,.07,0,.17a7,7,0,0,1-2-2.83.55.55,0,0,0-.52-.46,9.1,9.1,0,0,0-4.77.36,4.67,4.67,0,0,1-3.43.08,7.9,7.9,0,0,1-1.94-1.34c-.21-.17-.4-.36-.61-.54a.39.39,0,0,0-.62.06,6.41,6.41,0,0,0-1.16,2.17,1,1,0,0,0,.8,1.44,1.94,1.94,0,0,0,1.26,0,5.36,5.36,0,0,1,2.2-.36c.4,0,.46-.12.4-.44a1.05,1.05,0,0,1,0-.24,1.53,1.53,0,0,1,.49.45.6.6,0,0,0,.64.21,7.56,7.56,0,0,1,3.6-.05,3.93,3.93,0,0,1,1.71,1,21.17,21.17,0,0,0,1.75,1.52,1.42,1.42,0,0,1,.25.24.28.28,0,0,1,.07.35c-.09.12-.21,0-.31,0a27.76,27.76,0,0,0-6.83-1.63,9.59,9.59,0,0,0-6.73,1.78,3.46,3.46,0,0,0-1.27,1.61c-.12.29,0,.37.26.36a1.77,1.77,0,0,0,1.08-.47c.25-.21.36-.17.41.16,0,.13,0,.24.17.28s.19-.09.25-.17A4.55,4.55,0,0,1,91,260.63a1.84,1.84,0,0,1,1,0,4.39,4.39,0,0,0,2.84-.12,3.91,3.91,0,0,1,3.79.52,2.12,2.12,0,0,1,.65,2.87,8.1,8.1,0,0,0-1.46-1.52c-.08.08,0,.13,0,.19s0,.44-.14.52-.24-.18-.35-.3a4.17,4.17,0,0,0-1-.73,3.11,3.11,0,0,1,.44,1.68,3.83,3.83,0,0,1-.47,1.67,8.6,8.6,0,0,1-.64-1.48,2.29,2.29,0,0,0-1.27-1.48.87.87,0,0,0-.74,0,1.44,1.44,0,0,1-1.31-.08.49.49,0,0,0-.7.15,13.92,13.92,0,0,0-1.16,1.59l-.1-1.11a4.64,4.64,0,0,1-1.48.89c-.25.08-.55,0-.74.31a2.68,2.68,0,0,0-.31.75,1.6,1.6,0,0,1-.29-.71c-.07-.21-.18-.26-.37-.21a1.55,1.55,0,0,0-.69.34.85.85,0,0,1-.8.1c-.21,0-.18-.26-.24-.45a5.36,5.36,0,0,1-1.4.64c-.89.19-.9.2-1.06-.67a8.85,8.85,0,0,1,.47-5.06.82.82,0,0,0,0-.7,11.2,11.2,0,0,1-.68-2.05,1,1,0,0,0-.39-.65,2.72,2.72,0,0,1-.89-3.51c.7-1.74,1.3-3.51,1.87-5.29.29-.9.54-1.8.82-2.7a1.18,1.18,0,0,0-.08-1,3.66,3.66,0,0,1-.46-2.28,13.88,13.88,0,0,1,1.07-4.92,15,15,0,0,0,.7-2.05c0-.13,0-.3.16-.34.37-.11.26-.36.24-.61,0-.5-.06-1-.09-1.61l-1.58,2.15c.32,0,.6-.19,1-.05l-.75,1.21a30.43,30.43,0,0,0-2.42,5c-.38,1-.38,1,.63,1.06.23,0,.45.06.75.1l-.19.11a3.88,3.88,0,0,0-2.8,3.83,3.21,3.21,0,0,1-.54,1.65,7.87,7.87,0,0,0-1,1.91,22.68,22.68,0,0,1-1,2.51,6.29,6.29,0,0,0-.19,4.36c.33,1,.89,2,.65,3.21.21,0,.24-.12.31-.2a6.78,6.78,0,0,1,3.16-2.21.55.55,0,0,1,.22-.06.32.32,0,0,1,.34.14c.08.14-.08.19-.16.26a13,13,0,0,0-3,4.35.24.24,0,0,0,0,.24,5.1,5.1,0,0,1,2-1.09,14.38,14.38,0,0,0-.87,1.34,6.35,6.35,0,0,0-.17,5.5,29.5,29.5,0,0,1,1.67,6,1.76,1.76,0,0,1-.62,1.76,11.12,11.12,0,0,0-3.88,7.06c0,.12,0,.24,0,.35a6.78,6.78,0,0,0,0,.79,5,5,0,0,1,2.35-3,12.3,12.3,0,0,1-.73,2.65,12.75,12.75,0,0,0-.93,3.14,4.57,4.57,0,0,0,0,.65,2.87,2.87,0,0,1,1.61-1.58c-.1.57-.22,1.1-.29,1.63a12,12,0,0,0,2.53,9.07c1,1.33,2.07,2.63,3,4.05a6.48,6.48,0,0,1,1.05,4.14,9.28,9.28,0,0,0-2.75-2.76,2.66,2.66,0,0,0,.12,1,.33.33,0,0,1,0,.22c-.06.07-.14,0-.21,0a16.08,16.08,0,0,1-7.42-6.14,5.92,5.92,0,0,1-.45-.91,9.24,9.24,0,0,0-.93-2.12,3.36,3.36,0,0,1-.33-2.48,11.41,11.41,0,0,1,1.06-3.66,1,1,0,0,0,0-.86,8.28,8.28,0,0,1-.09-6.32,2.31,2.31,0,0,1-.92.7,15.65,15.65,0,0,1,0-3.49,15.21,15.21,0,0,1,3-7.55,4.11,4.11,0,0,0,.82-1.74,2.44,2.44,0,0,0-.22-1.75,5,5,0,0,1-.4-2.95,18.78,18.78,0,0,1,.66-4,2.28,2.28,0,0,0-.09-1.5,9.71,9.71,0,0,1,.16-7.78,14.94,14.94,0,0,0,1.53-5c0-.82.07-1.65,0-2.48a8.88,8.88,0,0,1,.71-3c.1.36.19.15.27,0a8.94,8.94,0,0,0,1.55-3.51,11.05,11.05,0,0,1,1.54-3.82,14.52,14.52,0,0,1,1.28-1.54,5.39,5.39,0,0,0,1.07-1.61,5.8,5.8,0,0,1,1.56-2.18A18.86,18.86,0,0,1,90.2,224a4.81,4.81,0,0,0,.84-.79,18,18,0,0,1,12.86-5.48,29.44,29.44,0,0,1,6.82.52,20.47,20.47,0,0,1,5.55,2.09,17.63,17.63,0,0,1,7.08,7.41,27.37,27.37,0,0,1,3.24,11.95,37.65,37.65,0,0,1-.23,5.72,8.7,8.7,0,0,0,.22,2.27,25.31,25.31,0,0,0,1.37,5.55,7.71,7.71,0,0,0,1.62,2.48,5.68,5.68,0,0,1,1.55,4.83,36.06,36.06,0,0,0-.11,6.57,3.65,3.65,0,0,0,1.47,2.74,12.36,12.36,0,0,1,3,3.2,10.12,10.12,0,0,1,1.15,8,4.28,4.28,0,0,1-.68,1.39,7,7,0,0,0-1.41,3.1,5.49,5.49,0,0,0,1.06,4.05,6,6,0,0,1,1.13,2.61,5,5,0,0,1-.59,3.09,9.28,9.28,0,0,1-.69,1.07c-.08.1-.18.22-.32.13s0-.17.06-.26.08-.14-.05-.16-.19-.2-.14-.35a5,5,0,0,0-1.2-4.91l-.23-.27c-.13.33-.25.64-.38.95s-.22.31-.4,0a4,4,0,0,1-.61-3.15c0-.08,0-.17.07-.35a3.71,3.71,0,0,0-.78,2.68,5.08,5.08,0,0,1-1.32-2.86,4.93,4.93,0,0,1,.74-3c.55-.95,1.12-1.89,1.58-2.88a8.47,8.47,0,0,0-.05-7.34,27.63,27.63,0,0,0-2.06-3.82c0,.69.08,1.38.13,2.06a1.31,1.31,0,0,1-.09.65c-.1.23-.21.31-.39,0a6.3,6.3,0,0,1-1-2.68c-.28.32-.18.78-.5,1.14A11.58,11.58,0,0,1,128.14,264ZM95.38,237.5c-.26,0-.51,0-.77,0a8.24,8.24,0,0,1-3.38-1,2.52,2.52,0,0,0-2.06-.21,13.1,13.1,0,0,0-1.8.79c-.08,0-.18.07-.2.17A3.75,3.75,0,0,1,86.1,239a.52.52,0,0,0,.11.86,1.28,1.28,0,0,0,1.28.16,3.54,3.54,0,0,1,3.25.37,2.74,2.74,0,0,0,1.05.46A1.42,1.42,0,0,1,93,242.12c0,.23,0,.38-.3.33s-.56,0-.84-.07-.33,0-.39.23a.75.75,0,0,1-.75.56,2.36,2.36,0,0,1-.84-.07c-.77-.16-.9-.33-.81-1.1,0-.19-.06-.26-.2-.24a3.15,3.15,0,0,0-1,.29,1.74,1.74,0,0,1,.74.64,1.94,1.94,0,0,0,1.9,1.08s0,0,0,.06a2,2,0,0,1-2.59.29c-.31-.18-.59-.41-.9-.6-.51-.3-.77-.18-.85.4a4.07,4.07,0,0,0,0,.5,6.22,6.22,0,0,1-.78,2.93,3.31,3.31,0,0,0,.08,3.78,1.71,1.71,0,0,1,.23,1.34,6.17,6.17,0,0,0,.33,3.82c.17.4.24.41.55.09a7.54,7.54,0,0,0,1.27-1.7A6.17,6.17,0,0,1,90,252.37a.6.6,0,0,0,.29-.39,1.52,1.52,0,0,1,.41-.83c-.07.53-.16,1-.18,1.47a2,2,0,0,0,1,1.95,2.08,2.08,0,0,0,2.33.11,4.44,4.44,0,0,1,2.8-.7,1.41,1.41,0,0,0,1.54-1.64.42.42,0,0,0-.29-.41,4,4,0,0,0-1.45-.35,1.17,1.17,0,0,1-1.09-1.69,1.35,1.35,0,0,0,.09-.6,13.22,13.22,0,0,1,.23-4,1.68,1.68,0,0,0-.19-1.33.75.75,0,0,1,.12-1,2.22,2.22,0,0,1,.49-.38c.16-.09.34-.19.29-.46-.18.05-.4.23-.49,0a.39.39,0,0,1,.3-.51,2.73,2.73,0,0,0,.6-.34,8.54,8.54,0,0,1,5-1.29,11.89,11.89,0,0,1,3.62.91,5.11,5.11,0,0,0,3.45.16.32.32,0,0,0,.28-.38,1.84,1.84,0,0,1,.83-1.93,7.21,7.21,0,0,1-1.88-.67,2.11,2.11,0,0,0-1.07-.28c-.56,0-1.11,0-1.67,0a32.4,32.4,0,0,0-4.27.46c-.24,0-.49.07-.62-.27l.85-.12a22.62,22.62,0,0,0,2.33-.57,9.11,9.11,0,0,1,6.74.91,3.93,3.93,0,0,0,1.53.41,2.43,2.43,0,0,0,1.73-.69,7.23,7.23,0,0,1-2.63-1.84,1.32,1.32,0,0,0-.93-.35c-1.49,0-3,0-4.48.12-1,.08-2,.19-3,.28a1.27,1.27,0,0,1-1-.24c.71,0,1.37,0,2-.12a32.25,32.25,0,0,0,3.51-.76,5.45,5.45,0,0,1,5.58,1.62,13.9,13.9,0,0,0,1.06,1c.09.07.18.19.3.15.41-.14.69.1,1,.33a2.66,2.66,0,0,0,.77.43c.13,0,.29.17.4.07s0-.26,0-.39a1.72,1.72,0,0,1,1.51-2.4l.3-.05c.7-.15.91-.5.67-1.18a8.54,8.54,0,0,1-.45-1.72c-.13-.91,0-1.1.83-1.42a.38.38,0,0,0,.27-.51,2.43,2.43,0,0,0-1.56-1.91,1.56,1.56,0,0,1-.51-.27c-.19-.18-.24-.32.08-.42a3.88,3.88,0,0,1,1.79-.2,5.55,5.55,0,0,1,2,.77.63.63,0,0,0-.08-.39,16,16,0,0,0-1.89-3.62,16.84,16.84,0,0,0-3.57-3.68,9.5,9.5,0,0,1-2.13-1.65.39.39,0,0,0-.24-.12,22.59,22.59,0,0,0-4.14-1,25.12,25.12,0,0,0-9.18.57,17.45,17.45,0,0,0-8.22,4.24,1.13,1.13,0,0,0-.34.53,5.21,5.21,0,0,1-.94,1.71,8.82,8.82,0,0,0-1.54,2.61c0,.08-.1.22,0,.23.42,0,.17.27.14.43a5.08,5.08,0,0,1-.17.51c-.34.95-.74,1.87-1,2.84-.37,1.29.41,2.09,1.72,1.86a5,5,0,0,1,2.41,0,17.64,17.64,0,0,0,3.67.78,20.83,20.83,0,0,0,2.5,0,7.19,7.19,0,0,1-2.63.54,10.28,10.28,0,0,1-3.59-.7,4.37,4.37,0,0,0-2.7,0c-.79.24-1.24,1-1.93,1.35,0,0-.07.11-.11.16a.29.29,0,0,0,0,.33c.08.12.18,0,.28,0a11.83,11.83,0,0,0,1.8-.59,1.05,1.05,0,0,1,.56-.08,18.77,18.77,0,0,1,2.77.52A11.62,11.62,0,0,1,95.38,237.5Z" transform="translate(-65.58 -19.4)"/><path class="q" d="M93.49,276.56a11.58,11.58,0,0,1,0,2c0,.79-.08,1.57-.14,2.36a7.25,7.25,0,0,0,1.06,4.54,20.44,20.44,0,0,0-.41-2.87A3.72,3.72,0,0,1,95.29,284a5.82,5.82,0,0,1,.32,5.05,8.74,8.74,0,0,0-.57,4.55,4.6,4.6,0,0,0,.28,1.09,13.76,13.76,0,0,1,1.2,3.95c.12-.28.2-.47.29-.65a2.24,2.24,0,0,1,.75-.92c.89-.63,1.5-.49,2,.46a5.79,5.79,0,0,1,.54,1.63,4.5,4.5,0,0,0,.91-3.34,1.11,1.11,0,0,1,.56.57,3.78,3.78,0,0,1,.3,2.56.91.91,0,0,1-.4.58,5,5,0,0,0-1.93,3,16,16,0,0,0-.41,2.28,1.92,1.92,0,0,1-.18.75c-.07.11-.12.29-.3.27a.4.4,0,0,1-.31-.31c0-.07,0-.14-.07-.29a7.26,7.26,0,0,0-.35.8c-.08.22-.16.2-.33.09a1.78,1.78,0,0,1-.66-2.37c.2-.46.52-.84.75-1.27a3.54,3.54,0,0,0,.29-2.71,9.9,9.9,0,0,1-4.35,5.71l.27-.79a20.08,20.08,0,0,0,1-4.38,5.84,5.84,0,0,0-.4-2.92,6.23,6.23,0,0,1-.45-1.76c-.28.35-.23.77-.4,1.17a5.53,5.53,0,0,1-.74-1.45,6.92,6.92,0,0,1-.24-4.29,11.18,11.18,0,0,1,.68-2,1.29,1.29,0,0,0,0-1.22A12,12,0,0,1,92,281.18,9.92,9.92,0,0,1,93.49,276.56Z" transform="translate(-65.58 -19.4)"/><path class="q" d="M110.87,303.39a4.49,4.49,0,0,1,.34-3.5,5,5,0,0,0-1.14,1.77,6.33,6.33,0,0,0-.47,2.14,8.58,8.58,0,0,0,.2,2.22,4.27,4.27,0,0,1-1.86-4,4,4,0,0,1,1-2.28,8.58,8.58,0,0,0,1.32-2.09.74.74,0,0,0,0-.55,10.19,10.19,0,0,1,.54-8,9.18,9.18,0,0,0,.79-5.06c0-.51-.1-1-.11-1.54a7,7,0,0,1,.68,2.14,10.71,10.71,0,0,1-.57,5.82,9.64,9.64,0,0,0-.37,6.07,3.9,3.9,0,0,1,.34,1.65c0,.17.08.17.2.12l.8-.38c.13-.06.13-.19.16-.3a24.74,24.74,0,0,0,.71-4.44,3.41,3.41,0,0,1,.94-2.28,4.84,4.84,0,0,0,1.23-4.93A13.94,13.94,0,0,0,113,280.5a6.87,6.87,0,0,1-1.33-6.4,9,9,0,0,1,.93-1.86A13,13,0,0,0,113.8,269a20.48,20.48,0,0,0,.34-2.71,15,15,0,0,1,.13,3.61,16.33,16.33,0,0,1-1,4.23,6.19,6.19,0,0,0,.36,5.1c1.09,2.12,2.16,4.25,3.23,6.38a4.68,4.68,0,0,1,0,4.32c-.5,1.06-1.15,2-1.65,3.1a19.53,19.53,0,0,0-.8,2.26c-.22.66-.41,1.32-.6,2a.78.78,0,0,1-.17.34,12,12,0,0,0-2.41,4.63C111.11,302.58,111,302.94,110.87,303.39Z" transform="translate(-65.58 -19.4)"/><path class="q" d="M120.34,296.13a15,15,0,0,1,2.54-.75c-.85.43-1.69.87-2.55,1.28s-1.84.87-2.77,1.29a7.6,7.6,0,0,0-3.53,3.76c-.26.52-.49,1.05-.76,1.66a5.79,5.79,0,0,1,.09-1.92,7,7,0,0,1,4.72-5.6,2.24,2.24,0,0,0,1.07-.8,9.5,9.5,0,0,0,1-10.62c-1.05-2.17-2.18-4.3-3.15-6.51a9.14,9.14,0,0,1,.35-8.21,5.62,5.62,0,0,0,.81-3.14,5.18,5.18,0,0,0-2.39-4,.49.49,0,0,1-.13-.12,6.76,6.76,0,0,1,2.87,2,2.74,2.74,0,0,1,.53,2.23,13.94,13.94,0,0,1-1.79,4.84,4.85,4.85,0,0,0-.37,4.41,25,25,0,0,0,1.87,3.64c1,1.84,2,3.71,2.9,5.6.15.31.27.64.44,1.07-.06-.79-.46-1.48,0-2.2a7.18,7.18,0,0,1,.72,1.93,6.7,6.7,0,0,1-.28,3.81,1.51,1.51,0,0,0-.11.56,8,8,0,0,1-1.68,5.12C120.65,295.65,120.53,295.85,120.34,296.13Z" transform="translate(-65.58 -19.4)"/><path class="q" d="M86.69,295.2v-1.27c0-.24.09-.3.3-.15A4.3,4.3,0,0,1,88.63,296a1.87,1.87,0,0,0,.07.22c0,.1.08.2.17.4a9.84,9.84,0,0,0,.07-1.58.15.15,0,0,1,.19.09,16.83,16.83,0,0,1,2.54,6.18,5.6,5.6,0,0,1-1,4.26s-.07.06-.15.14a19,19,0,0,0-2.87-8.7,4.37,4.37,0,0,0,.62,2.23,1.1,1.1,0,0,1-.88-.22,3.46,3.46,0,0,1-1-1.09,22.33,22.33,0,0,1-3.44-7.52,14,14,0,0,1-.33-3.88c0-.29,0-.61.45-.64.16,0,.14-.2.17-.31.33-1.24.64-2.47,1-3.71,0-.1,0-.31.19-.27s.13.21.1.35a16.33,16.33,0,0,0,1.11,10.62c.38.86.68,1.75,1,2.62Z" transform="translate(-65.58 -19.4)"/><path class="q" d="M124.46,274.68c-.84.46-1.22.33-1.33-.56a36,36,0,0,1-.52-6.47,6.17,6.17,0,0,1,.23-1.49,11,11,0,0,0,.1-5.51,15.42,15.42,0,0,0-2.13-5.44,9.28,9.28,0,0,0-1-1.17c.06-.08.1-.06.15,0a9.78,9.78,0,0,1,4.37,5.47,11.5,11.5,0,0,1,.11,5.47q-.39,2.1-.72,4.2a3.93,3.93,0,0,0,.31,2.29c.23-1.14.13-2.36,1.2-3.23,0,.7-.11,1.29-.13,1.87a20.82,20.82,0,0,0,1.28,7.78,3.87,3.87,0,0,1,0,2.84.79.79,0,0,1-.25.41A27.39,27.39,0,0,0,124.46,274.68Z" transform="translate(-65.58 -19.4)"/><path class="q" d="M126.23,298.71a10.37,10.37,0,0,0-.23-8.16l-.1.23a4.79,4.79,0,0,1,.1-3.13c.35-1,.78-2,1.15-3,.52-1.4,1-2.8,1.53-4.21a6.33,6.33,0,0,0-.84-5.86,8.7,8.7,0,0,0-.87-1.13,1.18,1.18,0,0,1-.28-1,6.25,6.25,0,0,1,1.14.95,7.28,7.28,0,0,1,2.06,4.87,10.39,10.39,0,0,1-1.61,6.38,6.33,6.33,0,0,0-1,4.94,1.38,1.38,0,0,0,.28.52,7,7,0,0,1,1.39,4.65,5.09,5.09,0,0,1-.65,2.44A3.59,3.59,0,0,1,126.23,298.71Z" transform="translate(-65.58 -19.4)"/><path class="q" d="M87.52,281.19a12.32,12.32,0,0,0-1.66,1.94c-.62-1.75,1.65-7.61,3.24-8.32a6,6,0,0,1-.55,1.69c-.39.86-1,1.61-1.31,2.5a6.74,6.74,0,0,0-.41,1.39,4.55,4.55,0,0,1,2.38-1.51,14.36,14.36,0,0,0-1.14,5.67,11,11,0,0,0,1.28,5.51l.1,0c0-.61.07-1.22.12-1.83,0-.24,0-.58.26-.62s.19.32.25.5a24.18,24.18,0,0,1,1.08,6.42,1.07,1.07,0,0,1-.5,1.12,18,18,0,0,0-1.17-3.36,17.34,17.34,0,0,0-2-3.33,5.16,5.16,0,0,1-1-4.24A19,19,0,0,1,87.52,281.19Z" transform="translate(-65.58 -19.4)"/><path class="q" d="M99.59,268.77a7.43,7.43,0,0,1,.8,2.63,10.21,10.21,0,0,1-.57,4.42c-.18.56-.35,1.13-.55,1.69a.85.85,0,0,0,0,.7c.78,1.6,1.48,3.24,2.14,4.89a2.19,2.19,0,0,1,.14,1.13,5.06,5.06,0,0,0,1.5,4.34,3,3,0,0,1,.91,1.75,5.3,5.3,0,0,1-.81,3.77c-.06.1-.12.26-.28.19s0-.23,0-.33a4.59,4.59,0,0,0-.61-4.17,11.21,11.21,0,0,0-1.31-1.67,3.71,3.71,0,0,1-1-3.68,4.18,4.18,0,0,0-.77-3.83,6.58,6.58,0,0,1-1.32-3.05,3,3,0,0,1,.27-1.7,10.2,10.2,0,0,1,1.59-2.55c.13-.15.24-.27.08-.46s0-.15,0-.22A13.46,13.46,0,0,0,99.59,268.77Z" transform="translate(-65.58 -19.4)"/><path class="q" d="M120.64,269.16c-.22.88-.46,1.75-.59,2.64a7,7,0,0,0,2.22,6.27,20.52,20.52,0,0,1,1.65,1.58,4.69,4.69,0,0,1,1,3.31c-.08,1.27-.18,2.53-.28,3.79a15.82,15.82,0,0,0,.76,6,3.55,3.55,0,0,1-1.86,4.27l.31-.59a7.77,7.77,0,0,0,.93-2.85,3.28,3.28,0,0,0-.31-1.85,7.7,7.7,0,0,1-.69-4.93,7.83,7.83,0,0,0-1-5.39c-.69-1.18-1.34-2.39-2.12-3.51a8.05,8.05,0,0,1-1.21-6.82A5.77,5.77,0,0,1,120.64,269.16Z" transform="translate(-65.58 -19.4)"/><path class="q" d="M109,285a4.67,4.67,0,0,1-.82,2.7,2.56,2.56,0,0,0-.4,1.19,23.78,23.78,0,0,0,.25,6.36,2.17,2.17,0,0,1-.21,1.39,14.21,14.21,0,0,1-3.12,4.24,2.88,2.88,0,0,0-.79,3.34,5.7,5.7,0,0,0,1.3,2.11,3.3,3.3,0,0,1-2.15-3,6.73,6.73,0,0,1,3-6.61,1.86,1.86,0,0,0,.92-1.91,24,24,0,0,0-.59-3.47,4.15,4.15,0,0,1,.39-3.25,17.34,17.34,0,0,1,1.24-1.91C108.34,285.78,108.66,285.4,109,285Z" transform="translate(-65.58 -19.4)"/><path class="q" d="M108,269.47a1.74,1.74,0,0,1-.4,1.58c-.34.49-.7,1-1,1.48a5.61,5.61,0,0,0-.34,5.3,9.8,9.8,0,0,0,2.51,3.07,5.61,5.61,0,0,1,2,3.13,5.33,5.33,0,0,1-.47,3.31.74.74,0,0,1-.72.52,1,1,0,0,1,.18-.43,4.43,4.43,0,0,0-1.23-5.88,10.25,10.25,0,0,1-2.38-2.2,10.69,10.69,0,0,0-.22,1.95,14.63,14.63,0,0,0,.58,4.55c.06.23.25.58-.06.68s-.3-.31-.39-.5a18.45,18.45,0,0,1-1.76-8.1,10.56,10.56,0,0,1,2.3-6.63c.38-.48.68-1,1-1.49C107.79,269.7,107.85,269.54,108,269.47Z" transform="translate(-65.58 -19.4)"/><path class="q" d="M130.93,296.5a8.4,8.4,0,0,0,0-2.55,2.93,2.93,0,0,0-.72-1.55c-.28-.32-.53-.67-.81-1a4.29,4.29,0,0,1-1.09-2.77,9,9,0,0,1,2-6.18,9.33,9.33,0,0,1,.68-.73,1.46,1.46,0,0,1,.25-.19,2.06,2.06,0,0,1-.28,1.17,8.45,8.45,0,0,1-.74,1.13,4.51,4.51,0,0,0,.36,6,6.19,6.19,0,0,1,1.61,4.46A2.53,2.53,0,0,1,130.93,296.5Z" transform="translate(-65.58 -19.4)"/><path class="q" d="M91.1,281a5.55,5.55,0,0,1-1-3.63,9,9,0,0,1,.47-2.18c.06-.21.11-.42.16-.64a.83.83,0,0,0-.23-.83,1.81,1.81,0,0,1,0-2.58,4.79,4.79,0,0,0,.38-5.94c-.06-.1-.22-.22-.07-.33s.19.1.25.18a5.47,5.47,0,0,1,1.2,4.78,6,6,0,0,1-1,2.2c-.14.18-.11.28.06.41a2.24,2.24,0,0,1,.74,2.47,1.87,1.87,0,0,1-.07.22,9.76,9.76,0,0,0-.76,4.07C91.21,279.78,91.15,280.38,91.1,281Z" transform="translate(-65.58 -19.4)"/><path class="q" d="M82.57,278.72a3.5,3.5,0,0,1,.8-1.42A5.6,5.6,0,0,0,85,274.42a5.1,5.1,0,0,0,0-1.35,11.38,11.38,0,0,1,1.48-6.58,1.14,1.14,0,0,1,.36-.46c0,.73,0,1.42,0,2.11a23.7,23.7,0,0,1-.36,5.39A7.71,7.71,0,0,1,82.57,278.72Z" transform="translate(-65.58 -19.4)"/><path class="q" d="M94.71,279.28a3.82,3.82,0,0,1-.27-2.5c.2-1,.44-1.93.67-2.9a.73.73,0,0,1,.6-.63c.06.2-.09.39,0,.63a6,6,0,0,0,.25-1.2,11.16,11.16,0,0,0-.38-5c-.18-.59-.62-1.07-.78-1.68a6.76,6.76,0,0,0-.74-1.59c.2.39.66.44.91.8a12.39,12.39,0,0,1,2.35,7.16,5.13,5.13,0,0,1-1,3.05,8.59,8.59,0,0,0-1.57,3.61A1.06,1.06,0,0,1,94.71,279.28Z" transform="translate(-65.58 -19.4)"/><path class="q" d="M134.46,293.14a4.84,4.84,0,0,1,.06,2.39c-.14.64-.48,1.21-.64,1.85a1,1,0,0,1-.42.54c-.64.45-1.21,1-1.81,1.49a5.52,5.52,0,0,1-2.4,1.37,8.86,8.86,0,0,0-3.68,1.86,4.7,4.7,0,0,1-3,1c.05-.16.21-.19.32-.25a23.43,23.43,0,0,0,3.86-2.77,4.47,4.47,0,0,1,2.32-1.07,7,7,0,0,0,3.39-1.39,5.09,5.09,0,0,0,1.91-4.12A2.21,2.21,0,0,1,134.46,293.14Z" transform="translate(-65.58 -19.4)"/><path class="q" d="M82.11,244.18c-.75,1.76-1.78,3.4-2.58,5.23a7.39,7.39,0,0,1,2.36-.6,12.56,12.56,0,0,0-3.21,6.74c-.46-.93-.08-2.88,1-4.93l-1.32,1A11,11,0,0,1,82.11,244.18Z" transform="translate(-65.58 -19.4)"/><path class="q" d="M92,244.84c-.18,1.28-.76,1.66-1.7,1.75a2.11,2.11,0,0,1-2.26-.92,2.24,2.24,0,0,0-1.14-.77c-.12-.05-.31-.07-.25-.27s.21-.09.34-.07a3.42,3.42,0,0,1,1.84.91,1.55,1.55,0,0,0,1.49.4A2.43,2.43,0,0,0,92,244.84Z" transform="translate(-65.58 -19.4)"/><path d="M65.58,749.54c.08-.1.16-.28.22-.28a9.15,9.15,0,0,1,.91.18c-.07.1-.15.3-.21.29A7.52,7.52,0,0,1,65.58,749.54Z" transform="translate(-65.58 -19.4)"/><path class="r" d="M96.25,495.62a.74.74,0,0,1,.6-.68c2.7-.53,3-2.19,2.2-4.47a3.85,3.85,0,0,1,.16-3.14,7.09,7.09,0,0,0,.29-2.87c.11-3.61-.59-4.56-4.09-5.23-1-.19-1.17-.37-.83-1.32.44-1.21-.17-2.26-.81-3.27-1.72-2.7-1.47-4.56.85-6.64a3.24,3.24,0,0,0,.7-.68c1.59-2.82,4.29-4,7.19-4.89,1.84-.57,3.6-1.47,5.47-1.91,5.79-1.36,10.54.88,14.71,4.69a29.2,29.2,0,0,0,4.71,3.72,8.51,8.51,0,0,1,1.89,1.66c2.65,2.9,1.63,6.22-2.22,7.18a8.67,8.67,0,0,0-3.33,1.5,1.35,1.35,0,0,1-1.43.32c-.58-.29-.37-.92-.34-1.4.34-5-1.39-7.08-6.44-7.53-1.87-.17-3.75-.26-5.63-.29-2.85,0-8.63,3.68-8.29,6.11.42,3-1.43,6.59,1.59,9.21a6.36,6.36,0,0,1,1.43,2.51c.87,2,2.88,2.39,4.48.87.37-.35.81-.93,1.2-.92,1.86.08,2.55-1.73,4-2.32.51-.21.69-.31.68,0-.06,1.48,1.14,1.13,1.89,1.33a3.46,3.46,0,0,1,2.32,1.22c.73,1.08,1.83.91,2.52-.27s.58-2.32.9-3.49c.05,3.31,1.64,6.32,1.6,9.66a25,25,0,0,1-.84,7.64,8.69,8.69,0,0,1-10.47,5.93,18.87,18.87,0,0,0,4,2.85c.6.39,1.26.68,1.83,1.09,1.2.84,2.1,1.93,1.36,3.43s-2.28,1.51-3.71,1c-1.21-.4-2.37-.93-3.73-1.32.76.94,1.36,1.68-.13,2.4-.75.36-.24.94.25,1.36,3,2.58,3.54,8.9,1,12a2.88,2.88,0,0,1-1.42,1,16.59,16.59,0,0,1-5.93.84,4.41,4.41,0,0,1-4.33-4.38,14,14,0,0,1,.56-4.41c.3-1.26.57-2.53.85-3.79.12-.58.24-1.28-.43-1.53-.84-.31-1.06.48-1.34,1A18.65,18.65,0,0,0,99.6,527c-.15,3.95-1.92,5.16-5.43,3.43-4.84-2.38-10.3-3.68-14.14-7.87a65.65,65.65,0,0,1-4.65-5.22c-2.45-3.28-2-6.28,1.47-8.39,4.85-3,9.76-5.86,14.67-8.75a6.14,6.14,0,0,0,2.61-2.51A4,4,0,0,1,96,495.8a6.86,6.86,0,0,0-.78,6.12,56.71,56.71,0,0,1,1.87,7.13c.47,3.78,3.18,5.31,6,6.85a.92.92,0,0,0,1.23-.19c.4-.45.13-.84-.23-1.16-.69-.59-1.44-1.11-2.07-1.75s-1.07-1.78,0-2.49c2.17-1.42,4.39-2.74,7.15-2.62a3,3,0,0,0,2-.31c-1-1.21-2.54-1.56-3.52-2.56s-1.93-2.27-2.9-3.39c-1.56-1.79-2.44-4-4.15-5.81-1.4-1.46-1.61-.4-2.1.38a2.88,2.88,0,0,0,0,2.79c.22.52.7,1,.61,1.82-1.21-1.5-2.13-2.82-1.93-4.7C97.45,494.61,96.61,495.74,96.25,495.62Z" transform="translate(-65.58 -19.4)"/><path class="r" d="M125.1,498.24a3.47,3.47,0,0,1,2.28,1.75c1.75,4.09,4.62,7.46,7,11.14,5.73,8.77.3,20.7-9.94,21.86a10.12,10.12,0,0,1-2.13,0c-3.48-.36-4.49-1.67-3.68-5a8.11,8.11,0,0,0-.42-5.65c-1.08-2.31-.77-2.89,1.47-4a1.8,1.8,0,0,0,1.08-1.06c.32-1.19.85-1.67,2.22-1.23,1,.31,1.21-.68,1.4-1.46a36.06,36.06,0,0,0,.78-15.19A10.1,10.1,0,0,1,125.1,498.24Z" transform="translate(-65.58 -19.4)"/><path class="r" d="M112.4,479.3c-.82-.65-1.34-1.7-2.32-.05-.55.92-2-.84-2.89.21a3.9,3.9,0,0,1,3.68-1.52C111.76,478,112.46,478.19,112.4,479.3Z" transform="translate(-65.58 -19.4)"/><path class="r" d="M111.12,476.25a23.42,23.42,0,0,0-4.31.75C108.33,474.84,109.74,475.68,111.12,476.25Z" transform="translate(-65.58 -19.4)"/><path class="r" d="M105.72,505.22a6,6,0,0,1-3.82-2.17A7.76,7.76,0,0,1,105.72,505.22Z" transform="translate(-65.58 -19.4)"/><text class="s" transform="translate(93.19 352.96)">Vincent<tspan x="0" y="21.6">Van Gogh</tspan></text><text class="s" transform="translate(93.19 469.3)">Claude<tspan x="0" y="21.6">Monet</tspan></text><text class="s" transform="translate(90.49 118.97)">Pablo<tspan x="0" y="21.6">Picasso</tspan></text><text class="s" transform="translate(93.19 234.74)">Leonardo<tspan x="0" y="21.6">Da Vinci</tspan></text></svg>