<svg xmlns="http://www.w3.org/2000/svg" viewBox="0 0 791.66 1809.11"><defs><style>.a,.b,.c,.d,.e,.f,.j{fill:none;}.a{stroke:#2196f3;}.a,.c,.d{stroke-miterlimit:10;}.a,.b,.c,.d{stroke-width:3px;}.b{stroke:#f44436;}.b,.e,.f,.j{stroke-linejoin:round;}.c{stroke:#ffca27;}.d{stroke:#44a047;}.e{stroke:#c6c6c6;}.e,.f,.j{stroke-width:1.07px;}.f{stroke:#333;}.g,.h,.l{font-size:24px;}.g{fill:#727271;font-family:Roboto-Regular, Roboto;}.h,.i,.k,.l{fill:#4d4d4d;}.h,.k{font-family:Caveat-Regular, Caveat;}.j{stroke:#c1c1c1;opacity:0.57;}.k{font-size:21px;}.l{font-family:Caveat-Bold, Caveat;font-weight:700;}</style></defs><title>Asset 3</title><polyline class="a" points="232.21 152.37 243.68 158.56 174.87 164.76 169.13 170.93 215 177.13 232.21 183.32 226.47 189.51 226.47 195.71 220.74 201.9 226.47 208.09 232.21 214.29 232.21 220.46 232.21 226.66 226.47 232.85 215 239.05 226.47 245.24 220.74 251.43 237.94 257.63 215 263.8 237.94 270 243.68 276.19 237.94 282.38 220.74 288.58 215 294.77 220.74 300.97 192.06 307.14 180.6 313.33 249.41 319.53 174.87 325.72 163.41 331.92 169.13 338.11 163.41 344.31 174.87 350.5 180.6 356.67 163.41 362.87 192.06 369.06 180.6 375.25 186.34 381.45 197.81 387.64 215 393.84 220.74 400.01 220.74 406.2 237.94 412.4 220.74 418.59 237.94 424.79 232.21 430.98 249.41 437.18 226.47 443.37 232.21 449.54 232.21 455.74 197.81 461.93 260.88 468.13 272.35 474.32 249.41 480.51 203.53 486.71 209.28 492.88 255.15 499.08 266.61 505.27 260.88 511.46 243.68 517.66 255.15 523.85 249.41 530.05 226.47 536.24 249.41 542.41 243.68 548.61 237.94 554.8 232.21 561 237.94 567.19 215 573.38 226.47 579.58 249.41 585.75 226.47 591.95 243.68 598.14 243.68 604.34 427.15 610.53 266.61 616.72 215 622.92 197.81 629.09 186.34 635.29 169.13 641.48 157.66 647.67 174.87 653.87 174.87 660.06 163.41 666.26 197.81 672.45 169.13 678.62 169.13 684.82 180.6 691.01 180.6 697.21 203.53 703.4 220.74 709.59 215 715.79 237.94 721.96 232.21 728.16 243.68 734.35 243.68 740.54 237.94 746.74 243.68 752.93 249.41 759.13 243.68 765.32 255.15 771.5 260.88 777.69 203.53 783.88 232.21 790.08 237.94 796.27 220.74 802.47 197.81 808.66 186.34 814.83 209.28 821.03 220.74 827.22 215 833.41 237.94 839.61 232.21 845.8 243.68 852 255.15 858.19 237.94 864.37 232.21 870.56 232.21 876.75 226.47 882.95 226.47 889.14 215 895.34 226.47 901.53 237.94 907.7 237.94 913.9 237.94 920.09 237.94 926.29 237.94 932.48 220.74 938.67 209.28 944.87 192.06 951.04 174.87 957.24 163.41 963.43 163.41 969.63 157.66 975.82 163.41 982.01 180.6 988.21 163.41 994.4 157.66 1000.58 163.41 1006.77 151.94 1012.96 163.41 1019.16 174.87 1025.35 186.34 1031.55 197.81 1037.74 209.28 1043.91 220.74 1050.11 266.61 1056.3 209.28 1062.49 209.28 1068.69 220.74 1074.88 232.21 1081.08 215 1087.27 197.81 1093.45 232.21 1099.64 186.34 1105.83 215 1112.03 232.21 1118.22 220.74 1124.42 174.87 1130.61 163.41 1136.78 186.34 1142.98 197.81 1149.17 220.74 1155.37 215 1161.56 215 1167.75 232.21 1173.95 215 1180.14 215 1186.32 232.21 1192.51 249.41 1198.7 226.47 1204.9 226.47 1211.09 232.21 1217.29 220.74 1223.48 209.28 1229.65 232.21 1235.85 243.68 1242.04 226.47 1248.24 226.47 1254.43 215 1260.63 203.53 1266.82 192.06 1272.99 174.87 1279.19 169.13 1285.38 169.13 1291.58 163.41 1297.77 169.13 1303.96 174.87 1310.16 163.41 1316.35 163.41 1322.53 192.06 1328.72 174.87 1334.91 163.41 1341.11 180.6 1347.3 180.6 1353.5 186.34 1359.69 192.06 1365.86 203.53 1372.06 209.28 1378.25 203.53 1384.45 203.53 1390.64 220.74 1396.84 243.68 1403.03 215 1409.22 220.74 1415.4 226.47 1421.59 180.6 1427.79 215 1433.98 220.74 1440.17 209.28 1446.37 192.06 1452.56 180.6 1458.73 186.34 1464.93 203.53 1471.12 209.28 1477.32 220.74 1483.51 220.74 1489.7 226.47 1495.9 237.94 1502.09 283.81 1508.27 220.74 1514.46 232.21 1520.66 215 1526.85 226.47 1533.04 237.94 1539.24 255.15 1545.43 289.55 1551.61 335.42 1557.8 518.89 1563.99 415.69 1570.19 375.56 1576.38 358.36 1582.58 306.75 1588.77 295.27 1594.96 272.35 1601.14 272.35 1607.33 283.81 1613.53 215 1619.72 197.81 1625.91 197.81 1632.11 192.06 1638.3 192.06 1644.48 174.87 1650.67 174.87 1656.87 186.34 1663.06 197.81 1669.25 209.28 1675.45 209.28 1681.64 203.53 1687.82 215 1694.01 220.74 1700.2 215 1706.4 215 1712.59 215 1718.79 226.47 1724.98 209.28 1731.17 203.53 1737.35 203.53 1743.54 180.6 1749.74 215 1755.93 203.53 1762.12"/><polyline class="b" points="255.15 152.37 237.94 158.56 192.06 164.76 226.47 170.93 232.21 177.13 249.41 183.32 220.74 189.51 243.68 195.71 249.41 201.9 237.94 208.09 232.21 214.29 272.35 220.46 255.15 226.66 249.41 232.85 289.55 239.05 289.55 245.24 283.81 251.43 306.75 257.63 278.07 263.8 289.55 270 312.49 276.19 301.01 282.38 295.27 288.58 278.07 294.77 249.41 300.97 266.61 307.14 220.74 313.33 180.6 319.53 192.06 325.72 174.87 331.92 215 338.11 192.06 344.31 174.87 350.5 169.13 356.67 163.41 362.87 180.6 369.06 197.81 375.25 203.53 381.45 220.74 387.64 220.74 393.84 232.21 400.01 237.94 406.2 232.21 412.4 237.94 418.59 226.47 424.79 220.74 430.98 237.94 437.18 255.15 443.37 249.41 449.54 243.68 455.74 203.53 461.93 278.07 468.13 318.21 474.32 278.07 480.51 226.47 486.71 226.47 492.88 289.55 499.08 289.55 505.27 278.07 511.46 278.07 517.66 266.61 523.85 266.61 530.05 249.41 536.24 266.61 542.41 266.61 548.61 260.88 554.8 255.15 561 260.88 567.19 232.21 573.38 237.94 579.58 272.35 585.75 249.41 591.95 249.41 598.14 278.07 604.34 283.81 610.53 260.88 616.72 237.94 622.92 220.74 629.09 197.81 635.29 180.6 641.48 169.13 647.67 157.66 653.87 157.66 660.06 174.87 666.26 163.41 672.45 163.41 678.62 163.41 684.82 163.41 691.01 180.6 697.21 197.81 703.4 215 709.59 226.47 715.79 237.94 721.96 243.68 728.16 243.68 734.35 232.21 740.54 226.47 746.74 243.68 752.93 266.61 759.13 249.41 765.32 255.15 771.5 266.61 777.69 197.81 783.88 255.15 790.08 260.88 796.27 260.88 802.47 232.21 808.66 237.94 814.83 260.88 821.03 260.88 827.22 243.68 833.41 249.41 839.61 249.41 845.8 237.94 852 243.68 858.19 243.68 864.37 260.88 870.56 243.68 876.75 237.94 882.95 220.74 889.14 232.21 895.34 232.21 901.53 266.61 907.7 237.94 913.9 237.94 920.09 237.94 926.29 249.41 932.48 243.68 938.67 215 944.87 186.34 951.04 192.06 957.24 163.41 963.43 174.87 969.63 157.66 975.82 157.66 982.01 151.94 988.21 151.94 994.4 157.66 1000.58 163.41 1006.77 169.13 1012.96 163.41 1019.16 192.06 1025.35 197.81 1031.55 203.53 1037.74 203.53 1043.91 226.47 1050.11 209.28 1056.3 220.74 1062.49 215 1068.69 220.74 1074.88 249.41 1081.08 237.94 1087.27 203.53 1093.45 220.74 1099.64 174.87 1105.83 220.74 1112.03 232.21 1118.22 243.68 1124.42 180.6 1130.61 169.13 1136.78 209.28 1142.98 220.74 1149.17 220.74 1155.37 237.94 1161.56 249.41 1167.75 232.21 1173.95 226.47 1180.14 209.28 1186.32 232.21 1192.51 232.21 1198.7 209.28 1204.9 226.47 1211.09 209.28 1217.29 232.21 1223.48 215 1229.65 232.21 1235.85 226.47 1242.04 232.21 1248.24 243.68 1254.43 220.74 1260.63 215 1266.82 186.34 1272.99 180.6 1279.19 163.41 1285.38 151.94 1291.58 157.66 1297.77 151.94 1303.96 169.13 1310.16 151.94 1316.35 157.66 1322.53 151.94 1328.72 157.66 1334.91 174.87 1341.11 174.87 1347.3 180.6 1353.5 180.6 1359.69 197.81 1365.86 209.28 1372.06 220.74 1378.25 209.28 1384.45 226.47 1390.64 289.55 1396.84 237.94 1403.03 237.94 1409.22 220.74 1415.4 633.58 1421.59 272.35 1427.79 249.41 1433.98 260.88 1440.17 260.88 1446.37 209.28 1452.56 192.06 1458.73 186.34 1464.93 232.21 1471.12 220.74 1477.32 237.94 1483.51 232.21 1489.7 232.21 1495.9 226.47 1502.09 215 1508.27 232.21 1514.46 209.28 1520.66 215 1526.85 215 1533.04 215 1539.24 215 1545.43 237.94 1551.61 226.47 1557.8 226.47 1563.99 243.68 1570.19 237.94 1576.38 226.47 1582.58 209.28 1588.77 192.06 1594.96 186.34 1601.14 169.13 1607.33 174.87 1613.53 151.94 1619.72 151.94 1625.91 157.66 1632.11 151.94 1638.3 151.94 1644.48 151.94 1650.67 169.13 1656.87 163.41 1663.06 180.6 1669.25 192.06 1675.45 192.06 1681.64 197.81 1687.82 203.53 1694.01 209.28 1700.2 203.53 1706.4 197.81 1712.59 209.28 1718.79 203.53 1724.98 192.06 1731.17 192.06 1737.35 197.81 1743.54 163.41 1749.74 215 1755.93 197.81 1762.12"/><polyline class="c" points="215 152.37 203.53 158.56 197.81 164.76 180.6 170.93 226.47 177.13 220.74 183.32 215 189.51 215 195.71 215 201.9 209.28 208.09 197.81 214.29 215 220.46 209.28 226.66 203.53 232.85 215 239.05 215 245.24 226.47 251.43 220.74 257.63 220.74 263.8 215 270 215 276.19 220.74 282.38 220.74 288.58 203.53 294.77 197.81 300.97 192.06 307.14 180.6 313.33 180.6 319.53 157.66 325.72 163.41 331.92 169.13 338.11 157.66 344.31 174.87 350.5 174.87 356.67 169.13 362.87 169.13 369.06 186.34 375.25 197.81 381.45 192.06 387.64 186.34 393.84 197.81 400.01 203.53 406.2 203.53 412.4 203.53 418.59 209.28 424.79 197.81 430.98 209.28 437.18 215 443.37 226.47 449.54 226.47 455.74 197.81 461.93 220.74 468.13 237.94 474.32 232.21 480.51 209.28 486.71 220.74 492.88 243.68 499.08 249.41 505.27 255.15 511.46 243.68 517.66 243.68 523.85 226.47 530.05 226.47 536.24 243.68 542.41 237.94 548.61 232.21 554.8 215 561 226.47 567.19 260.88 573.38 226.47 579.58 237.94 585.75 226.47 591.95 215 598.14 249.41 604.34 232.21 610.53 220.74 616.72 220.74 622.92 192.06 629.09 192.06 635.29 186.34 641.48 174.87 647.67 186.34 653.87 174.87 660.06 180.6 666.26 174.87 672.45 197.81 678.62 186.34 684.82 186.34 691.01 192.06 697.21 237.94 703.4 243.68 709.59 215 715.79 209.28 721.96 226.47 728.16 209.28 734.35 203.53 740.54 203.53 746.74 226.47 752.93 226.47 759.13 220.74 765.32 220.74 771.5 220.74 777.69 186.34 783.88 215 790.08 215 796.27 197.81 802.47 174.87 808.66 186.34 814.83 203.53 821.03 203.53 827.22 215 833.41 215 839.61 226.47 845.8 226.47 852 232.21 858.19 243.68 864.37 266.61 870.56 249.41 876.75 278.07 882.95 237.94 889.14 272.35 895.34 243.68 901.53 243.68 907.7 232.21 913.9 226.47 920.09 237.94 926.29 226.47 932.48 215 938.67 192.06 944.87 180.6 951.04 169.13 957.24 186.34 963.43 169.13 969.63 163.41 975.82 169.13 982.01 174.87 988.21 169.13 994.4 169.13 1000.58 163.41 1006.77 151.94 1012.96 186.34 1019.16 186.34 1025.35 180.6 1031.55 192.06 1037.74 192.06 1043.91 203.53 1050.11 220.74 1056.3 203.53 1062.49 186.34 1068.69 203.53 1074.88 197.81 1081.08 203.53 1087.27 174.87 1093.45 203.53 1099.64 186.34 1105.83 215 1112.03 203.53 1118.22 220.74 1124.42 192.06 1130.61 180.6 1136.78 186.34 1142.98 209.28 1149.17 192.06 1155.37 197.81 1161.56 203.53 1167.75 215 1173.95 220.74 1180.14 203.53 1186.32 203.53 1192.51 209.28 1198.7 197.81 1204.9 197.81 1211.09 220.74 1217.29 209.28 1223.48 203.53 1229.65 209.28 1235.85 220.74 1242.04 220.74 1248.24 232.21 1254.43 209.28 1260.63 209.28 1266.82 180.6 1272.99 186.34 1279.19 163.41 1285.38 157.66 1291.58 151.94 1297.77 151.94 1303.96 169.13 1310.16 151.94 1316.35 163.41 1322.53 157.66 1328.72 163.41 1334.91 163.41 1341.11 169.13 1347.3 174.87 1353.5 174.87 1359.69 174.87 1365.86 180.6 1372.06 186.34 1378.25 192.06 1384.45 203.53 1390.64 209.28 1396.84 215 1403.03 220.74 1409.22 249.41 1415.4 249.41 1421.59 197.81 1427.79 232.21 1433.98 209.28 1440.17 192.06 1446.37 192.06 1452.56 192.06 1458.73 180.6 1464.93 209.28 1471.12 209.28 1477.32 266.61 1483.51 215 1489.7 203.53 1495.9 209.28 1502.09 215 1508.27 209.28 1514.46 220.74 1520.66 209.28 1526.85 215 1533.04 215 1539.24 203.53 1545.43 197.81 1551.61 209.28 1557.8 215 1563.99 209.28 1570.19 209.28 1576.38 203.53 1582.58 192.06 1588.77 186.34 1594.96 169.13 1601.14 163.41 1607.33 163.41 1613.53 169.13 1619.72 163.41 1625.91 163.41 1632.11 174.87 1638.3 203.53 1644.48 421.43 1650.67 266.61 1656.87 215 1663.06 209.28 1669.25 209.28 1675.45 220.74 1681.64 215 1687.82 203.53 1694.01 209.28 1700.2 209.28 1706.4 215 1712.59 209.28 1718.79 209.28 1724.98 197.81 1731.17 203.53 1737.35 249.41 1743.54 220.74 1749.74 232.21 1755.93 220.74 1762.12"/><polyline class="d" points="140.47 152.37 129 158.56 117.53 164.76 117.53 170.93 129 177.13 146.19 183.32 134.74 189.51 151.94 195.71 151.94 201.9 140.47 208.09 146.19 214.29 140.47 220.46 134.74 226.66 146.19 232.85 134.74 239.05 134.74 245.24 151.94 251.43 140.47 257.63 140.47 263.8 151.94 270 163.41 276.19 151.94 282.38 151.94 288.58 140.47 294.77 134.74 300.97 129 307.14 123.27 313.33 123.27 319.53 123.27 325.72 123.27 331.92 117.53 338.11 117.53 344.31 129 350.5 117.53 356.67 123.27 362.87 123.27 369.06 140.47 375.25 129 381.45 129 387.64 134.74 393.84 134.74 400.01 134.74 406.2 129 412.4 140.47 418.59 140.47 424.79 129 430.98 140.47 437.18 140.47 443.37 151.94 449.54 146.19 455.74 129 461.93 157.66 468.13 186.34 474.32 169.13 480.51 134.74 486.71 169.13 492.88 163.41 499.08 163.41 505.27 157.66 511.46 157.66 517.66 163.41 523.85 157.66 530.05 146.19 536.24 146.19 542.41 140.47 548.61 157.66 554.8 146.19 561 151.94 567.19 140.47 573.38 146.19 579.58 151.94 585.75 151.94 591.95 157.66 598.14 157.66 604.34 157.66 610.53 140.47 616.72 134.74 622.92 129 629.09 129 635.29 123.27 641.48 123.27 647.67 123.27 653.87 123.27 660.06 117.53 666.26 123.27 672.45 123.27 678.62 123.27 684.82 117.53 691.01 123.27 697.21 134.74 703.4 134.74 709.59 134.74 715.79 134.74 721.96 129 728.16 134.74 734.35 140.47 740.54 134.74 746.74 146.19 752.93 134.74 759.13 146.19 765.32 146.19 771.5 151.94 777.69 123.27 783.88 146.19 790.08 140.47 796.27 140.47 802.47 123.27 808.66 134.74 814.83 146.19 821.03 140.47 827.22 140.47 833.41 134.74 839.61 134.74 845.8 134.74 852 140.47 858.19 146.19 864.37 146.19 870.56 146.19 876.75 140.47 882.95 146.19 889.14 134.74 895.34 151.94 901.53 146.19 907.7 151.94 913.9 157.66 920.09 146.19 926.29 151.94 932.48 140.47 938.67 129 944.87 134.74 951.04 129 957.24 117.53 963.43 117.53 969.63 117.53 975.82 117.53 982.01 117.53 988.21 123.27 994.4 123.27 1000.58 111.8 1006.77 111.8 1012.96 117.53 1019.16 123.27 1025.35 123.27 1031.55 134.74 1037.74 129 1043.91 129 1050.11 129 1056.3 129 1062.49 123.27 1068.69 134.74 1074.88 134.74 1081.08 134.74 1087.27 123.27 1093.45 157.66 1099.64 129 1105.83 140.47 1112.03 140.47 1118.22 134.74 1124.42 129 1130.61 129 1136.78 134.74 1142.98 146.19 1149.17 134.74 1155.37 140.47 1161.56 151.94 1167.75 151.94 1173.95 140.47 1180.14 146.19 1186.32 157.66 1192.51 151.94 1198.7 146.19 1204.9 151.94 1211.09 146.19 1217.29 151.94 1223.48 146.19 1229.65 151.94 1235.85 157.66 1242.04 157.66 1248.24 151.94 1254.43 151.94 1260.63 140.47 1266.82 134.74 1272.99 129 1279.19 129 1285.38 129 1291.58 123.27 1297.77 117.53 1303.96 129 1310.16 123.27 1316.35 117.53 1322.53 123.27 1328.72 129 1334.91 123.27 1341.11 117.53 1347.3 123.27 1353.5 123.27 1359.69 129 1365.86 123.27 1372.06 129 1378.25 129 1384.45 134.74 1390.64 140.47 1396.84 140.47 1403.03 140.47 1409.22 146.19 1415.4 151.94 1421.59 134.74 1427.79 140.47 1433.98 140.47 1440.17 140.47 1446.37 134.74 1452.56 129 1458.73 129 1464.93 140.47 1471.12 146.19 1477.32 146.19 1483.51 140.47 1489.7 140.47 1495.9 140.47 1502.09 146.19 1508.27 140.47 1514.46 146.19 1520.66 140.47 1526.85 140.47 1533.04 151.94 1539.24 146.19 1545.43 157.66 1551.61 151.94 1557.8 157.66 1563.99 157.66 1570.19 146.19 1576.38 140.47 1582.58 146.19 1588.77 134.74 1594.96 129 1601.14 129 1607.33 123.27 1613.53 129 1619.72 134.74 1625.91 129 1632.11 129 1638.3 129 1644.48 129 1650.67 129 1656.87 123.27 1663.06 129 1669.25 129 1675.45 129 1681.64 134.74 1687.82 134.74 1694.01 134.74 1700.2 140.47 1706.4 134.74 1712.59 134.74 1718.79 129 1724.98 134.74 1731.17 134.74 1737.35 140.47 1743.54 134.74 1749.74 146.19 1755.93 140.47 1762.12"/><line class="e" x1="637.24" y1="120.13" x2="637.24" y2="129.92"/><line class="e" x1="77.7" y1="127.27" x2="77.7" y2="1777.69"/><line class="f" x1="74.14" y1="173.6" x2="76.88" y2="173.6"/><line class="f" x1="73.96" y1="819.27" x2="76.7" y2="819.27"/><line class="f" x1="73.44" y1="1465.82" x2="76.18" y2="1465.82"/><text class="g" transform="matrix(1, 0, 0, 1, 0.03, 180.46)">2014</text><text class="g" transform="translate(6.47 826.87)">2016</text><text class="g" transform="translate(4.74 1471.65)">2018</text><line class="e" x1="492.26" y1="127.27" x2="492.26" y2="143.22"/><line class="e" x1="348.91" y1="127.27" x2="348.91" y2="143.22"/><line class="e" x1="205.57" y1="127.27" x2="205.57" y2="143.22"/><text class="h" transform="translate(658.85 1312.27) rotate(-2.11)">Da Vinci’s<tspan x="14.62" y="28.8">painting</tspan><tspan x="19.03" y="57.6">sells for</tspan><tspan x="-17.59" y="86.4">$450 million</tspan></text><text class="h" transform="translate(639.38 1532.32) scale(1.21 1)">Genius: Picasso<tspan x="39.65" y="28.8">is released</tspan></text><text class="h" transform="translate(654.59 1695.24) rotate(-1.42)">An Eternity’s <tspan x="76.22" y="28.8">Gate</tspan><tspan x="-14.74" y="57.6">premiered about</tspan><tspan x="-4.66" y="86.4">Van Gogh’s life</tspan></text><path class="i" d="M636.52,1551.39a124.12,124.12,0,0,1-22.69,13.34,102.26,102.26,0,0,1-25.21,7.69,96.52,96.52,0,0,1-13.15,1.33,99,99,0,0,1-13.22-.57,95.32,95.32,0,0,1-25.47-6.72l.05-.15a112.54,112.54,0,0,0,25.54,5.87,98.49,98.49,0,0,0,26.12-.55,102.18,102.18,0,0,0,25.14-7.35,124.36,124.36,0,0,0,22.83-13Z"/><polygon class="i" points="541.34 1563.67 541.73 1564.6 537.17 1566.5 539.4 1570.9 538.51 1571.35 535.8 1565.99 541.34 1563.67"/><path class="i" d="M430.05,1656.63a82.8,82.8,0,0,0,13.4,19.14A73.85,73.85,0,0,0,461.89,1690a86.56,86.56,0,0,0,21.93,7.94c7.6,1.76,15.35,2.86,23.1,3.89s15.53,1.88,23.31,2.61,15.58,1.36,23.38,1.84,15.61.94,23.43,1.2c3.91.13,7.82.24,11.73.3s7.82.14,11.73.19v.1c-3.91.07-7.82.15-11.73.16s-7.83,0-11.75-.11q-11.73-.23-23.47-.84t-23.41-1.86q-11.7-1.17-23.33-2.8c-7.75-1.08-15.51-2.22-23.14-4.05a86.9,86.9,0,0,1-22-8.13A74.43,74.43,0,0,1,443.22,1676a83.23,83.23,0,0,1-13.27-19.3Z"/><polygon class="i" points="428.01 1661.5 428.98 1661.75 430.22 1656.98 434.89 1658.57 435.21 1657.62 429.52 1655.69 428.01 1661.5"/><text class="h" transform="translate(647.71 494.06)">Pablo Picasso&apos;s<tspan x="-17.35" y="28.8">Women of Algiers</tspan><tspan x="-50.3" y="57.6">sells for $149 million.</tspan></text><path class="i" d="M449.87,595.83a142.36,142.36,0,0,1,25.27-36.66,138,138,0,0,1,35.51-26.94l1.22-.68,1.26-.61,2.52-1.21,2.53-1.21,1.26-.61,1.3-.53,5.18-2.12c.86-.37,1.74-.67,2.63-1l2.65-.9c1.77-.6,3.53-1.22,5.34-1.68s3.6-1,5.41-1.48l5.46-1.21c.91-.22,1.83-.39,2.75-.54l2.76-.47a147.47,147.47,0,0,1,22.3-1.77A130.73,130.73,0,0,1,597.49,518v.1q-5.54-.74-11.11-1l-2.78-.14-2.79-.07c-1.86-.07-3.71,0-5.57,0A146.47,146.47,0,0,0,553.09,519c-1.83.35-3.67.57-5.48,1l-5.43,1.21c-1.79.46-3.57,1-5.36,1.47s-3.55,1.06-5.31,1.66l-2.64.88c-.88.28-1.76.58-2.61.94l-5.17,2.06-1.29.51-1.26.59L516,530.5l-2.52,1.18-1.26.59-1.22.67a137.64,137.64,0,0,0-35.51,26.58A142.68,142.68,0,0,0,450,595.87Z"/><polygon class="i" points="455.08 594.72 454.73 593.78 450.11 595.51 448.72 590.78 447.76 591.06 449.45 596.82 455.08 594.72"/><path class="i" d="M582.85,1393.87a43.72,43.72,0,0,1,2.85-25.71A42.48,42.48,0,0,1,615,1343.7a43.65,43.65,0,0,1,13.14-1,42.58,42.58,0,0,1,23.94,10l-.07.07a45.21,45.21,0,0,0-24-9.07,42.9,42.9,0,0,0-24.84,5.61,41.89,41.89,0,0,0-17,19,43.44,43.44,0,0,0-3.2,25.48Z"/><polygon class="i" points="586.44 1389.92 585.61 1389.36 582.88 1393.47 578.98 1390.45 578.37 1391.25 583.12 1394.92 586.44 1389.92"/><line class="j" x1="637.24" y1="158.68" x2="637.24" y2="1809.11"/><line class="j" x1="492.26" y1="158.68" x2="492.26" y2="1809.11"/><line class="j" x1="348.91" y1="158.68" x2="348.91" y2="1809.11"/><line class="j" x1="205.57" y1="152.37" x2="205.57" y2="1802.8"/><text class="k" transform="translate(617.65 16.9)">LOTS<tspan x="12.83" y="25.2">of</tspan><tspan x="-12.88" y="50.4">Searches</tspan><tspan x="-1.51" y="75.6">(100)</tspan></text><text class="k" transform="translate(68.06 29.5)">No<tspan x="-22.83" y="25.2">Searches</tspan><tspan x="-2.01" y="50.4">(0)</tspan></text><text class="k" transform="translate(348.91 29.5)"><tspan x="-16.38" y="50.4">(50)</tspan></text><text class="l" transform="translate(506.85 467.53)">May 12, 2015</text><text class="l" transform="translate(512.89 1283.1)">Nov 15, 2017</text><text class="l" transform="translate(512.87 1524.28)">Apr 24, 2018</text><text class="l" transform="translate(524.68 1683.73)">Sep 3, 2018</text></svg>